<?xml version="1.0" encoding="UTF-8" standalone="no"?>
<!DOCTYPE svg PUBLIC "-//W3C//DTD SVG 1.1//EN" "http://www.w3.org/Graphics/SVG/1.1/DTD/svg11.dtd">
<svg width="100%" height="100%" viewBox="0 0 32 32" version="1.1" xmlns="http://www.w3.org/2000/svg" xmlns:xlink="http://www.w3.org/1999/xlink" xml:space="preserve" xmlns:serif="http://www.serif.com/" style="fill-rule:evenodd;clip-rule:evenodd;stroke-linejoin:round;stroke-miterlimit:2;">
    <g id="pointer">
        <path d="M1.707,0.293C1.414,-0.001 0.969,-0.082 0.59,0.088C0.212,0.258 -0.023,0.644 0.002,1.059L1.002,18.059C1.026,18.472 1.302,18.827 1.697,18.953C2.091,19.078 2.522,18.948 2.781,18.625L6.481,14C6.481,14 13,14 13,14C13.404,14 13.769,13.756 13.924,13.383C14.079,13.009 13.993,12.579 13.707,12.293L1.707,0.293Z" style="fill:#fff;"/>
        <path d="M1,1L2,18L6,13L13,13L1,1Z" style="fill:#0e416c;"/>
    </g>
    <g id="B">
        <rect x="17" y="17" width="14" height="14" style="fill:#fff;"/>
        <path d="M32,17C32,16.448 31.552,16 31,16L17,16C16.448,16 16,16.448 16,17L16,31C16,31.552 16.448,32 17,32L31,32C31.552,32 32,31.552 32,31L32,17ZM31,17L17,17L17,31L31,31L31,17Z" style="fill:#009ad9;"/>
        <path d="M24.349,29.011L21.286,29.011C20.844,29.011 20.528,28.912 20.339,28.713C20.15,28.515 20.056,28.2 20.056,27.767L20.056,20.233C20.056,19.791 20.152,19.473 20.346,19.28C20.54,19.086 20.853,18.989 21.286,18.989L24.533,18.989C25.012,18.989 25.426,19.019 25.777,19.078C26.128,19.137 26.443,19.251 26.721,19.42C26.958,19.561 27.167,19.74 27.35,19.957C27.532,20.173 27.671,20.412 27.767,20.674C27.862,20.936 27.91,21.213 27.91,21.505C27.91,22.507 27.409,23.241 26.406,23.706C27.723,24.125 28.382,24.941 28.382,26.153C28.382,26.714 28.238,27.219 27.951,27.667C27.664,28.116 27.277,28.448 26.789,28.662C26.484,28.79 26.133,28.88 25.736,28.932C25.34,28.985 24.877,29.011 24.349,29.011ZM24.198,24.561L22.086,24.561L22.086,27.486L24.267,27.486C25.638,27.486 26.324,26.992 26.324,26.003C26.324,25.497 26.146,25.13 25.791,24.902C25.436,24.674 24.905,24.561 24.198,24.561ZM22.086,20.514L22.086,23.104L23.945,23.104C24.451,23.104 24.842,23.057 25.118,22.961C25.393,22.865 25.604,22.683 25.75,22.414C25.864,22.223 25.921,22.008 25.921,21.771C25.921,21.266 25.741,20.93 25.381,20.763C25.021,20.597 24.472,20.514 23.733,20.514L22.086,20.514Z" style="fill:#0e416c;fill-rule:nonzero;"/>
    </g>
</svg>
