<?xml version="1.0" encoding="UTF-8" standalone="no"?><!DOCTYPE svg PUBLIC "-//W3C//DTD SVG 1.1//EN" "http://www.w3.org/Graphics/SVG/1.1/DTD/svg11.dtd"><svg width="100%" height="100%" viewBox="0 0 512 512" version="1.1" xmlns="http://www.w3.org/2000/svg" xmlns:xlink="http://www.w3.org/1999/xlink" xml:space="preserve" xmlns:serif="http://www.serif.com/" style="fill-rule:evenodd;clip-rule:evenodd;stroke-linejoin:round;stroke-miterlimit:1.41421;"><path d="M512,64c0,-35.323 -28.677,-64 -64,-64l-384,0c-35.323,0 -64,28.677 -64,64l0,384c0,35.323 28.677,64 64,64l384,0c35.323,0 64,-28.677 64,-64l0,-384Z" style="fill:#3f3c34;"/><g><path d="M211.44,240.605l-26.398,0c12.892,-27.679 40.335,-46.056 71.244,-46.056c30.909,0 58.352,18.377 71.244,46.056l-26.397,0c-10.31,-13.896 -26.489,-23.028 -44.847,-23.028c-18.357,0 -34.537,9.132 -44.846,23.028Zm-127.89,-26.357l7.686,26.357l70.516,0c14.263,-41.002 52.094,-69.084 95.374,-69.084c43.279,0 81.11,28.082 95.373,69.084l77.849,0l-19.912,-27.402l10.193,-6.004c7.275,-4.28 7.557,-14.882 0.573,-19.577l-36.914,-24.883l7.559,-9.209c5.39,-6.533 2.12,-16.601 -6.016,-18.599l-43.03,-10.491l4.023,-11.289c2.915,-8.122 -3.762,-16.446 -11.89,-15.371l-43.956,5.149l0,-12.009c0,-8.503 -8.769,-14.131 -16.33,-10.3l-39.58,20.183l-4.023,-11.278c-2.812,-7.923 -12.955,-10.288 -18.798,-3.981l-30.414,32.789l-7.559,-9.209c-5.436,-6.614 -15.688,-4.956 -19.008,2.822l-17.598,41.424l-10.193,-6.016c-7.174,-4.221 -16.404,0.671 -16.904,9.288l-2.655,45.067l-11.593,-2.08c-8.001,-1.555 -15.225,6.278 -12.773,14.619Z" style="fill:#fff;fill-rule:nonzero;"/><path d="M429.446,272.605c10.24,0.001 18.554,8.314 18.554,18.555l0,122.891c0,10.24 -8.314,18.554 -18.554,18.554l-346.892,0c-10.24,0 -18.554,-8.314 -18.554,-18.554l0,-122.891c0,-10.241 8.314,-18.554 18.554,-18.555l346.892,0Zm-289.267,18.85c12.476,0 23.189,2.488 32.136,7.463c8.947,4.974 15.719,12.047 20.316,21.217c4.596,9.169 6.895,19.939 6.895,32.309c0,9.143 -1.259,17.452 -3.776,24.928c-2.517,7.475 -6.293,13.956 -11.328,19.442c-5.034,5.485 -11.218,9.68 -18.551,12.585c-7.333,2.904 -15.733,4.356 -25.2,4.356c-9.412,0 -17.84,-1.493 -25.282,-4.477c-7.442,-2.985 -13.653,-7.194 -18.633,-12.626c-4.98,-5.432 -8.742,-11.966 -11.287,-19.603c-2.544,-7.637 -3.817,-15.893 -3.817,-24.767c0,-9.089 1.327,-17.425 3.981,-25.008c2.654,-7.583 6.499,-14.037 11.533,-19.361c5.035,-5.325 11.164,-9.399 18.387,-12.222c7.224,-2.824 15.432,-4.236 24.626,-4.236Zm182.72,82.932c0,3.764 -0.944,7.838 -2.832,12.222c-1.888,4.383 -4.857,8.685 -8.906,12.907c-4.05,4.222 -9.221,7.651 -15.514,10.286c-6.293,2.635 -13.626,3.953 -21.999,3.953c-6.348,0 -12.121,-0.592 -17.32,-1.775c-5.198,-1.183 -9.918,-3.025 -14.159,-5.526c-4.241,-2.501 -8.14,-5.795 -11.697,-9.882c-3.174,-3.711 -5.883,-7.866 -8.127,-12.464c-2.243,-4.599 -3.926,-9.506 -5.048,-14.723c-1.122,-5.217 -1.683,-10.756 -1.683,-16.618c0,-9.52 1.409,-18.044 4.228,-25.574c2.818,-7.529 6.854,-13.969 12.107,-19.321c5.254,-5.351 11.41,-9.425 18.469,-12.222c7.06,-2.796 14.584,-4.195 22.574,-4.195c9.74,0 18.414,1.91 26.02,5.728c7.607,3.819 13.435,8.538 17.484,14.158c4.05,5.62 6.075,10.931 6.075,15.933c0,2.743 -0.985,5.163 -2.955,7.261c-1.97,2.097 -4.351,3.146 -7.142,3.146c-3.119,0 -5.458,-0.726 -7.018,-2.178c-1.56,-1.453 -3.297,-3.953 -5.212,-7.503c-3.174,-5.862 -6.909,-10.245 -11.205,-13.15c-4.296,-2.904 -9.59,-4.356 -15.883,-4.356c-10.015,0 -17.991,3.738 -23.928,11.214c-5.937,7.475 -8.906,18.097 -8.906,31.865c0,9.197 1.313,16.847 3.94,22.952c2.627,6.104 6.348,10.662 11.163,13.674c4.816,3.011 10.453,4.517 16.91,4.517c7.004,0 12.928,-1.707 17.771,-5.123c4.843,-3.415 8.496,-8.43 10.958,-15.045c1.04,-3.119 2.326,-5.66 3.858,-7.623c1.533,-1.964 3.995,-2.945 7.388,-2.945c2.9,0 5.39,0.995 7.47,2.985c2.079,1.99 3.119,4.464 3.119,7.422Zm45.803,17.667l0,-86.078c0,-4.894 -1.135,-8.537 -3.406,-10.931c-2.271,-2.393 -5.24,-3.59 -8.907,-3.59c-3.611,0 -6.525,1.211 -8.742,3.631c-2.216,2.42 -3.324,6.05 -3.324,10.89l0,91.08c0,5.163 1.163,8.901 3.489,11.213c2.325,2.313 6.142,3.469 11.45,3.469l58.855,0c3.996,0 7.032,-0.901 9.111,-2.702c2.08,-1.802 3.12,-4.155 3.12,-7.059c0,-2.851 -1.054,-5.217 -3.161,-7.099c-2.106,-1.883 -5.129,-2.824 -9.07,-2.824l-49.415,0Zm-193.884,-39.772c0,-8.658 -1.422,-16.161 -4.268,-22.507c-2.846,-6.346 -6.909,-11.146 -12.19,-14.4c-5.28,-3.254 -11.341,-4.881 -18.181,-4.881c-4.871,0 -9.372,0.901 -13.503,2.703c-4.132,1.801 -7.689,4.423 -10.671,7.865c-2.983,3.442 -5.336,7.839 -7.06,13.19c-1.723,5.351 -2.585,11.362 -2.585,18.03c0,6.723 0.862,12.8 2.585,18.232c1.724,5.432 4.159,9.937 7.306,13.513c3.147,3.577 6.758,6.252 10.835,8.027c4.077,1.775 8.551,2.662 13.421,2.662c6.238,0 11.971,-1.533 17.197,-4.598c5.226,-3.066 9.385,-7.798 12.477,-14.199c3.091,-6.4 4.637,-14.279 4.637,-23.637Z" style="fill:#fff;"/></g></svg>