<?xml version="1.0" encoding="UTF-8" standalone="no"?>
<!DOCTYPE svg PUBLIC "-//W3C//DTD SVG 1.1//EN" "http://www.w3.org/Graphics/SVG/1.1/DTD/svg11.dtd">
<svg width="100%" height="100%" viewBox="0 0 512 512" version="1.1" xmlns="http://www.w3.org/2000/svg" xmlns:xlink="http://www.w3.org/1999/xlink" xml:space="preserve" xmlns:serif="http://www.serif.com/" style="fill-rule:evenodd;clip-rule:evenodd;stroke-linejoin:round;stroke-miterlimit:2;">
    <g transform="matrix(0.875,0,0,0.875,32,32)">
        <path d="M512,64C512,28.677 483.323,0 448,0L64,0C28.677,0 0,28.677 0,64L0,448C0,483.323 28.677,512 64,512L448,512C483.323,512 512,483.323 512,448L512,64Z" style="fill:white;fill-opacity:0.8;"/>
    </g>
    <g transform="matrix(0.875,0,0,0.875,32,32)">
        <path d="M512,64C512,28.677 483.323,0 448,0L64,0C28.677,0 0,28.677 0,64L0,448C0,483.323 28.677,512 64,512L448,512C483.323,512 512,483.323 512,448L512,64ZM487,64L487,448C487,469.525 469.525,487 448,487L64,487C42.475,487 25,469.525 25,448L25,64C25,42.475 42.475,25 64,25L448,25C469.525,25 487,42.475 487,64Z" style="fill:rgb(63,60,52);"/>
    </g>
    <g transform="matrix(0.791358,0,0,0.791358,78.7355,69.9862)">
        <path d="M209.038,265.627L209.038,114.005L160.341,130.735L159.464,130.982C158.662,131.13 158.452,131.204 157.637,131.229C156.415,131.266 155.18,131.056 154.032,130.624C150.834,129.402 148.525,126.426 148.13,123.018C148.031,122.104 148.068,121.178 148.229,120.264C148.525,118.708 149.217,117.4 150.143,116.14L216.817,33.995C217.36,33.39 217.471,33.217 218.101,32.699C219.039,31.921 220.138,31.328 221.299,30.97C222.077,30.735 222.287,30.735 223.089,30.612C224.002,30.563 224.002,30.563 224.916,30.612C225.718,30.735 225.928,30.735 226.706,30.97C227.879,31.328 228.966,31.921 229.904,32.699C230.534,33.217 230.657,33.391 231.188,33.995L297.862,116.14C298.343,116.794 298.492,116.942 298.874,117.671C299.442,118.758 299.787,119.955 299.899,121.178C300.22,124.919 298.17,128.573 294.812,130.253C293.997,130.661 293.108,130.957 292.207,131.105C290.639,131.364 289.169,131.167 287.663,130.734L238.966,114.004L238.966,265.626L370.277,341.437L380.142,290.913L380.364,290.012C380.636,289.246 380.673,289.037 381.067,288.321C381.647,287.234 382.438,286.271 383.388,285.494C386.043,283.333 389.784,282.827 392.92,284.198C393.772,284.556 394.562,285.05 395.253,285.655C396.463,286.68 397.253,287.939 397.883,289.372L435.678,388.186C435.937,388.952 436.024,389.149 436.159,389.952C436.369,391.149 436.332,392.397 436.06,393.582C435.875,394.372 435.764,394.557 435.467,395.311C435.047,396.126 435.059,396.113 434.554,396.892C434.047,397.534 433.949,397.707 433.357,398.263C432.456,399.103 431.406,399.745 430.258,400.177C429.492,400.461 429.283,400.473 428.492,400.646L324.023,417.302C323.208,417.388 322.998,417.45 322.183,417.413C320.961,417.364 319.751,417.067 318.627,416.548C315.232,414.956 313.095,411.35 313.318,407.609C313.367,406.696 313.565,405.782 313.886,404.917C314.442,403.435 315.355,402.262 316.479,401.176L355.311,367.369L224,291.558L92.689,367.369L131.521,401.176C132.645,402.263 133.558,403.436 134.114,404.917C134.435,405.782 134.632,406.695 134.682,407.609C134.904,411.35 132.768,414.956 129.373,416.548C128.262,417.066 127.04,417.363 125.817,417.413C125.002,417.45 124.792,417.388 123.977,417.302L19.508,400.646C18.718,400.473 18.508,400.461 17.742,400.177C16.594,399.745 15.544,399.103 14.655,398.263C14.05,397.707 13.952,397.535 13.445,396.892C12.938,396.114 12.951,396.126 12.532,395.311C12.236,394.558 12.124,394.373 11.952,393.582C11.668,392.396 11.631,391.15 11.841,389.952C11.977,389.15 12.063,388.952 12.322,388.186L50.129,289.372C50.759,287.94 51.549,286.68 52.747,285.655C53.451,285.05 54.229,284.556 55.08,284.198C58.216,282.827 61.957,283.333 64.612,285.494C65.563,286.272 66.365,287.235 66.933,288.321C67.328,289.037 67.365,289.247 67.637,290.012L67.859,290.913L77.724,341.437L209.038,265.627Z" style="fill:rgb(63,60,52);fill-rule:nonzero;"/>
    </g>
</svg>
