<?xml version="1.0" encoding="UTF-8" standalone="no"?>
<!DOCTYPE svg PUBLIC "-//W3C//DTD SVG 1.1//EN" "http://www.w3.org/Graphics/SVG/1.1/DTD/svg11.dtd">
<svg width="100%" height="100%" viewBox="0 0 512 512" version="1.1" xmlns="http://www.w3.org/2000/svg" xmlns:xlink="http://www.w3.org/1999/xlink" xml:space="preserve" xmlns:serif="http://www.serif.com/" style="fill-rule:evenodd;clip-rule:evenodd;stroke-linejoin:round;stroke-miterlimit:2;">
    <g transform="matrix(0.875,0,0,0.875,32,32)">
        <path d="M512,64C512,28.677 483.323,0 448,0L64,0C28.677,0 0,28.677 0,64L0,448C0,483.323 28.677,512 64,512L448,512C483.323,512 512,483.323 512,448L512,64Z" style="fill:white;fill-opacity:0.8;"/>
    </g>
    <g transform="matrix(0.875,0,0,0.875,32,32)">
        <path d="M512,64C512,28.677 483.323,0 448,0L64,0C28.677,0 0,28.677 0,64L0,448C0,483.323 28.677,512 64,512L448,512C483.323,512 512,483.323 512,448L512,64ZM487,64L487,448C487,469.525 469.525,487 448,487L64,487C42.475,487 25,469.525 25,448L25,64C25,42.475 42.475,25 64,25L448,25C469.525,25 487,42.475 487,64Z" style="fill:rgb(63,60,52);"/>
    </g>
    <g id="pointer" transform="matrix(16.316,0,0,16.316,151.785,100.998)">
        <g transform="matrix(0.875,0,0,0.875,0.798411,1.1875)">
            <path d="M1.707,0.293C1.414,-0.001 0.969,-0.082 0.59,0.088C0.212,0.258 -0.023,0.644 0.002,1.059L1.002,18.059C1.026,18.472 1.302,18.827 1.697,18.953C2.091,19.078 2.522,18.948 2.781,18.625L6.481,14L13,14C13.404,14 13.769,13.756 13.924,13.383C14.079,13.009 13.993,12.579 13.707,12.293L1.707,0.293Z" style="fill:rgb(63,60,52);"/>
        </g>
        <g transform="matrix(0.875,0,0,0.875,0.798411,1.1875)">
            <path d="M1,1L2,18L6,13L13,13L1,1Z" style="fill:white;stroke:rgb(63,60,52);stroke-width:0.92px;"/>
        </g>
    </g>
</svg>
