<?xml version="1.0" encoding="UTF-8" standalone="no"?>
<!DOCTYPE svg PUBLIC "-//W3C//DTD SVG 1.1//EN" "http://www.w3.org/Graphics/SVG/1.1/DTD/svg11.dtd">
<svg width="100%" height="100%" viewBox="0 0 512 512" version="1.1" xmlns="http://www.w3.org/2000/svg" xmlns:xlink="http://www.w3.org/1999/xlink" xml:space="preserve" xmlns:serif="http://www.serif.com/" style="fill-rule:evenodd;clip-rule:evenodd;stroke-linecap:round;stroke-linejoin:round;stroke-miterlimit:1.5;">
    <g>
        <path d="M480,88C480,57.092 454.908,32 424,32L88,32C57.092,32 32,57.092 32,88L32,424C32,454.908 57.092,480 88,480L424,480C454.908,480 480,454.908 480,424L480,88Z" style="fill:#fff;"/>
        <path d="M352,192L160,160L160,352L320,352L352,192Z" style="fill:#fff;stroke:#3f3c34;stroke-width:20px;"/>
    </g>
    <g>
        <path d="M384,176C384,167.169 376.831,160 368,160L336,160C327.169,160 320,167.169 320,176L320,208C320,216.831 327.169,224 336,224L368,224C376.831,224 384,216.831 384,208L384,176Z" style="fill:#fff;stroke:#3f3c34;stroke-width:20px;"/>
        <path d="M352,336C352,327.169 344.831,320 336,320L304,320C295.169,320 288,327.169 288,336L288,368C288,376.831 295.169,384 304,384L336,384C344.831,384 352,376.831 352,368L352,336Z" style="fill:#fff;stroke:#3f3c34;stroke-width:20px;"/>
        <path d="M192,336C192,327.169 184.831,320 176,320L144,320C135.169,320 128,327.169 128,336L128,368C128,376.831 135.169,384 144,384L176,384C184.831,384 192,376.831 192,368L192,336Z" style="fill:#fff;stroke:#3f3c34;stroke-width:20px;"/>
        <path d="M192,144C192,135.169 184.831,128 176,128L144,128C135.169,128 128,135.169 128,144L128,176C128,184.831 135.169,192 144,192L176,192C184.831,192 192,184.831 192,176L192,144Z" style="fill:#fff;stroke:#3f3c34;stroke-width:20px;"/>
    </g>
    <g>
        <path d="M480,88C480,57.092 454.908,32 424,32L88,32C57.092,32 32,57.092 32,88L32,424C32,454.908 57.092,480 88,480L424,480C454.908,480 480,454.908 480,424L480,88ZM458.125,88L458.125,424C458.125,442.834 442.834,458.125 424,458.125L88,458.125C69.166,458.125 53.875,442.834 53.875,424L53.875,88C53.875,69.166 69.166,53.875 88,53.875L424,53.875C442.834,53.875 458.125,69.166 458.125,88Z" style="fill:#3f3c34;"/>
    </g>
</svg>
