<?xml version="1.0" encoding="UTF-8" standalone="no"?>
<!DOCTYPE svg PUBLIC "-//W3C//DTD SVG 1.1//EN" "http://www.w3.org/Graphics/SVG/1.1/DTD/svg11.dtd">
<svg width="100%" height="100%" viewBox="0 0 512 512" version="1.1" xmlns="http://www.w3.org/2000/svg" xmlns:xlink="http://www.w3.org/1999/xlink" xml:space="preserve" xmlns:serif="http://www.serif.com/" style="fill-rule:evenodd;clip-rule:evenodd;stroke-linejoin:round;stroke-miterlimit:2;">
    <g>
        <path d="M480,88C480,57.092 454.908,32 424,32L88,32C57.092,32 32,57.092 32,88L32,424C32,454.908 57.092,480 88,480L424,480C454.908,480 480,454.908 480,424L480,88Z" style="fill:#fff;"/>
    </g>
    <g>
        <path d="M480,88C480,57.092 454.908,32 424,32L88,32C57.092,32 32,57.092 32,88L32,424C32,454.908 57.092,480 88,480L424,480C454.908,480 480,454.908 480,424L480,88ZM458.125,88L458.125,424C458.125,442.834 442.834,458.125 424,458.125L88,458.125C69.166,458.125 53.875,442.834 53.875,424L53.875,88C53.875,69.166 69.166,53.875 88,53.875L424,53.875C442.834,53.875 458.125,69.166 458.125,88Z" style="fill:#3f3c34;"/>
    </g>
    <path d="M160,210L160,310L140,310C134.477,310 130,314.477 130,320L130,380C130,385.523 134.477,390 140,390L200,390C205.523,390 210,385.523 210,380L210,360L310,360L310,380C310,385.523 314.477,390 320,390L380,390C385.523,390 390,385.523 390,380L390,320C390,314.477 385.523,310 380,310L360,310L360,210L380,210C385.523,210 390,205.523 390,200L390,140C390,134.477 385.523,130 380,130L320,130C314.477,130 310,134.477 310,140L310,160L210,160L210,140C210,134.477 205.523,130 200,130L140,130C134.477,130 130,134.477 130,140L130,200C130,205.523 134.477,210 140,210L160,210ZM190,330L190,370C190,370 150,370 150,370C150,370 150,330 150,330C150,330 190,330 190,330ZM370,330L370,370C370,370 330,370 330,370C330,370 330,330 330,330C330,330 370,330 370,330ZM310,180L210,180L210,200C210,205.523 205.523,210 200,210L180,210L180,310L200,310C205.523,310 210,314.477 210,320L210,340L310,340L310,320C310,314.477 314.477,310 320,310L340,310L340,210L320,210C314.477,210 310,205.523 310,200L310,180ZM370,150L370,190C370,190 330,190 330,190C330,190 330,150 330,150C330,150 370,150 370,150ZM190,150L190,190C190,190 150,190 150,190C150,190 150,150 150,150C150,150 190,150 190,150Z" style="fill:#3f3c34;"/>
</svg>
