<?xml version="1.0" encoding="UTF-8" standalone="no"?>
<!DOCTYPE svg PUBLIC "-//W3C//DTD SVG 1.1//EN" "http://www.w3.org/Graphics/SVG/1.1/DTD/svg11.dtd">
<svg width="100%" height="100%" viewBox="0 0 512 512" version="1.1" xmlns="http://www.w3.org/2000/svg" xmlns:xlink="http://www.w3.org/1999/xlink" xml:space="preserve" xmlns:serif="http://www.serif.com/" style="fill-rule:evenodd;clip-rule:evenodd;stroke-linejoin:round;stroke-miterlimit:2;">
    <g transform="matrix(0.875,0,0,0.875,32,32)">
        <path d="M512,64C512,28.677 483.323,0 448,0L64,0C28.677,0 0,28.677 0,64L0,448C0,483.323 28.677,512 64,512L448,512C483.323,512 512,483.323 512,448L512,64Z" style="fill:white;fill-opacity:0.8;"/>
    </g>
    <g transform="matrix(0.875,0,0,0.875,32,32)">
        <path d="M512,64C512,28.677 483.323,0 448,0L64,0C28.677,0 0,28.677 0,64L0,448C0,483.323 28.677,512 64,512L448,512C483.323,512 512,483.323 512,448L512,64ZM487,64L487,448C487,469.525 469.525,487 448,487L64,487C42.475,487 25,469.525 25,448L25,64C25,42.475 42.475,25 64,25L448,25C469.525,25 487,42.475 487,64Z" style="fill:rgb(63,60,52);"/>
    </g>
    <g id="pointer">
        <path d="M189.182,124.556C184.999,120.359 178.646,119.203 173.235,121.63C167.838,124.057 164.484,129.567 164.84,135.492L179.117,378.193C179.46,384.089 183.4,389.157 189.039,390.956C194.664,392.74 200.817,390.884 204.515,386.273L257.338,320.244L350.406,320.244C356.174,320.244 361.385,316.761 363.598,311.436C365.811,306.096 364.583,299.957 360.5,295.874L189.182,124.556ZM186.659,151.507L334.552,299.401C334.552,299.401 250.471,299.401 250.471,299.401C248.476,299.401 246.589,300.307 245.343,301.865L198.917,359.898C195.826,307.346 186.659,151.507 186.659,151.507L186.659,151.507Z" style="fill:rgb(63,60,52);"/>
    </g>
</svg>
