<?xml version="1.0" encoding="UTF-8" standalone="no"?>
<!DOCTYPE svg PUBLIC "-//W3C//DTD SVG 1.1//EN" "http://www.w3.org/Graphics/SVG/1.1/DTD/svg11.dtd">
<svg width="100%" height="100%" viewBox="0 0 512 512" version="1.1" xmlns="http://www.w3.org/2000/svg" xmlns:xlink="http://www.w3.org/1999/xlink" xml:space="preserve" xmlns:serif="http://www.serif.com/" style="fill-rule:evenodd;clip-rule:evenodd;stroke-linejoin:round;stroke-miterlimit:2;">
    <g>
        <path d="M480,88C480,57.092 454.908,32 424,32L88,32C57.092,32 32,57.092 32,88L32,424C32,454.908 57.092,480 88,480L424,480C454.908,480 480,454.908 480,424L480,88Z" style="fill:white;fill-opacity:0.8;"/>
    </g>
    <g>
        <path d="M150,200.8C131.642,196.311 118,179.736 118,160C118,136.82 136.82,118 160,118C183.18,118 202,136.82 202,160C202,162.198 201.831,164.356 201.505,166.46L355.846,230.769C359.573,232.322 362,235.963 362,240L362,311.2C380.358,315.689 394,332.264 394,352C394,375.18 375.18,394 352,394C332.264,394 315.689,380.358 311.2,362L200.8,362C196.311,380.358 179.736,394 160,394C136.82,394 118,375.18 118,352C118,332.264 131.642,315.689 150,311.2L150,200.8ZM352,330C364.142,330 374,339.858 374,352C374,364.142 364.142,374 352,374C339.858,374 330,364.142 330,352C330,339.858 339.858,330 352,330ZM160,330C172.142,330 182,339.858 182,352C182,364.142 172.142,374 160,374C147.858,374 138,364.142 138,352C138,339.858 147.858,330 160,330ZM193.804,184.918C188.055,192.701 179.684,198.431 170,200.8L170,311.2C185.153,314.906 197.092,326.845 200.8,342L311.2,342C314.906,326.847 326.845,314.908 342,311.2L342,246.667L193.804,184.918ZM352,118C328.82,118 310,136.82 310,160C310,183.18 328.82,202 352,202C375.18,202 394,183.18 394,160C394,136.82 375.18,118 352,118ZM160,138C172.142,138 182,147.858 182,160C182,172.142 172.142,182 160,182C147.858,182 138,172.142 138,160C138,147.858 147.858,138 160,138ZM352,138C364.142,138 374,147.858 374,160C374,172.142 364.142,182 352,182C339.858,182 330,172.142 330,160C330,147.858 339.858,138 352,138Z" style="fill:rgb(63,60,52);"/>
    </g>
    <g>
        <path d="M480,88C480,57.092 454.908,32 424,32L88,32C57.092,32 32,57.092 32,88L32,424C32,454.908 57.092,480 88,480L424,480C454.908,480 480,454.908 480,424L480,88ZM458.125,88L458.125,424C458.125,442.834 442.834,458.125 424,458.125L88,458.125C69.166,458.125 53.875,442.834 53.875,424L53.875,88C53.875,69.166 69.166,53.875 88,53.875L424,53.875C442.834,53.875 458.125,69.166 458.125,88Z" style="fill:rgb(63,60,52);"/>
    </g>
</svg>
