<?xml version="1.0" encoding="UTF-8" standalone="no"?>
<!DOCTYPE svg PUBLIC "-//W3C//DTD SVG 1.1//EN" "http://www.w3.org/Graphics/SVG/1.1/DTD/svg11.dtd">
<svg width="100%" height="100%" viewBox="0 0 512 512" version="1.1" xmlns="http://www.w3.org/2000/svg" xmlns:xlink="http://www.w3.org/1999/xlink" xml:space="preserve" xmlns:serif="http://www.serif.com/" style="fill-rule:evenodd;clip-rule:evenodd;stroke-linejoin:round;stroke-miterlimit:2;">
    <g transform="matrix(0.875,0,0,0.875,32,32)">
        <path d="M512,64C512,28.677 483.323,0 448,0L64,0C28.677,0 0,28.677 0,64L0,448C0,483.323 28.677,512 64,512L448,512C483.323,512 512,483.323 512,448L512,64Z" style="fill:white;fill-opacity:0.8;"/>
        <g transform="matrix(1.14286,0,0,1.14286,-36.5714,-36.5714)">
            <path d="M140,200L140,369.373L371.217,372.34L371.698,200L140,200Z" style="fill:white;"/>
        </g>
    </g>
    <g transform="matrix(0.875,0,0,0.875,32,32)">
        <path d="M512,64C512,28.677 483.323,0 448,0L64,0C28.677,0 0,28.677 0,64L0,448C0,483.323 28.677,512 64,512L448,512C483.323,512 512,483.323 512,448L512,64ZM487,64L487,448C487,469.525 469.525,487 448,487L64,487C42.475,487 25,469.525 25,448L25,64C25,42.475 42.475,25 64,25L448,25C469.525,25 487,42.475 487,64Z" style="fill:rgb(63,60,52);stroke:rgb(63,60,52);stroke-width:1px;"/>
    </g>
    <g>
        <g transform="matrix(0.875,0,0,0.875,32,32)">
            <path d="M390.402,188.196L304.001,188.196C301.792,188.196 300.001,189.987 300.001,192.196L300.001,211.396C300.001,213.606 301.792,215.396 304.001,215.396L376.802,215.396L376.802,377.799L135.198,377.799L135.198,215.396L207.999,215.396C210.208,215.396 211.999,213.606 211.999,211.396L211.999,192.196C211.999,189.987 210.208,188.196 207.999,188.196L121.598,188.196C114.09,188.196 107.998,194.289 107.998,201.796L107.998,391.4C107.998,398.908 114.09,405 121.598,405L390.402,405C397.91,405 404.002,398.908 404.002,391.4L404.002,201.796C404.002,194.29 397.908,188.196 390.402,188.196Z" style="fill:rgb(63,60,52);fill-rule:nonzero;"/>
        </g>
        <g transform="matrix(0.875,0,0,0.875,32,32)">
            <path d="M323.102,143.226L265.504,86.875C260.154,81.634 251.549,81.722 246.295,87.067C244.921,88.41 188.887,143.222 188.887,143.222C188.887,143.222 188.886,143.223 188.885,143.224C183.52,148.48 183.42,157.081 188.669,162.456C188.671,162.458 188.673,162.461 188.676,162.463C193.925,167.813 202.546,167.909 207.905,162.66C207.902,162.663 242.399,128.92 242.399,128.92L242.399,285.738C242.399,293.255 248.491,299.338 255.999,299.338C263.507,299.338 269.599,293.264 269.599,285.738L269.599,128.92L304.09,162.661C309.445,167.916 318.067,167.82 323.319,162.46C323.32,162.458 323.322,162.457 323.324,162.455C328.572,157.078 328.478,148.474 323.103,143.224L323.102,143.226ZM318.43,144.25C318.072,143.467 317.731,143.007 317.48,143.258L317.448,143.29L318.43,144.25Z" style="fill:rgb(63,60,52);fill-rule:nonzero;"/>
        </g>
    </g>
</svg>
