<?xml version="1.0" encoding="UTF-8" standalone="no"?>
<!DOCTYPE svg PUBLIC "-//W3C//DTD SVG 1.1//EN" "http://www.w3.org/Graphics/SVG/1.1/DTD/svg11.dtd">
<svg width="100%" height="100%" viewBox="0 0 512 512" version="1.1" xmlns="http://www.w3.org/2000/svg" xmlns:xlink="http://www.w3.org/1999/xlink" xml:space="preserve" xmlns:serif="http://www.serif.com/" style="fill-rule:evenodd;clip-rule:evenodd;stroke-linejoin:round;stroke-miterlimit:2;">
    <g>
        <path d="M480,88C480,57.092 454.908,32 424,32L88,32C57.092,32 32,57.092 32,88L32,424C32,454.908 57.092,480 88,480L424,480C454.908,480 480,454.908 480,424L480,88Z" style="fill:#fff;fill-opacity:0.8;"/>
    </g>
    <g>
        <path d="M480,88C480,57.092 454.908,32 424,32L88,32C57.092,32 32,57.092 32,88L32,424C32,454.908 57.092,480 88,480L424,480C454.908,480 480,454.908 480,424L480,88ZM458.125,88L458.125,424C458.125,442.834 442.834,458.125 424,458.125L88,458.125C69.166,458.125 53.875,442.834 53.875,424L53.875,88C53.875,69.166 69.166,53.875 88,53.875L424,53.875C442.834,53.875 458.125,69.166 458.125,88Z" style="fill:#3f3c34;stroke:#3f3c34;stroke-width:0.88px;"/>
    </g>
    <g>
        <path d="M172.614,285.509L146.175,311.949C145.26,312.864 144.591,314.002 144.234,315.244L126.289,376.303C125.538,378.959 126.275,381.808 128.216,383.765C130.218,385.777 133.114,386.459 135.67,385.729L193.34,368.692L172.614,285.509ZM204.933,253.188L185.187,272.933L206.673,359.164L226.419,339.42L204.933,253.188ZM237.246,220.872L217.507,240.612L238.993,326.846L258.733,307.106L237.246,220.872ZM276.384,215.931L259.285,198.832L249.82,208.297L271.307,294.534L291.05,274.794L276.384,215.931ZM367.171,178.304C365.825,176.601 363.81,175.552 361.637,175.425C359.48,175.411 357.353,176.102 355.805,177.642L345.421,188.026C342.535,190.898 337.536,190.898 334.65,188.026L323.878,177.255C320.91,174.28 320.91,169.452 323.878,166.476L334.248,156.106C335.788,154.567 336.599,152.447 336.465,150.267C336.338,148.095 335.282,146.087 333.571,144.733C305.073,122.283 264.986,119.762 233.817,138.44C231.808,139.645 230.463,141.713 230.18,144.041C229.89,146.37 230.693,148.698 232.352,150.357L361.621,279.627C363.057,281.063 364.998,281.859 367.007,281.859C367.312,281.859 367.625,281.837 367.937,281.8C370.266,281.517 372.334,280.17 373.539,278.162C392.253,246.971 389.694,206.84 367.17,178.304L367.171,178.304ZM297.303,236.851L303.624,262.219L313.149,252.695L297.303,236.851Z" style="fill:#3f3c34;fill-rule:nonzero;"/>
    </g>
</svg>
