<?xml version="1.0" encoding="UTF-8" standalone="no"?>
<!DOCTYPE svg PUBLIC "-//W3C//DTD SVG 1.1//EN" "http://www.w3.org/Graphics/SVG/1.1/DTD/svg11.dtd">
<svg width="100%" height="100%" viewBox="0 0 512 512" version="1.1" xmlns="http://www.w3.org/2000/svg" xmlns:xlink="http://www.w3.org/1999/xlink" xml:space="preserve" xmlns:serif="http://www.serif.com/" style="fill-rule:evenodd;clip-rule:evenodd;stroke-linecap:round;stroke-linejoin:round;stroke-miterlimit:1.5;">
    <g>
        <path d="M480,88C480,57.092 454.908,32 424,32L88,32C57.092,32 32,57.092 32,88L32,424C32,454.908 57.092,480 88,480L424,480C454.908,480 480,454.908 480,424L480,88Z" style="fill:#fff;"/>
        <path d="M352,256L160,160L160,352L352,352L352,256Z" style="fill:#fff;stroke:#3f3c34;stroke-width:20px;"/>
    </g>
    <g>
        <path d="M384,144C384,135.169 376.831,128 368,128L336,128C327.169,128 320,135.169 320,144L320,176C320,184.831 327.169,192 336,192L368,192C376.831,192 384,184.831 384,176L384,144Z" style="fill:#fff;stroke:#3f3c34;stroke-width:20px;"/>
        <path d="M384,336C384,327.169 376.831,320 368,320L336,320C327.169,320 320,327.169 320,336L320,368C320,376.831 327.169,384 336,384L368,384C376.831,384 384,376.831 384,368L384,336Z" style="fill:#fff;stroke:#3f3c34;stroke-width:20px;"/>
        <path d="M192,336C192,327.169 184.831,320 176,320L144,320C135.169,320 128,327.169 128,336L128,368C128,376.831 135.169,384 144,384L176,384C184.831,384 192,376.831 192,368L192,336Z" style="fill:#fff;stroke:#3f3c34;stroke-width:20px;"/>
        <path d="M192,144C192,135.169 184.831,128 176,128L144,128C135.169,128 128,135.169 128,144L128,176C128,184.831 135.169,192 144,192L176,192C184.831,192 192,184.831 192,176L192,144Z" style="fill:#fff;stroke:#3f3c34;stroke-width:20px;"/>
    </g>
    <g>
        <path d="M480,88C480,57.092 454.908,32 424,32L88,32C57.092,32 32,57.092 32,88L32,424C32,454.908 57.092,480 88,480L424,480C454.908,480 480,454.908 480,424L480,88ZM458.125,88L458.125,424C458.125,442.834 442.834,458.125 424,458.125L88,458.125C69.166,458.125 53.875,442.834 53.875,424L53.875,88C53.875,69.166 69.166,53.875 88,53.875L424,53.875C442.834,53.875 458.125,69.166 458.125,88Z" style="fill:#3f3c34;"/>
    </g>
</svg>
