<?xml version="1.0" encoding="UTF-8" standalone="no"?>
<!DOCTYPE svg PUBLIC "-//W3C//DTD SVG 1.1//EN" "http://www.w3.org/Graphics/SVG/1.1/DTD/svg11.dtd">
<svg width="100%" height="100%" viewBox="0 0 512 512" version="1.1" xmlns="http://www.w3.org/2000/svg" xmlns:xlink="http://www.w3.org/1999/xlink" xml:space="preserve" xmlns:serif="http://www.serif.com/" style="fill-rule:evenodd;clip-rule:evenodd;stroke-linejoin:round;stroke-miterlimit:2;">
    <g transform="matrix(-0.875,0,0,0.875,480,32)">
        <path d="M512,64C512,28.677 483.323,0 448,0L64,0C28.677,0 0,28.677 0,64L0,448C0,483.323 28.677,512 64,512L448,512C483.323,512 512,483.323 512,448L512,64Z" style="fill:white;fill-opacity:0.8;"/>
        <g transform="matrix(-1.14286,0,0,1.14286,548.571,-36.5714)">
            <path d="M271.956,129.846L150.176,246.156L300,394.753L414.284,273.954L400,233.456L367.8,201.102L271.956,129.846Z" style="fill:white;"/>
        </g>
    </g>
    <g transform="matrix(-0.875,0,0,0.875,480,32)">
        <path d="M512,64C512,28.677 483.323,0 448,0L64,0C28.677,0 0,28.677 0,64L0,448C0,483.323 28.677,512 64,512L448,512C483.323,512 512,483.323 512,448L512,64ZM487,64L487,448C487,469.525 469.525,487 448,487L64,487C42.475,487 25,469.525 25,448L25,64C25,42.475 42.475,25 64,25L448,25C469.525,25 487,42.475 487,64Z" style="fill:rgb(63,60,52);"/>
    </g>
    <g transform="matrix(-0.524997,0,0,0.524997,424,88.0011)">
        <path d="M457.163,220.048L303.431,64.81L281.2,41.827L228.702,93.402C138.959,80.577 74.456,113.581 51.61,154.177C23.873,203.46 52.226,257.258 53.115,258.9C76.816,306.268 110.88,334.689 154.384,343.479C163.926,345.36 173.537,346.215 183.113,346.215C228.327,346.215 273.54,327.028 307.912,307.397C317.18,313.827 328.467,317.623 340.539,317.623C372.346,317.623 398.202,291.665 398.202,259.789C398.202,227.913 372.346,201.99 340.539,201.99C308.732,201.99 282.877,227.914 282.877,259.789C282.877,262.97 283.321,266.082 283.8,269.16C249.189,288.826 203.531,307.328 163.139,299.188C133.555,293.203 110.709,273.435 92.993,238.037C92.822,237.695 75.345,203.734 90.77,176.373C103.766,153.253 137.659,138.376 189.371,132.767L181.333,140.873L107.049,215.431C107.836,217.243 108.417,218.338 108.452,218.407C115.6,232.703 123.637,244.331 132.598,253.634L267.075,118.78C273.471,112.384 281.952,108.862 290.947,108.862C299.942,108.862 308.492,112.384 314.819,118.78L477.991,282.499C491.159,295.666 491.159,317.178 477.991,330.346L265.877,543.109C253.155,555.866 230.889,555.866 218.133,543.109L54.927,379.39C48.531,373.029 45.043,364.547 45.043,355.484C45.043,346.455 48.532,337.905 54.927,331.543L72.54,313.827C62.519,303.498 53.627,291.118 45.658,276.958L23.086,299.633C8.209,314.544 0,334.381 0,355.483C0,376.585 8.208,396.421 23.086,411.333L186.292,575.052C201.169,589.963 220.903,598.172 241.971,598.172C262.97,598.172 282.773,589.964 297.65,575.052L509.729,362.289L554.224,318.067L541.878,305.584C565.237,292.827 575.634,399.431 575.634,399.431C575.634,399.431 608.261,653.851 637.264,399.431C664.966,155.955 473.818,214.507 457.163,220.048Z" style="fill:rgb(63,60,52);fill-rule:nonzero;"/>
    </g>
</svg>
