<?xml version="1.0" encoding="UTF-8" standalone="no"?>
<!DOCTYPE svg PUBLIC "-//W3C//DTD SVG 1.1//EN" "http://www.w3.org/Graphics/SVG/1.1/DTD/svg11.dtd">
<svg width="100%" height="100%" viewBox="0 0 512 512" version="1.1" xmlns="http://www.w3.org/2000/svg" xmlns:xlink="http://www.w3.org/1999/xlink" xml:space="preserve" xmlns:serif="http://www.serif.com/" style="fill-rule:evenodd;clip-rule:evenodd;stroke-linecap:round;stroke-linejoin:round;stroke-miterlimit:1.5;">
    <g transform="matrix(0.875,0,0,0.875,32,32)">
        <path d="M512,64C512,28.677 483.323,0 448,0L64,0C28.677,0 0,28.677 0,64L0,448C0,483.323 28.677,512 64,512L448,512C483.323,512 512,483.323 512,448L512,64Z" style="fill:white;fill-opacity:0.8;"/>
        <g transform="matrix(1.14286,0,0,1.14286,-36.5714,-36.5714)">
            <path d="M140,200L255.999,135.578L374.232,194.264L380,312.895L255.999,380L134.533,320L140,200Z" style="fill:white;stroke:black;stroke-width:1px;"/>
        </g>
    </g>
    <g transform="matrix(0.875,0,0,0.875,32,32)">
        <path d="M512,64C512,28.677 483.323,0 448,0L64,0C28.677,0 0,28.677 0,64L0,448C0,483.323 28.677,512 64,512L448,512C483.323,512 512,483.323 512,448L512,64ZM487,64L487,448C487,469.525 469.525,487 448,487L64,487C42.475,487 25,469.525 25,448L25,64C25,42.475 42.475,25 64,25L448,25C469.525,25 487,42.475 487,64Z" style="fill:rgb(63,60,52);stroke:rgb(63,60,52);stroke-width:1px;stroke-linecap:butt;stroke-miterlimit:2;"/>
    </g>
    <g transform="matrix(0.586853,0,0,0.586853,124.523,124.52)">
        <path d="M444.687,119.649C444.687,119.359 444.578,119.124 444.56,118.834C444.487,117.73 444.379,116.661 444.108,115.63C443.963,115.141 443.727,114.707 443.546,114.254C443.22,113.457 442.948,112.679 442.513,111.955C442.187,111.448 441.807,111.013 441.445,110.561C440.993,109.945 440.558,109.348 440.014,108.805C439.579,108.371 439.036,108.009 438.548,107.628C438.113,107.302 437.733,106.904 437.28,106.614C437.171,106.541 437.027,106.578 436.918,106.506C436.665,106.362 436.466,106.144 436.212,106.018L230.949,2.699C226.55,0.472 221.3,0.526 216.937,2.789L11.675,109.367C11.421,109.494 11.259,109.693 11.023,109.819C10.914,109.892 10.788,109.855 10.679,109.927C10.172,110.253 9.756,110.67 9.285,111.05C8.832,111.412 8.344,111.738 7.945,112.137C7.366,112.735 6.895,113.386 6.407,114.038C6.1,114.472 5.737,114.871 5.466,115.323C5.013,116.101 4.706,116.952 4.399,117.803C4.236,118.219 4.019,118.6 3.91,119.016C3.548,120.301 3.368,121.659 3.368,123.035L3.368,328.334C3.368,334.146 6.645,339.468 11.841,342.093L217.103,445.376C217.321,445.484 217.574,445.449 217.809,445.539C219.801,446.444 221.9,447.024 224.036,447.024C226.263,447.024 228.417,446.408 230.445,445.449C230.662,445.359 230.897,445.395 231.114,445.286L436.395,338.727C441.5,336.084 444.705,330.797 444.705,325.059L444.705,119.76C444.705,119.742 444.687,119.723 444.687,119.706L444.687,119.649ZM224.145,33.745L395.48,119.975L223.909,209.064L52.573,122.817L224.144,33.745L224.145,33.745ZM34.162,148.036L208.63,235.858L208.63,406.651L34.162,318.847L34.162,148.036ZM239.424,406.27L239.424,235.712L413.909,145.12L413.909,315.714L239.423,406.27L239.424,406.27Z" style="fill:rgb(63,60,52);fill-rule:nonzero;"/>
    </g>
</svg>
