<?xml version="1.0" encoding="UTF-8" standalone="no"?>
<!DOCTYPE svg PUBLIC "-//W3C//DTD SVG 1.1//EN" "http://www.w3.org/Graphics/SVG/1.1/DTD/svg11.dtd">
<svg width="100%" height="100%" viewBox="0 0 512 512" version="1.1" xmlns="http://www.w3.org/2000/svg" xmlns:xlink="http://www.w3.org/1999/xlink" xml:space="preserve" xmlns:serif="http://www.serif.com/" style="fill-rule:evenodd;clip-rule:evenodd;stroke-linejoin:round;stroke-miterlimit:2;">
    <g transform="matrix(0.875,0,0,0.875,32,32)">
        <path d="M512,64C512,28.677 483.323,0 448,0L64,0C28.677,0 0,28.677 0,64L0,448C0,483.323 28.677,512 64,512L448,512C483.323,512 512,483.323 512,448L512,64Z" style="fill:rgb(63,60,52);"/>
    </g>
    <g>
        <g transform="matrix(0.875,0,0,0.875,32,32)">
            <path d="M211.44,240.605L185.042,240.605C197.934,212.926 225.377,194.549 256.286,194.549C287.195,194.549 314.638,212.926 327.53,240.605L301.133,240.605C290.823,226.709 274.644,217.577 256.286,217.577C237.929,217.577 221.749,226.709 211.44,240.605ZM83.55,214.248L91.236,240.605L161.752,240.605C176.015,199.603 213.846,171.521 257.126,171.521C300.405,171.521 338.236,199.603 352.499,240.605L430.348,240.605L410.436,213.203L420.629,207.199C427.904,202.919 428.186,192.317 421.202,187.622L384.288,162.739L391.847,153.53C397.237,146.997 393.967,136.929 385.831,134.931L342.801,124.44L346.824,113.151C349.739,105.029 343.062,96.705 334.934,97.78L290.978,102.929L290.978,90.92C290.978,82.417 282.209,76.789 274.648,80.62L235.068,100.803L231.045,89.525C228.233,81.602 218.09,79.237 212.247,85.544L181.833,118.333L174.274,109.124C168.838,102.51 158.586,104.168 155.266,111.946L137.668,153.37L127.475,147.354C120.301,143.133 111.071,148.025 110.571,156.642L107.916,201.709L96.323,199.629C88.322,198.074 81.098,205.907 83.55,214.248Z" style="fill:white;fill-rule:nonzero;"/>
        </g>
        <g transform="matrix(0.875,0,0,0.875,32,32)">
            <path d="M429.446,272.605C439.686,272.606 448,280.919 448,291.16L448,414.051C448,424.291 439.686,432.605 429.446,432.605L82.554,432.605C72.314,432.605 64,424.291 64,414.051L64,291.16C64,280.919 72.314,272.606 82.554,272.605L429.446,272.605ZM140.179,291.455C152.655,291.455 163.368,293.943 172.315,298.918C181.262,303.892 188.034,310.965 192.631,320.135C197.227,329.304 199.526,340.074 199.526,352.444C199.526,361.587 198.267,369.896 195.75,377.372C193.233,384.847 189.457,391.328 184.422,396.814C179.388,402.299 173.204,406.494 165.871,409.399C158.538,412.303 150.138,413.755 140.671,413.755C131.259,413.755 122.831,412.262 115.389,409.278C107.947,406.293 101.736,402.084 96.756,396.652C91.776,391.22 88.014,384.686 85.469,377.049C82.925,369.412 81.652,361.156 81.652,352.282C81.652,343.193 82.979,334.857 85.633,327.274C88.287,319.691 92.132,313.237 97.166,307.913C102.201,302.588 108.33,298.514 115.553,295.691C122.777,292.867 130.985,291.455 140.179,291.455ZM322.899,374.387C322.899,378.151 321.955,382.225 320.067,386.609C318.179,390.992 315.21,395.294 311.161,399.516C307.111,403.738 301.94,407.167 295.647,409.802C289.354,412.437 282.021,413.755 273.648,413.755C267.3,413.755 261.527,413.163 256.328,411.98C251.13,410.797 246.41,408.955 242.169,406.454C237.928,403.953 234.029,400.659 230.472,396.572C227.298,392.861 224.589,388.706 222.345,384.108C220.102,379.509 218.419,374.602 217.297,369.385C216.175,364.168 215.614,358.629 215.614,352.767C215.614,343.247 217.023,334.723 219.842,327.193C222.66,319.664 226.696,313.224 231.949,307.872C237.203,302.521 243.359,298.447 250.418,295.65C257.478,292.854 265.002,291.455 272.992,291.455C282.732,291.455 291.406,293.365 299.012,297.183C306.619,301.002 312.447,305.721 316.496,311.341C320.546,316.961 322.571,322.272 322.571,327.274C322.571,330.017 321.586,332.437 319.616,334.535C317.646,336.632 315.265,337.681 312.474,337.681C309.355,337.681 307.016,336.955 305.456,335.503C303.896,334.05 302.159,331.55 300.244,328C297.07,322.138 293.335,317.755 289.039,314.85C284.743,311.946 279.449,310.494 273.156,310.494C263.141,310.494 255.165,314.232 249.228,321.708C243.291,329.183 240.322,339.805 240.322,353.573C240.322,362.77 241.635,370.42 244.262,376.525C246.889,382.629 250.61,387.187 255.425,390.199C260.241,393.21 265.878,394.716 272.335,394.716C279.339,394.716 285.263,393.009 290.106,389.593C294.949,386.178 298.602,381.163 301.064,374.548C302.104,371.429 303.39,368.888 304.922,366.925C306.455,364.961 308.917,363.98 312.31,363.98C315.21,363.98 317.7,364.975 319.78,366.965C321.859,368.955 322.899,371.429 322.899,374.387ZM368.702,392.054L368.702,305.976C368.702,301.082 367.567,297.439 365.296,295.045C363.025,292.652 360.056,291.455 356.389,291.455C352.778,291.455 349.864,292.666 347.647,295.086C345.431,297.506 344.323,301.136 344.323,305.976L344.323,397.056C344.323,402.219 345.486,405.957 347.812,408.269C350.137,410.582 353.954,411.738 359.262,411.738L418.117,411.738C422.113,411.738 425.149,410.837 427.228,409.036C429.308,407.234 430.348,404.881 430.348,401.977C430.348,399.126 429.294,396.76 427.187,394.878C425.081,392.995 422.058,392.054 418.117,392.054L368.702,392.054ZM174.818,352.282C174.818,343.624 173.396,336.121 170.55,329.775C167.704,323.429 163.641,318.629 158.36,315.375C153.08,312.121 147.019,310.494 140.179,310.494C135.308,310.494 130.807,311.395 126.676,313.197C122.544,314.998 118.987,317.62 116.005,321.062C113.022,324.504 110.669,328.901 108.945,334.252C107.222,339.603 106.36,345.614 106.36,352.282C106.36,359.005 107.222,365.082 108.945,370.514C110.669,375.946 113.104,380.451 116.251,384.027C119.398,387.604 123.009,390.279 127.086,392.054C131.163,393.829 135.637,394.716 140.507,394.716C146.745,394.716 152.478,393.183 157.704,390.118C162.93,387.052 167.089,382.32 170.181,375.919C173.272,369.519 174.818,361.64 174.818,352.282Z" style="fill:white;"/>
        </g>
    </g>
</svg>
