<?xml version="1.0" encoding="UTF-8" standalone="no"?>
<!DOCTYPE svg PUBLIC "-//W3C//DTD SVG 1.1//EN" "http://www.w3.org/Graphics/SVG/1.1/DTD/svg11.dtd">
<svg width="100%" height="100%" viewBox="0 0 512 512" version="1.1" xmlns="http://www.w3.org/2000/svg" xmlns:xlink="http://www.w3.org/1999/xlink" xml:space="preserve" xmlns:serif="http://www.serif.com/" style="fill-rule:evenodd;clip-rule:evenodd;stroke-linejoin:round;stroke-miterlimit:2;">
    <g>
        <path d="M480,88C480,57.092 454.908,32 424,32L88,32C57.092,32 32,57.092 32,88L32,424C32,454.908 57.092,480 88,480L424,480C454.908,480 480,454.908 480,424L480,88Z" style="fill:#fff;"/>
    </g>
    <g>
        <path d="M480,88C480,57.092 454.908,32 424,32L88,32C57.092,32 32,57.092 32,88L32,424C32,454.908 57.092,480 88,480L424,480C454.908,480 480,454.908 480,424L480,88ZM458.125,88L458.125,424C458.125,442.834 442.834,458.125 424,458.125L88,458.125C69.166,458.125 53.875,442.834 53.875,424L53.875,88C53.875,69.166 69.166,53.875 88,53.875L424,53.875C442.834,53.875 458.125,69.166 458.125,88Z" style="fill:#3f3c34;"/>
    </g>
    <path d="M364,310L391,310L391,391L310,391L310,364L202,364L202,391L121,391L121,310L148,310L148,202L121,202L121,121L202,121L202,148L310,148L310,121L391,121L391,202L364,202L364,310ZM337,310L337,202L310,202L310,175L202,175L202,202L175,202L175,310L202,310L202,337L310,337L310,310L337,310ZM148,148L148,175L175,175L175,148L148,148ZM148,337L148,364L175,364L175,337L148,337ZM337,148L337,175L364,175L364,148L337,148ZM337,337L337,364L364,364L364,337L337,337Z" style="fill:#3f3c34;fill-rule:nonzero;"/>
</svg>
