<?xml version="1.0" standalone="no"?>
<!DOCTYPE svg PUBLIC "-//W3C//DTD SVG 1.1//EN" "http://www.w3.org/Graphics/SVG/1.1/DTD/svg11.dtd" >
<svg xmlns="http://www.w3.org/2000/svg">
<metadata>Generated by IcoMoon</metadata>
<defs>
<font id="ladb_opencutlist" horiz-adv-x="1024">
<font-face units-per-em="1024" ascent="896" descent="-128" />
<missing-glyph horiz-adv-x="1024" />
<glyph unicode="&#x20;" horiz-adv-x="512" d="" />
<glyph unicode="&#xe900;" glyph-name="cutlist" d="M219.429 201.143v-36.571c0-9.714-8.571-18.286-18.286-18.286h-36.571c-9.714 0-18.286 8.571-18.286 18.286v36.571c0 9.714 8.571 18.286 18.286 18.286h36.571c9.714 0 18.286-8.571 18.286-18.286zM219.429 347.428v-36.571c0-9.714-8.571-18.286-18.286-18.286h-36.571c-9.714 0-18.286 8.571-18.286 18.286v36.571c0 9.714 8.571 18.286 18.286 18.286h36.571c9.714 0 18.286-8.571 18.286-18.286zM219.429 493.714v-36.571c0-9.714-8.571-18.286-18.286-18.286h-36.571c-9.714 0-18.286 8.571-18.286 18.286v36.571c0 9.714 8.571 18.286 18.286 18.286h36.571c9.714 0 18.286-8.571 18.286-18.286zM877.714 201.143v-36.571c0-9.714-8.571-18.286-18.286-18.286h-548.571c-9.714 0-18.286 8.571-18.286 18.286v36.571c0 9.714 8.571 18.286 18.286 18.286h548.571c9.714 0 18.286-8.571 18.286-18.286zM877.714 347.428v-36.571c0-9.714-8.571-18.286-18.286-18.286h-548.571c-9.714 0-18.286 8.571-18.286 18.286v36.571c0 9.714 8.571 18.286 18.286 18.286h548.571c9.714 0 18.286-8.571 18.286-18.286zM877.714 493.714v-36.571c0-9.714-8.571-18.286-18.286-18.286h-548.571c-9.714 0-18.286 8.571-18.286 18.286v36.571c0 9.714 8.571 18.286 18.286 18.286h548.571c9.714 0 18.286-8.571 18.286-18.286zM950.857 91.428v475.429c0 9.714-8.571 18.286-18.286 18.286h-841.143c-9.714 0-18.286-8.571-18.286-18.286v-475.429c0-9.714 8.571-18.286 18.286-18.286h841.143c9.714 0 18.286 8.571 18.286 18.286zM1024 713.143v-621.714c0-50.286-41.143-91.429-91.429-91.429h-841.143c-50.286 0-91.429 41.143-91.429 91.429v621.714c0 50.286 41.143 91.429 91.429 91.429h841.143c50.286 0 91.429-41.143 91.429-91.429z" />
<glyph unicode="&#xe901;" glyph-name="materials" d="M731.46 518.323l-245.972 248.38-35.569 36.773-83.997-82.52c-143.589 20.52-246.793-32.286-283.347-97.24-44.379-78.853 0.985-164.93 2.408-167.557 37.922-75.789 92.424-121.262 162.030-135.326 15.267-3.010 30.644-4.378 45.966-4.378 72.342 0 144.683 30.699 199.678 62.109 14.829-10.288 32.888-16.362 52.204-16.362 50.891 0 92.26 41.533 92.26 92.534s-41.369 92.479-92.26 92.479-92.26-41.479-92.26-92.479c0-5.089 0.711-10.069 1.477-14.994-55.378-31.465-128.431-61.069-193.057-48.045-47.334 9.576-83.888 41.205-112.233 97.842-0.274 0.547-28.236 54.885-3.557 98.663 20.794 36.992 75.023 60.795 157.762 69.77l-12.86-12.969-118.855-119.292c1.259-2.9 2.189-4.651 2.244-4.761 11.437-22.874 24.296-41.479 38.633-56.363l215.164 215.766c10.233 10.233 23.804 15.869 38.195 15.869s28.072-5.636 38.195-15.869l261.075-261.951c21.068-21.068 21.068-55.487 0-76.555l-339.382-340.421c-20.356-20.411-55.98-20.411-76.391 0l-261.13 261.951c-10.233 10.178-15.814 23.749-15.814 38.25 0 14.446 5.582 28.127 15.814 38.305l28.181 28.346c-16.033 16.526-30.261 36.335-43.011 58.99l-36.116-36.28c-23.804-23.858-36.937-55.597-36.937-89.36s13.133-65.501 36.937-89.36l261.13-261.951c23.804-23.858 55.378-36.992 89.086-36.992 33.599 0 65.283 13.133 89.086 36.992l339.327 340.421 71.192 70.755-19.754 19.973c37.375 20.411 54.010-150.155 54.010-150.155s52.204-407.072 98.608 0c44.324 389.561-261.513 295.878-288.162 287.013z" />
<glyph unicode="&#xe902;" glyph-name="sheet-good" d="M16.584 514.251l484.698-207.455c3.42-1.493 7.072-2.204 10.731-2.204s7.295 0.748 10.731 2.204l484.688 207.455c10.233 4.39 16.789 14.525 16.557 25.657-0.229 11.139-7.197 21.001-17.591 24.943l-484.702 184.345c-6.264 2.389-13.157 2.389-19.404 0l-484.685-184.342c-10.394-3.942-17.359-13.824-17.601-24.943-0.229-11.115 6.334-21.287 16.577-25.661zM511.997 694.492l411.841-156.632-411.841-176.282-411.847 176.279 411.847 156.636zM16.584 396.194l495.413-212.051 495.403 212.051c13.875 5.933 20.29 21.978 14.357 35.829-5.917 13.824-21.907 20.317-35.819 14.357l-473.94-202.873-473.957 202.873c-13.868 5.943-29.896-0.516-35.829-14.357-5.933-13.868 0.509-29.896 14.373-35.829zM16.584 287.038l495.413-212.057 495.403 212.057c13.875 5.933 20.29 21.961 14.357 35.819-5.917 13.824-21.907 20.327-35.819 14.357l-473.94-202.873-473.957 202.869c-13.868 5.937-29.896-0.512-35.829-14.357-5.933-13.858 0.509-29.882 14.373-35.816zM16.584 177.869l495.413-212.057 495.403 212.057c13.875 5.937 20.29 21.965 14.357 35.822-5.917 13.824-21.907 20.287-35.819 14.357l-473.94-202.873-473.957 202.873c-13.868 5.933-29.896-0.516-35.829-14.357-5.933-13.858 0.509-29.886 14.373-35.822z" />
<glyph unicode="&#xe903;" glyph-name="solid-wood" d="M132.992 513.971c-1.33-0.123-2.622-0.55-3.837-1.103-0.609-0.277-1.206-0.584-1.784-0.923-0.488-0.284-0.968-0.58-1.437-0.894-0.612-0.405-1.209-0.835-1.792-1.28-0.769-0.589-1.515-1.208-2.24-1.849-0.94-0.83-1.847-1.699-2.723-2.597-1.116-1.139-2.184-2.327-3.213-3.545-2.449-2.902-4.677-5.986-6.741-9.172-2.468-3.807-4.702-7.764-6.757-11.81-2.479-4.88-4.697-9.893-6.708-14.982-2.246-5.688-4.232-11.476-6.004-17.327-2.222-7.337-4.105-14.778-5.701-22.276-1.725-8.105-3.115-16.283-4.205-24.498-1.358-10.229-2.251-20.518-2.721-30.827-0.421-9.24-0.503-18.494-0.25-27.739 0.487-17.846 2.215-35.673 5.41-53.239 1.36-7.473 2.988-14.898 4.925-22.242 1.703-6.459 3.646-12.856 5.871-19.153 1.745-4.94 3.666-9.818 5.798-14.603 1.905-4.276 3.979-8.478 6.263-12.565 1.883-3.368 3.911-6.659 6.122-9.82 1.856-2.654 3.842-5.222 6.002-7.637 0.913-1.021 1.857-2.015 2.837-2.972 0.856-0.835 1.741-1.642 2.659-2.411 0.702-0.589 1.424-1.155 2.166-1.692 0.559-0.405 1.131-0.791 1.718-1.155 1.026-0.637 2.097-1.212 3.22-1.66 1.202-0.482 2.468-0.812 3.767-0.832 0.038 0 0.074 0 0.111-0.002 1.565 0.007 3.079 0.462 4.497 1.096 0.641 0.289 1.27 0.612 1.877 0.967 0.487 0.284 0.967 0.58 1.436 0.891 0.612 0.407 1.209 0.835 1.792 1.283 0.769 0.587 1.515 1.205 2.24 1.847 0.94 0.832 1.847 1.701 2.725 2.597 1.116 1.142 2.184 2.327 3.213 3.548 2.448 2.9 4.676 5.986 6.74 9.17 2.336 3.605 4.462 7.343 6.426 11.162 2.488 4.84 4.714 9.811 6.734 14.864 2.259 5.649 4.258 11.403 6.044 17.22 2.241 7.305 4.142 14.71 5.759 22.176 1.747 8.076 3.159 16.224 4.271 24.411 2.579 18.981 3.575 38.175 3.168 57.321-0.387 18.273-2.070 36.537-5.283 54.533-1.34 7.5-2.95 14.955-4.867 22.33-1.687 6.491-3.614 12.922-5.824 19.256-1.735 4.971-3.646 9.884-5.767 14.703-1.898 4.312-3.966 8.553-6.245 12.679-1.882 3.404-3.908 6.734-6.12 9.938-1.952 2.829-4.049 5.563-6.34 8.126-0.913 1.021-1.857 2.015-2.838 2.97-0.856 0.837-1.74 1.644-2.657 2.413-0.703 0.589-1.424 1.155-2.167 1.692-0.559 0.403-1.131 0.789-1.717 1.153-1.101 0.685-2.255 1.299-3.468 1.76-0.612 0.232-1.241 0.423-1.881 0.553-0.718 0.041-1.596 0.089-2.503 0.148zM909.040 117.362l-0.027-0.005c-112.332-0.011-224.665-0.059-336.997-0.082-56.937-0.009-113.874-0.016-170.811-0.016-81.196 0.007-162.39 0.023-243.584 0.080l-23.876 0.018c-1.857 0.007-3.712 0.061-5.564 0.184-4.037 0.266-8.053 0.826-12.010 1.665-4.244 0.901-8.418 2.124-12.482 3.641-2.996 1.119-5.932 2.397-8.797 3.816-2.514 1.249-4.974 2.606-7.372 4.062-1.784 1.085-3.534 2.222-5.249 3.411-13.086 9.065-24.036 20.941-33.128 33.945-1.617 2.311-3.176 4.662-4.684 7.046-2.104 3.327-4.103 6.72-6.006 10.166-2.299 4.162-4.457 8.399-6.491 12.695-2.737 5.788-5.244 11.685-7.547 17.659-4.412 11.444-8.077 23.172-11.121 35.052-3.343 13.049-5.938 26.288-7.878 39.614-2.515 17.273-3.933 34.7-4.356 52.148-0.357 14.7-0.013 29.424 1.060 44.090 0.836 11.43 2.116 22.829 3.875 34.152 1.681 10.814 3.798 21.564 6.404 32.194 2.29 9.345 4.959 18.598 8.059 27.707 2.711 7.967 5.751 15.822 9.176 23.506 2.249 5.049 4.664 10.025 7.264 14.901 2.029 3.807 4.169 7.553 6.433 11.226 1.669 2.706 3.404 5.372 5.211 7.989 9.407 13.627 20.832 26.065 34.587 35.396 1.728 1.173 3.492 2.295 5.288 3.361 2.264 1.344 4.583 2.599 6.948 3.757 2.876 1.405 5.822 2.668 8.827 3.768 3.906 1.433 7.911 2.593 11.981 3.455 5.409 1.148 10.929 1.769 16.457 1.842 3.341 0.045 6.684-0.111 10.005-0.464 3.149-0.191 6.297-0.38 9.446-0.569 39.379-2.342 78.768-4.539 118.158-6.698 41.12-2.251 82.245-4.453 123.371-6.613 25.385-1.333 50.769-2.649 76.156-3.93 10.163-0.512 20.329-1.021 30.493-1.506 2.388-0.114 4.776-0.227 7.161-0.337 37.936 44.595 83.079 97.593 95.226 112.003 2.531 3.743 5.474 7.207 8.708 10.364 6.377 6.222 13.841 11.26 21.741 15.34 5.749 2.97 11.751 5.444 17.882 7.509 6.786 2.288 13.739 4.075 20.768 5.442 5.167 1.003 10.379 1.776 15.615 2.338 6.707 0.719 13.452 1.089 20.197 1.13 10.868 0.068 21.751-0.707 32.485-2.424 8.858-1.415 17.627-3.473 26.144-6.306 3.013-1.003 5.995-2.104 8.933-3.311 2.379-0.978 4.73-2.029 7.043-3.154 1.635-0.794 3.252-1.628 4.846-2.504 9.624-5.276 18.553-12.087 25.369-20.754 0.955-1.214 1.869-2.465 2.731-3.748 1.108-1.644 2.135-3.343 3.072-5.090 1.36-2.538 2.529-5.178 3.48-7.896 1.203-3.443 2.054-7.007 2.52-10.623 0.589-4.576 0.559-9.226-0.086-13.793-0.801-5.649-2.547-11.146-5.078-16.254-0.573-1.155-1.183-1.919-1.831-2.424-3.22-4.494-19.197-26.779-39.189-54.583 34.266 4.83 68.47 10.086 102.685 15.246 3.364 0.505 6.725 1.007 10.088 1.506 3.075 0.45 6.149 0.903 9.226 1.319 2.777 0.375 5.56 0.739 8.365 0.787h0.071c0.75 0.011 1.501 0.005 2.251-0.014 1.669-0.043 3.339-0.146 5.001-0.309 7.541-0.748 14.928-2.775 21.839-5.877 5.558-2.493 10.8-5.67 15.656-9.347 3.875-2.936 7.505-6.19 10.896-9.674 4.894-5.031 9.288-10.536 13.259-16.322 4.612-6.72 8.66-13.82 12.269-21.125 4.437-8.979 8.221-18.271 11.517-27.725 3.8-10.9 6.955-22.021 9.611-33.254 4.312-18.251 7.314-36.806 9.297-55.45 2.356-22.144 3.27-44.443 2.891-66.707-0.362-21.364-1.931-42.719-4.903-63.88-1.355-9.652-3.007-19.263-4.996-28.805-1.803-8.658-3.887-17.259-6.297-25.769-2.083-7.353-4.412-14.639-7.039-21.816-1.908-5.217-3.973-10.379-6.225-15.46-1.765-3.987-3.646-7.926-5.656-11.794-1.51-2.909-3.095-5.779-4.762-8.601-1.148-1.947-2.338-3.871-3.571-5.767-1.046-1.615-2.124-3.207-3.234-4.778-7.619-10.789-16.836-20.609-27.939-27.861-1.84-1.203-3.73-2.331-5.663-3.379-2.44-1.324-4.951-2.515-7.523-3.559-3.145-1.28-6.384-2.34-9.681-3.159-3.202-0.794-6.461-1.36-9.745-1.685-1.478-0.146-2.959-0.239-4.444-0.293-0.694-0.020-1.385-0.034-2.079-0.036l-0.123 0.005zM233.147 193.102c216.976-0.086 433.951 0.014 650.927 0.059l23.097 0.002c0.3 0.216 0.589 0.448 0.871 0.687 0.525 0.443 1.026 0.917 1.508 1.405 1.176 1.185 2.254 2.463 3.273 3.782 1.492 1.931 2.854 3.959 4.13 6.036 1.378 2.242 2.656 4.546 3.857 6.889 1.712 3.339 3.27 6.752 4.714 10.213 1.756 4.21 3.341 8.487 4.794 12.808 3.295 9.797 5.924 19.813 8.092 29.917 3.109 14.491 5.26 29.185 6.679 43.938 1.619 16.836 2.274 33.765 2.070 50.679-0.202 16.579-1.239 33.156-3.245 49.616-1.735 14.223-4.187 28.375-7.61 42.293-2.097 8.528-4.562 16.977-7.548 25.239-2.422 6.702-5.183 13.302-8.503 19.613-1.117 2.124-2.299 4.214-3.568 6.252-1.13 1.81-2.327 3.582-3.618 5.283-0.919 1.208-1.885 2.381-2.927 3.489-0.75 0.801-1.537 1.569-2.39 2.258-2.72-0.384-5.435-0.785-8.153-1.187-4.485-0.666-8.967-1.342-13.45-2.019-11.896-1.799-23.791-3.605-35.689-5.399-6.875-1.032-13.75-2.063-20.627-3.084-14.298-2.12-28.6-4.212-42.917-6.225-9.556-1.344-19.119-2.656-28.691-3.905-8.969-1.169-17.946-2.29-26.938-3.279-3.552-0.389-7.107-0.757-10.664-1.087-1.035-0.096-2.070-0.186-3.107-0.273-12.545-17.302-23.345-32.107-30.149-41.252l-13.416-18.046-1.060-1.36c-0.375-0.437-0.739-0.885-1.121-1.312-1.153-1.285-2.392-2.493-3.707-3.609-3.95-3.354-8.583-5.879-13.543-7.382-1.651-0.5-3.336-0.887-5.042-1.158-1.515-0.241-1.901-0.25-3.427-0.387-0.575-0.025-1.151-0.050-1.724-0.075-0.575 0-1.151-0.011-1.726 0.002-1.151 0.027-2.299 0.109-3.443 0.241-4 0.466-7.923 1.571-11.576 3.266-3.132 1.453-6.063 3.336-8.685 5.579-2.624 2.245-4.937 4.846-6.859 7.714-2.884 4.305-4.867 9.197-5.797 14.293-0.826 4.53-0.816 9.204 0.025 13.729 0.737 3.959 2.108 7.798 4.048 11.328 0.555 1.010 1.155 1.992 1.799 2.945 0.321 0.478 0.664 0.939 0.996 1.408 3.989 5.365 32.298 37.995 59.725 69.675 1.137 2.047 2.463 3.991 3.957 5.795 1.838 2.217 3.93 4.219 6.218 5.963 11.84 13.688 22.892 26.504 30.988 36.019-0.853-0.023-1.706-0.041-2.561-0.052-0.86-0.009-1.722-0.014-2.584-0.016-2.993 0.005-5.988 0.064-8.979 0.196-8.642 0.378-17.261 1.303-25.776 2.838-7.644 1.378-15.208 3.248-22.581 5.701-3.016 1.003-5.997 2.104-8.935 3.311-2.379 0.98-4.728 2.029-7.041 3.154-1.635 0.794-3.252 1.628-4.846 2.504-2.254 1.235-4.469 2.554-6.627 3.962-28.123-37.688-110.467-152.047-117.124-160.373l-1.046-1.251c-0.976-1.071-1.205-1.355-2.249-2.363-1.173-1.133-2.422-2.188-3.732-3.159-4.371-3.243-9.436-5.522-14.76-6.643-1.596-0.337-3.213-0.571-4.842-0.698-0.541-0.043-1.085-0.061-1.628-0.093-0.544-0.007-1.087-0.016-1.631-0.023-0.544 0.016-1.087 0.020-1.631 0.048-1.085 0.055-2.17 0.157-3.245 0.305-3.773 0.519-7.462 1.608-10.909 3.223s-6.65 3.75-9.463 6.313c-3.216 2.931-5.917 6.418-7.957 10.264-2.292 4.326-3.734 9.092-4.223 13.964-0.38 3.787-0.186 7.63 0.575 11.36 0.869 4.264 2.477 8.371 4.735 12.092 0.368 0.605 0.753 1.201 1.153 1.785-18.817 0.962-37.634 1.942-56.453 2.931-46.344 2.433-92.685 4.919-139.025 7.473-4.849 0.268-9.697 0.537-14.546 0.805 2.69-5.767 5.156-11.639 7.421-17.589 4.228-11.103 7.76-22.469 10.709-33.979 3.343-13.047 5.938-26.285 7.878-39.614 2.447-16.813 3.857-33.779 4.321-50.763 0.389-14.262 0.118-28.541-0.835-42.776-0.798-11.903-2.074-23.777-3.868-35.571-1.649-10.839-3.734-21.614-6.309-32.273-2.172-8.99-4.689-17.898-7.603-26.679-2.777-8.374-5.915-16.631-9.47-24.707-1.631-3.702-3.348-7.368-5.162-10.984zM708.851 639.687c6.691 0.009 13.381 0.45 20.004 1.419 4.337 0.637 8.647 1.494 12.881 2.627 3.502 0.937 6.961 2.060 10.316 3.441 2.856 1.176 5.647 2.536 8.251 4.198l0.091 0.059c-1.603 1.035-3.284 1.944-5.003 2.77-2.019 0.971-4.094 1.826-6.199 2.593-5.804 2.11-11.84 3.568-17.923 4.583-8.003 1.333-16.133 1.888-24.243 1.785-8.21-0.102-16.431-0.882-24.484-2.502-5.065-1.019-10.075-2.37-14.912-4.194-3.548-1.34-7.027-2.934-10.229-4.978l-0.089-0.057c2.461-1.592 5.101-2.895 7.798-4.032 3.075-1.294 6.243-2.377 9.454-3.279 10.259-2.881 20.914-4.191 31.555-4.407 0.91-0.016 1.822-0.025 2.734-0.025z" />
<glyph unicode="&#xe904;" glyph-name="chevron-right" d="M454.666 734.057c28.634-27.95 308.386-321.608 308.386-321.608 15.278-15.001 22.948-34.525 22.948-54.045s-7.67-39.044-22.948-53.91c0 0-279.757-293.797-308.386-321.608-28.634-27.95-80.144-29.867-110.628 0-30.551 29.729-32.947 71.307 0 107.821l256.67 267.698-256.67 267.698c-32.947 36.51-30.551 78.159 0 107.955 30.484 29.867 81.994 28.017 110.628 0z" />
<glyph unicode="&#xe905;" glyph-name="chevron-left" d="M679.962 734.057c30.551-29.867 32.947-71.446 0-107.955l-256.67-267.698 256.67-267.698c32.947-36.51 30.551-78.159 0-107.821-30.484-29.867-81.994-27.95-110.628 0-28.634 27.811-308.386 321.608-308.386 321.608-15.278 14.866-22.948 34.386-22.948 53.91s7.67 39.044 22.948 54.045c0 0 279.757 293.658 308.386 321.608 28.634 28.017 80.144 29.867 110.628 0z" />
<glyph unicode="&#xe906;" glyph-name="print" horiz-adv-x="951" d="M219.429 0h512v146.286h-512v-146.286zM219.429 365.714h512v219.429h-91.429c-30.286 0-54.857 24.571-54.857 54.857v91.429h-365.714v-365.714zM877.714 329.143c0 20-16.571 36.571-36.571 36.571s-36.571-16.571-36.571-36.571 16.571-36.571 36.571-36.571 36.571 16.571 36.571 36.571zM950.857 329.143v-237.714c0-9.714-8.571-18.286-18.286-18.286h-128v-91.429c0-30.286-24.571-54.857-54.857-54.857h-548.571c-30.286 0-54.857 24.571-54.857 54.857v91.429h-128c-9.714 0-18.286 8.571-18.286 18.286v237.714c0 60 49.714 109.714 109.714 109.714h36.571v310.857c0 30.286 24.571 54.857 54.857 54.857h384c30.286 0 72-17.143 93.714-38.857l86.857-86.857c21.714-21.714 38.857-63.429 38.857-93.714v-146.286h36.571c60 0 109.714-49.714 109.714-109.714z" />
<glyph unicode="&#xe907;" glyph-name="settings" horiz-adv-x="878" d="M585.144 365.714q0 60.572-42.856 103.428t-103.428 42.856-103.428-42.856-42.856-103.428 42.856-103.428 103.428-42.856 103.428 42.856 42.856 103.428zM877.714 428v-126.858q0-6.856-4.572-13.144t-11.428-7.428l-105.714-16q-10.856-30.856-22.286-52 20-28.572 61.144-78.856 5.714-6.856 5.714-14.286t-5.144-13.144q-15.428-21.144-56.572-61.714t-53.714-40.572q-6.856 0-14.856 5.144l-78.856 61.714q-25.144-13.144-52-21.714-9.144-77.714-16.572-106.286-4-16-20.572-16h-126.856q-8 0-14 4.856t-6.572 12.286l-16 105.144q-28 9.144-51.428 21.144l-80.57-61.144q-5.714-5.144-14.286-5.144-8 0-14.286 6.286-72 65.144-94.286 96-4 5.714-4 13.144 0 6.856 4.57 13.144 8.57 12 29.144 38t30.856 40.286q-15.43 28.572-23.43 56.572l-104.57 15.428q-7.43 1.144-12 7.144t-4.57 13.428v126.856q0 6.858 4.57 13.144t10.856 7.428l106.286 16q8 26.286 22.286 52.572-22.856 32.572-61.144 78.856-5.714 6.858-5.714 13.714 0 5.714 5.144 13.144 14.856 20.57 56.286 61.43t54 40.856q7.43 0 14.856-5.714l78.856-61.144q25.144 13.144 52 21.714 9.144 77.714 16.572 106.286 4 16 20.572 16h126.856q8 0 14-4.856t6.572-12.286l16-105.144q28-9.144 51.428-21.144l81.144 61.144q5.144 5.144 13.714 5.144 7.428 0 14.286-5.714 73.714-68 94.286-97.144 4-4.572 4-12.572 0-6.858-4.572-13.142-8.572-12-29.144-38t-30.856-40.286q14.856-28.572 23.428-56l104.572-16q7.428-1.142 12-7.142t4.572-13.428z" />
<glyph unicode="&#xe908;" glyph-name="warning" d="M585.144 92v108.572q0 8-5.428 13.428t-12.856 5.428h-109.714q-7.428 0-12.858-5.428t-5.428-13.428v-108.572q0-8 5.428-13.428t12.856-5.428h109.714q7.428 0 12.856 5.428t5.428 13.428zM584 305.714l10.286 262.286q0 6.858-5.714 10.858-7.428 6.286-13.714 6.286h-125.714q-6.286 0-13.714-6.286-5.714-4-5.714-12l9.714-261.144q0-5.714 5.714-9.428t13.714-3.714h105.714q8 0 13.428 3.714t6 9.428zM576 839.428l438.856-804.57q20-36-1.144-72-9.714-16.572-26.572-26.286t-36.286-9.714h-877.714q-19.43 0-36.286 9.714t-26.572 26.286q-21.144 36-1.144 72l438.858 804.572q9.714 17.714 26.858 28t37.144 10.286 37.144-10.286 26.856-28z" />
<glyph unicode="&#xe909;" glyph-name="help" d="M505.754 836.702c-260.146-3.482-468.224-217.19-464.742-477.338 3.482-259.994 217.19-468.122 477.338-464.64 260.044 3.482 468.174 217.19 464.64 477.338-3.43 260.046-217.14 468.122-477.236 464.64zM504.37 78.994h-2.61c-40.038 1.178-68.3 30.72-67.174 70.194 1.126 38.758 30.054 66.97 68.812 66.97l2.356-0.052c41.164-1.23 69.12-30.464 67.89-71.066-1.126-38.86-29.644-66.048-69.274-66.048zM672.87 413.432c-9.472-13.362-30.158-30.002-56.27-50.33l-28.774-19.866c-15.77-12.288-25.294-23.808-28.826-35.124-2.866-9.010-4.198-11.316-4.454-29.49l-0.052-4.658h-109.722l0.308 9.318c1.332 38.196 2.304 60.62 18.126 79.206 24.832 29.132 79.616 64.41 81.92 65.894 7.834 5.94 14.438 12.646 19.404 19.814 11.52 15.872 16.588 28.416 16.588 40.654 0 17.050-5.068 32.82-15.052 46.848-9.626 13.568-27.904 20.428-54.322 20.428-26.214 0-44.134-8.346-54.886-25.394-11.11-17.562-16.64-35.942-16.64-54.784v-4.71h-113.152l0.204 4.916c2.918 69.324 27.648 119.194 73.522 148.326 28.774 18.586 64.614 27.956 106.394 27.956 54.732 0 101.018-13.312 137.37-39.526 36.864-26.572 55.552-66.406 55.552-118.322 0-29.082-9.164-56.37-27.238-81.152z" />
<glyph unicode="&#xe90a;" glyph-name="eye-close" d="M945.942 881.942c-18.746 18.744-49.136 18.744-67.882 0l-202.164-202.164c-51.938 15.754-106.948 24.222-163.896 24.222-223.318 0-416.882-130.042-512-320 41.122-82.124 100.648-153.040 173.022-207.096l-158.962-158.962c-18.746-18.746-18.746-49.136 0-67.882 9.372-9.374 21.656-14.060 33.94-14.060s24.568 4.686 33.942 14.058l864 864c18.744 18.746 18.744 49.138 0 67.884zM416 576c42.24 0 78.082-27.294 90.92-65.196l-121.724-121.724c-37.902 12.838-65.196 48.68-65.196 90.92 0 53.020 42.98 96 96 96zM110.116 384c38.292 60.524 89.274 111.924 149.434 150.296 3.918 2.5 7.876 4.922 11.862 7.3-9.962-27.328-15.412-56.822-15.412-87.596 0-54.89 17.286-105.738 46.7-147.418l-60.924-60.924c-52.446 36.842-97.202 83.882-131.66 138.342zM768 454c0 27.166-4.256 53.334-12.102 77.898l-321.808-321.808c24.568-7.842 50.742-12.090 77.91-12.090 141.382 0 256 114.618 256 256zM830.026 606.026l-69.362-69.362c1.264-0.786 2.53-1.568 3.786-2.368 60.162-38.374 111.142-89.774 149.434-150.296-38.292-60.522-89.274-111.922-149.436-150.296-75.594-48.218-162.89-73.704-252.448-73.704-38.664 0-76.902 4.76-113.962 14.040l-76.894-76.894c59.718-21.462 123.95-33.146 190.856-33.146 223.31 0 416.876 130.042 512 320-45.022 89.916-112.118 166.396-193.974 222.026z" />
<glyph unicode="&#xe90b;" glyph-name="eye-open" d="M512 704c-223.318 0-416.882-130.042-512-320 95.118-189.958 288.682-320 512-320 223.312 0 416.876 130.042 512 320-95.116 189.958-288.688 320-512 320zM764.45 534.296c60.162-38.374 111.142-89.774 149.434-150.296-38.292-60.522-89.274-111.922-149.436-150.296-75.594-48.218-162.89-73.704-252.448-73.704-89.56 0-176.858 25.486-252.452 73.704-60.158 38.372-111.138 89.772-149.432 150.296 38.292 60.524 89.274 111.924 149.434 150.296 3.918 2.5 7.876 4.922 11.86 7.3-9.96-27.328-15.41-56.822-15.41-87.596 0-141.382 114.616-256 256-256 141.382 0 256 114.618 256 256 0 30.774-5.452 60.268-15.408 87.598 3.978-2.378 7.938-4.802 11.858-7.302v0zM512 480c0-53.020-42.98-96-96-96s-96 42.98-96 96 42.98 96 96 96 96-42.982 96-96z" />
<glyph unicode="&#xe90c;" glyph-name="link" d="M440.236 260.234c-13.31 0-26.616 5.076-36.77 15.23-95.134 95.136-95.134 249.934 0 345.070l192 192c46.088 46.086 107.36 71.466 172.534 71.466s126.448-25.38 172.536-71.464c95.132-95.136 95.132-249.934 0-345.070l-87.766-87.766c-20.308-20.308-53.23-20.308-73.54 0-20.306 20.306-20.306 53.232 0 73.54l87.766 87.766c54.584 54.586 54.584 143.404 0 197.99-26.442 26.442-61.6 41.004-98.996 41.004s-72.552-14.562-98.996-41.006l-192-191.998c-54.586-54.586-54.586-143.406 0-197.992 20.308-20.306 20.306-53.232 0-73.54-10.15-10.152-23.462-15.23-36.768-15.23zM256-116c-65.176 0-126.45 25.38-172.534 71.464-95.134 95.136-95.134 249.934 0 345.070l87.764 87.764c20.308 20.306 53.234 20.306 73.54 0 20.308-20.306 20.308-53.232 0-73.54l-87.764-87.764c-54.586-54.586-54.586-143.406 0-197.992 26.44-26.44 61.598-41.002 98.994-41.002s72.552 14.562 98.998 41.006l192 191.998c54.584 54.586 54.584 143.406 0 197.992-20.308 20.308-20.306 53.232 0 73.54 20.306 20.306 53.232 20.306 73.54-0.002 95.132-95.134 95.132-249.932 0.002-345.068l-192.002-192c-46.090-46.088-107.364-71.466-172.538-71.466z" />
<glyph unicode="&#xe90d;" glyph-name="edit" horiz-adv-x="1006" d="M239.524-50.386l59.166 59.164-152.788 152.788-59.164-59.164v-69.568h83.22v-83.22h69.566zM579.558 552.96q0 14.302-14.302 14.302-6.5 0-11.052-4.55l-352.386-352.386q-4.55-4.552-4.55-11.052 0-14.302 14.302-14.302 6.502 0 11.052 4.552l352.386 352.386q4.552 4.55 4.552 11.052zM544.448 677.79l270.466-270.466-540.932-540.932h-270.466v270.466zM988.506 615.376q0-34.46-24.058-58.514l-107.926-107.926-270.466 270.466 107.926 107.278q23.404 24.706 58.514 24.706 34.458 0 59.164-24.706l152.788-152.138q24.058-25.356 24.058-59.166z" />
<glyph unicode="&#xe90e;" glyph-name="tick" d="M864 768l-480-480-224 224-160-160 384-384 640 640z" />
<glyph unicode="&#xe90f;" glyph-name="arrow-circle-down" d="M856.141 365.047c0 11.334-4.001 21.999-12 30l-60.666 60.666c-7.999 7.999-18.666 12-30 12s-21.999-4.001-30-12l-126-126v334.667c0 23.334-19.333 42.667-42.667 42.667h-85.333c-23.334 0-42.667-19.333-42.667-42.667v-334.667l-126 126c-7.999 7.999-18.666 12.667-30 12.667s-21.999-4.666-30-12.667l-60.666-60.666c-7.999-7.999-12-18.666-12-30s4.001-21.999 12-30l301.999-301.999c7.999-7.999 18.666-12 30-12s21.999 4.001 30 12l301.999 301.999c7.999 7.999 12 18.666 12 30zM1024.141 365.714c0-282.668-229.333-511.999-511.999-511.999s-511.999 229.333-511.999 511.999 229.333 511.999 511.999 511.999 511.999-229.333 511.999-511.999z" />
<glyph unicode="&#xe910;" glyph-name="arrow-circle-up" d="M856.238 366.381c0 11.335-4.002 22.005-12.003 30.009l-302.086 302.086c-8.001 8.001-18.671 12.003-30.009 12.003s-22.005-4.002-30.009-12.003l-302.086-302.086c-8.001-8.001-12.003-18.671-12.003-30.009s4.002-22.005 12.003-30.009l60.683-60.683c8.001-8.001 18.671-12.003 30.009-12.003s22.005 4.002 30.009 12.003l126.036 126.036v-334.763c0-23.341 19.339-42.679 42.679-42.679h85.358c23.341 0 42.679 19.339 42.679 42.679v334.763l126.036-126.036c8.001-8.001 18.671-12.671 30.009-12.671s22.005 4.667 30.009 12.671l60.683 60.683c8.001 8.001 12.003 18.671 12.003 30.009zM1024.289 365.714c0-282.747-229.399-512.147-512.147-512.147s-512.147 229.399-512.147 512.147 229.399 512.147 512.147 512.147 512.147-229.399 512.147-512.147z" />
<glyph unicode="&#xe911;" glyph-name="material-origin-3" horiz-adv-x="1280" d="M1046.006 337.626l-196.741 198.669-28.451 29.413-67.186-66.005c-114.85 16.414-197.4-25.824-226.637-77.778-35.498-63.070 0.789-131.92 1.926-134.021 30.331-60.621 73.925-96.992 129.6-108.242 12.213-2.408 24.512-3.502 36.766-3.502 57.864 0 115.726 24.555 159.715 49.678 11.861-8.229 26.306-13.086 41.755-13.086 40.706 0 73.795 33.221 73.795 74.014s-33.090 73.97-73.795 73.97c-40.706 0-73.795-33.178-73.795-73.97 0-4.072 0.568-8.054 1.182-11.994-44.294-25.168-102.726-48.846-154.419-38.429-37.861 7.659-67.098 32.958-89.771 78.259-0.218 0.438-22.584 43.901-2.845 78.917 16.632 29.587 60.008 48.627 126.187 55.805l-10.286-10.373-95.067-95.418c1.008-2.32 1.75-3.72 1.795-3.81 9.149-18.294 19.434-33.176 30.902-45.082l172.099 172.582c8.186 8.186 19.038 12.693 30.55 12.693s22.454-4.507 30.55-12.693l208.822-209.523c16.853-16.851 16.853-44.381 0-61.234l-271.456-272.288c-16.282-16.325-44.778-16.325-61.102 0l-208.866 209.523c-8.186 8.141-12.65 18.995-12.65 30.595 0 11.554 4.466 22.496 12.65 30.638l22.541 22.672c-12.824 13.219-24.205 29.062-34.403 47.184l-28.886-29.019c-19.040-19.082-29.546-44.469-29.546-71.475 0-27.005 10.506-52.39 29.546-71.475l208.866-209.522c19.040-19.083 44.294-29.589 71.256-29.589 26.875 0 52.218 10.504 71.258 29.589l271.411 272.288 56.944 56.594-15.8 15.974c29.894 16.326 43.2-120.102 43.2-120.102s41.755-325.598 78.872 0c35.453 311.594-209.173 236.661-230.488 229.57zM256.013 877.714l-240.998-240.998c-20.019-20.019-20.019-52.378 0-72.397s52.378-20.019 72.397 0l117.402 117.402v-388.403c0-28.262 22.886-51.2 51.2-51.2s51.2 22.938 51.2 51.2v388.403l117.402-117.402c9.984-9.984 23.091-15.002 36.198-15.002s26.214 5.018 36.198 15.002c20.019 20.019 20.019 52.378 0 72.397z" />
<glyph unicode="&#xe912;" glyph-name="material-origin-2" horiz-adv-x="1280" d="M1046.006 337.626l-196.741 198.669-28.451 29.413-67.186-66.005c-114.85 16.414-197.4-25.824-226.637-77.778-35.498-63.070 0.789-131.92 1.926-134.021 30.331-60.621 73.925-96.992 129.6-108.242 12.213-2.408 24.512-3.502 36.766-3.502 57.864 0 115.726 24.555 159.715 49.678 11.861-8.229 26.306-13.086 41.755-13.086 40.706 0 73.795 33.221 73.795 74.014s-33.090 73.97-73.795 73.97c-40.706 0-73.795-33.178-73.795-73.97 0-4.072 0.568-8.054 1.182-11.994-44.294-25.168-102.726-48.846-154.419-38.429-37.861 7.659-67.098 32.958-89.771 78.259-0.218 0.438-22.584 43.901-2.845 78.917 16.632 29.587 60.008 48.627 126.187 55.805l-10.286-10.373-95.067-95.418c1.008-2.32 1.75-3.72 1.795-3.81 9.149-18.294 19.434-33.176 30.902-45.082l172.099 172.582c8.186 8.186 19.038 12.693 30.55 12.693s22.454-4.507 30.55-12.693l208.822-209.523c16.853-16.851 16.853-44.381 0-61.234l-271.456-272.288c-16.282-16.325-44.778-16.325-61.102 0l-208.866 209.523c-8.186 8.141-12.65 18.995-12.65 30.595 0 11.554 4.466 22.496 12.65 30.638l22.541 22.672c-12.824 13.219-24.205 29.062-34.403 47.184l-28.886-29.019c-19.040-19.082-29.546-44.469-29.546-71.475 0-27.005 10.506-52.39 29.546-71.475l208.866-209.522c19.040-19.083 44.294-29.589 71.256-29.589 26.875 0 52.218 10.504 71.258 29.589l271.411 272.288 56.944 56.594-15.8 15.974c29.894 16.326 43.2-120.102 43.2-120.102s41.755-325.598 78.872 0c35.453 311.594-209.173 236.661-230.488 229.57zM256.013 242.117l240.998 240.998c20.019 20.019 20.019 52.378 0 72.397s-52.378 20.019-72.397 0l-117.402-117.402v388.403c0 28.262-22.886 51.2-51.2 51.2s-51.2-22.938-51.2-51.2v-388.403l-117.402 117.402c-9.984 9.984-23.091 15.002-36.198 15.002s-26.214-5.018-36.198-15.002c-20.019-20.019-20.019-52.378 0-72.397z" />
<glyph unicode="&#xe913;" glyph-name="material-origin-1" horiz-adv-x="1280" d="M1046.007 337.627l-196.741 198.67-28.45 29.413-67.186-66.005c-114.85 16.414-197.401-25.824-226.638-77.778-35.497-63.070 0.789-131.92 1.927-134.021 30.331-60.622 73.925-96.992 129.6-108.242 12.213-2.407 24.512-3.502 36.766-3.502 57.865 0 115.726 24.555 159.714 49.678 11.861-8.229 26.306-13.086 41.755-13.086 40.706 0 73.794 33.221 73.794 74.014s-33.090 73.97-73.794 73.97c-40.706 0-73.794-33.177-73.794-73.97 0-4.073 0.569-8.055 1.182-11.993-44.295-25.168-102.727-48.846-154.418-38.43-37.861 7.659-67.097 32.958-89.771 78.258-0.217 0.439-22.583 43.902-2.846 78.917 16.631 29.586 60.009 48.626 126.187 55.806l-10.286-10.373-95.067-95.417c1.008-2.32 1.751-3.719 1.794-3.81 9.15-18.295 19.433-33.177 30.903-45.081l172.098 172.583c8.185 8.185 19.038 12.693 30.551 12.693s22.455-4.507 30.551-12.693l208.823-209.522c16.853-16.85 16.853-44.382 0-61.234l-271.456-272.288c-16.281-16.325-44.777-16.325-61.102 0l-208.866 209.522c-8.185 8.142-12.649 18.994-12.649 30.594 0 11.554 4.466 22.496 12.649 30.638l22.542 22.672c-12.823 13.218-24.206 29.063-34.402 47.184l-28.887-29.019c-19.040-19.081-29.545-44.469-29.545-71.474s10.505-52.391 29.545-71.474l208.866-209.522c19.040-19.083 44.295-29.589 71.257-29.589 26.875 0 52.217 10.505 71.257 29.589l271.41 272.288 56.944 56.594-15.799 15.975c29.895 16.327 43.2-120.103 43.2-120.103s41.755-325.598 78.873 0c35.454 311.593-209.173 236.661-230.489 229.57zM505.266 706.743h-408.725c-28.263 0-51.2 22.887-51.2 51.2s22.937 51.2 51.2 51.2h408.725c28.263 0 51.2-22.887 51.2-51.2s-22.937-51.2-51.2-51.2zM505.266 501.028h-408.725c-28.263 0-51.2 22.887-51.2 51.2s22.937 51.2 51.2 51.2h408.725c28.263 0 51.2-22.887 51.2-51.2s-22.937-51.2-51.2-51.2z" />
<glyph unicode="&#xe914;" glyph-name="tip" d="M512 832c-176.731 0-320-143.269-320-320 0-104.69 50.278-197.633 128-256.015v-191.985c0-35.346 28.653-64 64-64 0-35.346 28.653-64 64-64h128c35.347 0 64 28.654 64 64 35.347 0 64 28.654 64 64v191.985c77.722 58.382 128 151.325 128 256.015 0 176.731-143.269 320-320 320zM640 96c0-17.673-14.326-32-32-32h-192c-17.674 0-32 14.327-32 32v32h256v-32zM704 342.693c-33.234-33.030-64-42.389-64-124.041v-26.652h-64v128l128 128v64l-64 64-64-64-64 64-64-64-64 64-64-64v-64l128-128v-128h-64v26.652c0 81.652-30.766 91.011-64 124.041-39.823 45.127-64 104.389-64 169.307 0 141.385 114.615 256 256 256s256-114.615 256-256c0-64.918-24.177-124.18-64-169.307zM512 320l-128 128v64l64-64 64 64 64-64 64 64v-64l-128-128z" />
<glyph unicode="&#xe915;" glyph-name="sort-asc" d="M521.368 438.852h255.998c5.336 0 9.717 1.711 13.136 5.144 3.433 3.428 5.15 7.806 5.15 13.144v109.712c0 5.338-1.717 9.715-5.15 13.144-3.418 3.424-7.8 5.144-13.136 5.144h-255.998c-5.336 0-9.713-1.711-13.144-5.144-3.422-3.428-5.14-7.806-5.14-13.144v-109.712c0-5.338 1.711-9.715 5.14-13.144 3.43-3.426 7.808-5.144 13.144-5.144zM521.374 731.429h146.281c5.336 0 9.719 1.711 13.136 5.14 3.439 3.43 5.13 7.808 5.13 13.144v109.716c0 5.33-1.693 9.713-5.13 13.144-3.416 3.422-7.8 5.142-13.136 5.142h-146.281c-5.336 0-9.713-1.711-13.144-5.14-3.42-3.433-5.14-7.816-5.14-13.144v-109.716c0-5.336 1.711-9.713 5.14-13.144 3.433-3.422 7.808-5.142 13.144-5.142zM393.367 73.146h-109.714v786.283c0 5.33-1.709 9.719-5.14 13.144-3.43 3.422-7.808 5.142-13.146 5.142h-109.716c-5.33 0-9.719-1.711-13.144-5.14-3.42-3.433-5.14-7.816-5.14-13.144v-786.283h-109.716c-8.374 0-14.090-3.807-17.14-11.424-3.052-7.247-1.711-13.91 3.997-20.007l182.855-182.863c4.191-3.416 8.568-5.128 13.144-5.128 4.952 0 9.337 1.711 13.144 5.128l182.285 182.289c3.815 4.561 5.716 9.149 5.716 13.698 0 5.356-1.719 9.725-5.14 13.178-3.428 3.414-7.806 5.128-13.146 5.128zM1009.944-5.147c-3.433 3.439-7.808 5.15-13.144 5.15h-475.426c-5.336 0-9.713-1.711-13.144-5.15-3.42-3.424-5.14-7.808-5.14-13.138v-109.71c0-5.35 1.711-9.713 5.14-13.152 3.433-3.424 7.808-5.136 13.144-5.136h475.424c5.336 0 9.713 1.711 13.144 5.136 3.424 3.441 5.136 7.802 5.136 13.152v109.71c0.008 5.328-1.711 9.713-5.134 13.138zM521.368 146.291h365.718c5.33 0 9.713 1.711 13.15 5.136 3.418 3.424 5.13 7.808 5.13 13.136v109.726c0 5.328-1.711 9.713-5.13 13.136-3.439 3.424-7.82 5.136-13.15 5.136h-365.718c-5.336 0-9.713-1.711-13.144-5.136-3.422-3.424-5.14-7.808-5.14-13.136v-109.726c0-5.328 1.711-9.713 5.14-13.136 3.43-3.424 7.808-5.136 13.144-5.136z" />
<glyph unicode="&#xe916;" glyph-name="sort-desc" d="M667.654 0.003h-146.281c-5.336 0-9.713-1.711-13.144-5.15-3.42-3.424-5.14-7.808-5.14-13.138v-109.71c0-5.35 1.711-9.713 5.14-13.152 3.433-3.424 7.808-5.136 13.144-5.136h146.281c5.336 0 9.719 1.711 13.136 5.136 3.439 3.441 5.13 7.802 5.13 13.152v109.71c0 5.33-1.693 9.715-5.13 13.138-3.416 3.437-7.8 5.15-13.136 5.15zM393.367 73.146h-109.714v786.283c0 5.33-1.709 9.719-5.14 13.144-3.43 3.422-7.808 5.142-13.146 5.142h-109.716c-5.33 0-9.719-1.711-13.144-5.14-3.42-3.433-5.14-7.816-5.14-13.144v-786.283h-109.716c-8.374 0-14.090-3.807-17.14-11.424-3.052-7.247-1.711-13.91 3.997-20.007l182.855-182.863c4.191-3.416 8.568-5.128 13.144-5.128 4.952 0 9.337 1.711 13.144 5.128l182.285 182.289c3.815 4.561 5.716 9.149 5.716 13.698 0 5.356-1.719 9.725-5.14 13.178-3.428 3.414-7.806 5.128-13.146 5.128zM777.366 292.564h-255.998c-5.336 0-9.713-1.711-13.144-5.136-3.422-3.424-5.14-7.808-5.14-13.136v-109.726c0-5.328 1.711-9.713 5.14-13.136 3.43-3.424 7.808-5.136 13.144-5.136h255.998c5.336 0 9.717 1.711 13.136 5.136 3.433 3.424 5.15 7.808 5.15 13.136v109.726c0 5.328-1.717 9.713-5.15 13.136-3.416 3.422-7.8 5.136-13.136 5.136zM1009.944 872.574c-3.433 3.42-7.81 5.14-13.146 5.14h-475.424c-5.336 0-9.713-1.711-13.144-5.14-3.42-3.433-5.14-7.816-5.14-13.144v-109.716c0-5.336 1.711-9.713 5.14-13.144 3.433-3.42 7.808-5.14 13.144-5.14h475.424c5.336 0 9.713 1.711 13.144 5.14 3.424 3.43 5.136 7.808 5.136 13.144v109.714c0.008 5.33-1.711 9.721-5.134 13.146zM887.086 585.139h-365.718c-5.336 0-9.713-1.711-13.144-5.144-3.422-3.428-5.14-7.806-5.14-13.144v-109.712c0-5.338 1.711-9.715 5.14-13.144 3.43-3.424 7.808-5.144 13.144-5.144h365.718c5.33 0 9.713 1.711 13.15 5.144 3.418 3.428 5.13 7.806 5.13 13.144v109.712c0 5.338-1.711 9.723-5.13 13.144-3.445 3.424-7.828 5.144-13.15 5.144z" />
<glyph unicode="&#xe917;" glyph-name="reorder" d="M747.886 444.342h-471.772l235.886 314.514zM276.114 287.086h471.772l-235.886-314.514z" />
<glyph unicode="&#xe918;" glyph-name="refresh" d="M889.68 729.68c-93.608 102.216-228.154 166.32-377.68 166.32-282.77 0-512-229.23-512-512h96c0 229.75 186.25 416 416 416 123.020 0 233.542-53.418 309.696-138.306l-149.696-149.694h352v352l-134.32-134.32zM928 384c0-229.75-186.25-416-416-416-123.020 0-233.542 53.418-309.694 138.306l149.694 149.694h-352v-352l134.32 134.32c93.608-102.216 228.154-166.32 377.68-166.32 282.77 0 512 229.23 512 512h-96z" />
<glyph unicode="&#xe919;" glyph-name="unknow" d="M721.408 756.070c-58.368 42.086-131.686 63.13-219.955 63.13-67.123 0-123.802-14.797-169.83-44.442-73.062-46.387-111.872-125.184-116.582-236.288h169.318c0 32.41 9.472 63.488 28.314 93.594 18.893 30.003 50.944 45.005 96.154 45.005 45.978 0 77.67-12.186 94.925-36.506 17.357-24.422 26.010-51.405 26.010-80.998 0-25.805-12.902-49.408-28.518-70.81-8.55-12.493-19.814-24.013-33.843-34.509 0 0-91.802-58.88-132.096-106.189-23.347-27.392-25.446-68.506-27.546-127.386-0.102-4.198 1.485-12.902 16.128-12.902 14.694 0 118.579 0 131.635 0 13.107 0 15.821 9.677 15.974 14.029 0.922 21.402 3.277 32.41 7.219 44.8 7.373 23.398 27.546 43.776 50.125 61.389l46.592 32.102c42.086 32.819 75.622 59.699 90.47 80.794 25.293 34.611 43.11 77.312 43.11 128-0.051 82.688-29.235 144.998-87.603 187.187zM498.739 106.291c-58.317 1.792-106.445-38.605-108.288-101.888-1.792-63.181 43.93-105.011 102.298-106.701 60.877-1.792 107.725 37.222 109.619 100.506 1.741 63.283-42.701 106.291-103.629 108.083z" />
<glyph unicode="&#xe91a;" glyph-name="import" d="M870.4 570.514h-230.4v-51.2h204.8v-614.4h-665.6v614.4h204.8v51.2h-230.4c-14.132 0-25.6-11.468-25.6-25.6v-665.6c0-14.132 11.468-25.6 25.6-25.6h716.8c14.132 0 25.6 11.468 25.6 25.6v665.6c0 14.132-11.468 25.6-25.6 25.6zM683.912 409.216c-9.882 10.104-26.112 10.292-36.198 0.41l-110.114-107.708v550.196c0 14.132-11.468 25.6-25.6 25.6s-25.6-11.468-25.582-25.6v-550.178l-110.114 107.708c-10.086 9.882-26.316 9.694-36.198-0.41-9.882-10.12-9.71-26.316 0.41-36.198l153.6-150.256c10.086-9.898 26.316-9.71 36.198 0.376l153.19 149.862c10.102 9.882 10.29 26.078 0.408 36.198z" />
<glyph unicode="&#xe91b;" glyph-name="trash" horiz-adv-x="806" d="M292.572 457.142v-329.142q0-8-5.142-13.144t-13.142-5.144h-36.57q-8 0-13.144 5.144t-5.144 13.144v329.142q0 8 5.144 13.142t13.144 5.142h36.57q8 0 13.144-5.142t5.142-13.144zM438.858 457.142v-329.142q0-8-5.142-13.144t-13.144-5.144h-36.572q-8 0-13.144 5.144t-5.142 13.144v329.142q0 8 5.142 13.142t13.144 5.142h36.572q8 0 13.144-5.142t5.142-13.144zM585.144 457.142v-329.142q0-8-5.144-13.144t-13.144-5.144h-36.572q-8 0-13.144 5.144t-5.142 13.144v329.142q0 8 5.142 13.142t13.144 5.142h36.572q8 0 13.144-5.142t5.144-13.144zM658.286 43.428v541.714h-512v-541.714q0-12.572 4-23.144t8.286-15.428 6-4.856h475.43q1.714 0 6 4.856t8.286 15.428 4 23.144zM274.286 658.284h256l-27.428 66.856q-4 5.144-9.714 6.286h-181.142q-5.714-1.144-9.714-6.286zM804.572 640v-36.57q0-8-5.144-13.144t-13.144-5.142h-54.856v-541.714q0-47.428-26.856-82t-64.572-34.572h-475.428q-37.714 0-64.57 33.428t-26.856 80.856v544h-54.856q-8 0-13.144 5.142t-5.142 13.142v36.57q0 8 5.142 13.144t13.144 5.144h176.57l40 95.43q8.57 21.144 30.858 36t45.144 14.856h182.856q22.856 0 45.144-14.856t30.856-36l40-95.43h176.572q8 0 13.144-5.144t5.144-13.144z" />
<glyph unicode="&#xe91c;" glyph-name="orientation-locked-on-axis" d="M496.157 278.877v346.565l-111.307-38.241-2.004-0.564c-1.834-0.338-2.314-0.508-4.177-0.564-2.794-0.085-5.616 0.395-8.241 1.382-7.309 2.794-12.587 9.595-13.49 17.385-0.226 2.088-0.141 4.205 0.226 6.294 0.677 3.556 2.258 6.547 4.374 9.426l152.398 187.76c1.241 1.382 1.496 1.778 2.935 2.963 2.145 1.778 4.657 3.133 7.309 3.951 1.778 0.536 2.258 0.536 4.092 0.818 2.088 0.112 2.088 0.112 4.177 0 1.834-0.282 2.314-0.282 4.092-0.818 2.681-0.818 5.165-2.173 7.309-3.951 1.44-1.185 1.722-1.581 2.935-2.963l152.398-187.76c1.1-1.496 1.44-1.834 2.314-3.499 1.299-2.484 2.088-5.221 2.343-8.015 0.734-8.551-3.951-16.904-11.627-20.743-1.863-0.932-3.895-1.608-5.955-1.947-3.584-0.593-6.943-0.141-10.386 0.847l-111.307 38.241v-346.565l300.14-173.282 22.549 115.484 0.508 2.060c0.621 1.75 0.706 2.229 1.608 3.866 1.326 2.484 3.133 4.685 5.306 6.462 6.068 4.939 14.619 6.096 21.787 2.963 1.947-0.818 3.754-1.947 5.333-3.33 2.766-2.343 4.572-5.221 6.011-8.495l86.388-225.86c0.593-1.75 0.79-2.202 1.1-4.036 0.48-2.737 0.395-5.588-0.226-8.297-0.423-1.806-0.677-2.229-1.355-3.951-0.959-1.863-0.932-1.834-2.088-3.613-1.158-1.467-1.382-1.863-2.737-3.133-2.060-1.919-4.459-3.387-7.084-4.374-1.75-0.649-2.229-0.677-4.036-1.073l-238.786-38.071c-1.863-0.197-2.343-0.338-4.205-0.254-2.794 0.112-5.559 0.79-8.128 1.976-7.761 3.64-12.644 11.882-12.135 20.432 0.112 2.088 0.564 4.177 1.299 6.153 1.27 3.387 3.358 6.068 5.927 8.551l88.758 77.272-300.14 173.282-300.14-173.282 88.758-77.272c2.569-2.484 4.657-5.165 5.927-8.551 0.734-1.976 1.185-4.064 1.299-6.153 0.508-8.551-4.374-16.792-12.135-20.432-2.54-1.185-5.333-1.863-8.128-1.976-1.863-0.085-2.343 0.056-4.205 0.254l-238.786 38.071c-1.806 0.395-2.286 0.423-4.036 1.073-2.625 0.988-5.024 2.455-7.055 4.374-1.382 1.27-1.608 1.665-2.766 3.133-1.158 1.778-1.129 1.75-2.088 3.613-0.677 1.722-0.932 2.145-1.326 3.951-0.649 2.71-0.734 5.559-0.254 8.297 0.311 1.834 0.508 2.286 1.1 4.036l86.415 225.86c1.44 3.274 3.246 6.153 5.983 8.495 1.608 1.382 3.387 2.511 5.333 3.33 7.168 3.133 15.719 1.976 21.787-2.963 2.173-1.778 4.007-3.98 5.306-6.462 0.903-1.637 0.988-2.117 1.608-3.866l0.508-2.060 22.549-115.484 300.14 173.282zM27.786 576.956v54.016c0 34.516 12.361 64.12 37.112 88.899 24.75 24.75 54.383 37.112 88.899 37.112s64.149-12.361 88.899-37.112c24.75-24.779 37.14-54.383 37.14-88.899v-54.016h9.002c7.507 0 13.857-2.625 19.106-7.873 5.277-5.25 7.902-11.627 7.902-19.135v-162.022c0-7.507-2.625-13.885-7.873-19.135s-11.627-7.873-19.135-7.873h-270.055c-7.507 0-13.885 2.625-19.135 7.873s-7.873 11.627-7.873 19.135v162.022c0 7.507 2.625 13.885 7.873 19.135s11.627 7.873 19.135 7.873h9.002zM225.819 576.956v54.016c0 19.868-7.027 36.858-21.082 50.912-14.082 14.055-31.044 21.11-50.941 21.11-19.868 0-36.83-7.055-50.912-21.11-14.055-14.055-21.082-31.044-21.082-50.912v-54.016h144.016z" />
<glyph unicode="&#xe91d;" glyph-name="numbers-reset" d="M890.309 346.791l74.669 69.706h-199.133v-185.898l74.692 69.728c82.413-76.913 82.413-201.891 0-278.804-25.109-23.484-55.24-40.023-87.107-48.742v-67.866c50.077 10.449 97.806 33.627 136.901 70.1 109.963 102.764 109.963 269.035-0.023 371.776zM541.884 21.524c-82.413 76.913-82.413 201.891 0 278.804 25.109 23.484 55.216 40.001 87.107 48.72v67.866c-50.077-10.449-97.806-33.627-136.901-70.1-109.986-102.742-109.986-269.012 0-371.776l-74.67-69.706h199.133v185.898l-74.669-69.706zM102.402 877.715h102.4v-512.002h-102.4v512.002zM307.202 877.715h102.4v-512.002h-102.4v512.002zM512.003 775.312v-102.4h-512.002v102.4h512.002zM512.003 570.512v-102.4h-512.002v102.4h512.002z" />
<glyph unicode="&#xe91e;" glyph-name="numbers-save" d="M908.799 416.914h-447.999v-511.999h511.999v447.999l-64 64zM716.799 365.714h51.2v-102.4h-51.2v102.4zM921.599-43.885h-409.599v409.599h51.2v-153.6h255.999v153.6h51.2l51.2-51.2v-358.399zM102.402 877.715h102.4v-512.002h-102.4v512.002zM307.202 877.715h102.4v-512.002h-102.4v512.002zM512.003 775.312v-102.4h-512.002v102.4h512.002zM512.003 570.512v-102.4h-512.002v102.4h512.002z" />
<glyph unicode="&#xe91f;" glyph-name="save" d="M896 896h-896v-1024h1024v896l-128 128zM512 768h128v-256h-128v256zM896 0h-768v768h64v-320h576v320h74.978l53.022-53.018v-714.982z" />
<glyph unicode="&#xe920;" glyph-name="export" d="M870.406 570.524h-230.403v-51.201h204.803v-614.408h-665.609v614.408h204.803v51.201h-230.403c-14.132 0-25.6-11.468-25.6-25.6v-665.609c0-14.132 11.468-25.6 25.6-25.6h716.81c14.132 0 25.6 11.468 25.6 25.6v665.609c0 14.13-11.47 25.6-25.6 25.6zM683.489 720.148l-153.602 150.274c-10.086 9.882-26.316 9.694-36.198-0.41l-153.192-149.848c-10.104-9.898-10.292-26.094-0.41-36.216 9.882-10.070 26.112-10.258 36.198-0.376l110.116 107.709v-550.204c0-14.148 11.468-25.6 25.6-25.6s25.6 11.434 25.6 25.6v550.206l110.1-107.709c10.086-9.898 26.316-9.71 36.198 0.376 9.88 10.12 9.71 26.318-0.41 36.198z" />
<glyph unicode="&#xe921;" glyph-name="resized" d="M566.929-65.446h179.635v-79.838h-179.635v79.838zM942.172 16.467v-39.918c0-23.16-18.842-42-42-42h-39.918v-79.838h39.918c67.184 0 121.839 54.656 121.839 121.839v39.918h-79.838zM275.62 876.72h179.635v-79.838h-179.635v79.838zM566.929 876.72h179.635v-79.838h-179.635v79.838zM121.925 876.72c-67.184 0-121.839-54.656-121.839-121.839v-39.918h79.838v39.918c0 23.16 18.842 42 42 42h39.918v79.838h-39.918zM900.171 876.72h-39.918v-79.838h39.918c23.16 0 42-18.842 42-42v-39.918h79.838v39.918c0 67.182-54.654 121.839-121.839 121.839zM0 591.22h79.838v-179.635h-79.838v179.635zM944.162 299.893h79.838v-179.635h-79.838v179.635zM944.162 591.22h79.838v-179.635h-79.838v179.635zM529.011 671.049v-79.836h155.963l-263.248-275.044c-18.176 11.136-39.536 17.566-62.37 17.566h-239.513c-66.034 0-119.757-53.722-119.757-119.757v-239.513c0-66.034 53.722-119.757 119.757-119.757h239.513c66.034 0 119.757 53.722 119.757 119.757v239.513c0 13.882-2.402 27.206-6.764 39.616l266.238 278.168v-150.123h79.838v289.41h-289.414zM399.274-25.533c0-22.012-17.908-39.918-39.918-39.918h-239.513c-22.012 0-39.918 17.908-39.918 39.918v239.513c0 22.012 17.908 39.918 39.918 39.918h239.513c22.012 0 39.918-17.908 39.918-39.918v-239.513z" />
<glyph unicode="&#xe922;" glyph-name="bar" d="M17.869 458.932c1.382 9.489 7.817 18.466 21.555 24.149l631.467 213.333c5.393 1.741 6.946 2.116 13.5 2.048 0.341-0.017 0.683-0.051 1.024-0.085 0.137 0 0.256 0 0.341 0 1.894-0.239 3.123-0.273 5.069-0.785 6.724-1.246 10.871-3.328 13.807-5.82l282.709-133.035c11.93-6.144 19.132-17.937 19.593-30.891v-1.843c0.256-2.475 0.256-4.932 0-7.305v-277.555c0.683-5.257 0.154-10.462-1.638-15.326-2.423-8.636-7.117-11.588-11.486-15.002-2.219-1.741-4.625-3.14-7.151-4.215-0.666-0.324-1.365-0.631-2.082-0.922l-626.705-211.593c-3.567-1.98-7.543-3.277-11.793-3.755-15.053-3.686-19.49 0.119-24.917 5.82l-284.501 133.871c-11.93 6.144-19.132 17.937-19.593 30.891v290.133c0.137 4.062 0.41 6.229 0.802 7.885zM375.467 286.422v-213.129l563.2 188.245v213.129l-563.2-188.245zM85.333 182.572l221.867-104.397v214.682l-221.867 104.397c0-71.561 0-143.121 0-214.682zM139.588 447.173l208.452-98.099 541.474 180.258-208.367 98.116-541.559-180.275z" />
<glyph unicode="&#xe923;" glyph-name="cuttingdiagram-2d" d="M0 768h256v-384h-256v384zM384 768h256v-384h-256v384zM768 768h256v-768h-256v768zM0 256h640v-256h-640v256z" />
<glyph unicode="&#xe924;" glyph-name="magnifier" d="M902.497 168.597c162.002 162.005 161.999 425.609 0 587.614-162.005 162.005-425.606 162.005-587.607 0-137.439-137.439-158.255-341.847-62.502-501.467 0 0 6.878-11.539-2.411-20.822-52.995-52.991-211.988-211.988-211.988-211.988-42.194-42.191-52.239-101.189-14.821-138.614l6.442-6.436c37.418-37.424 96.419-27.383 138.61 14.811 0 0 158.657 158.66 211.543 211.543 9.735 9.735 21.27 2.857 21.27 2.857 159.617-95.75 364.024-74.938 501.464 62.502zM391.599 245.309c-119.705 119.705-119.702 314.477 0.003 434.182 119.705 119.702 314.477 119.705 434.179 0 119.705-119.702 119.705-314.477 0-434.182-119.705-119.699-314.474-119.699-434.182 0zM418.117 487.062c-5.572 0-11.236 1.095-16.695 3.401-21.808 9.23-32.011 34.393-22.781 56.204 58.012 137.093 216.738 201.429 353.828 143.417 21.808-9.23 32.011-34.393 22.781-56.204-9.233-21.811-34.39-32.008-56.208-22.781-93.533 39.578-201.838-4.318-241.413-97.851-6.924-16.359-22.804-26.186-39.513-26.186z" />
<glyph unicode="&#xe925;" glyph-name="grained-0" d="M1024-146.286h-1024v1024h1024v-1024zM804.571 73.143h-73.143v73.143h73.143v-73.143zM585.143 73.143h-146.286v73.143h146.286v-73.143zM365.714 146.285h-146.286v73.143h146.286v-73.143zM731.429 219.428h-73.143v146.286h73.143v-146.286zM512 292.571h-146.286v73.143h146.286v-73.143zM585.143 438.857h-73.143v73.143h73.143v-73.143zM804.571 512h-146.286v73.143h146.286v-73.143zM292.571 512h-73.143v146.286h73.143v-146.286zM585.143 585.143h-146.286v73.143h146.286v-73.143zM877.714 731.428h-731.429v-731.429h731.429v731.429z" />
<glyph unicode="&#xe926;" glyph-name="grained-1" d="M1024-146.286h-1024v1024h1024v-1024zM877.714 73.143h-731.429v-73.143h731.429v73.143zM146.286 219.428v-73.143h731.429v73.143h-731.429zM146.286 438.857v-146.286h731.429v146.286h-731.429zM146.286 585.143v-73.143h731.429v73.143h-731.429zM146.286 731.428v-73.143h731.429v73.143h-731.429z" />
<glyph unicode="&#xe927;" glyph-name="close" d="M1014.662 73.34c-0.004 0.004-0.008 0.008-0.012 0.010l-310.644 310.65 310.644 310.65c0.004 0.004 0.008 0.006 0.012 0.010 3.344 3.346 5.762 7.254 7.312 11.416 4.246 11.376 1.824 24.682-7.324 33.83l-146.746 146.746c-9.148 9.146-22.45 11.566-33.828 7.32-4.16-1.55-8.070-3.968-11.418-7.31 0-0.004-0.004-0.006-0.008-0.010l-310.648-310.652-310.648 310.65c-0.004 0.004-0.006 0.006-0.010 0.010-3.346 3.342-7.254 5.76-11.414 7.31-11.38 4.248-24.682 1.826-33.83-7.32l-146.748-146.748c-9.148-9.148-11.568-22.452-7.322-33.828 1.552-4.16 3.97-8.072 7.312-11.416 0.004-0.002 0.006-0.006 0.010-0.010l310.65-310.648-310.65-310.652c-0.002-0.004-0.006-0.006-0.008-0.010-3.342-3.346-5.76-7.254-7.314-11.414-4.248-11.376-1.826-24.682 7.322-33.83l146.748-146.746c9.15-9.148 22.452-11.568 33.83-7.322 4.16 1.552 8.070 3.97 11.416 7.312 0.002 0.004 0.006 0.006 0.010 0.010l310.648 310.65 310.648-310.65c0.004-0.002 0.008-0.006 0.012-0.008 3.348-3.344 7.254-5.762 11.414-7.314 11.378-4.246 24.684-1.826 33.828 7.322l146.746 146.748c9.148 9.148 11.57 22.454 7.324 33.83-1.552 4.16-3.97 8.068-7.314 11.414z" />
<glyph unicode="&#xe928;" glyph-name="size-length-width" d="M928-64l96 128h-64v384h64l-96 128-96-128h64v-384h-64l96-128zM128 736l128-96v64h384v-64l128 96-128 96v-64h-384v64l-128-96zM768 576v-640h-640v640h640zM704 512h-512v-512h512v512z" />
<glyph unicode="&#xe929;" glyph-name="vertical-cut" d="M361.412 787.361v-240.941h-361.412v-361.412h361.412v-240.941l421.647 421.647-421.647 421.647zM903.529-55.933h120.471v843.294h-120.471v-843.294z" />
<glyph unicode="&#xe92a;" glyph-name="horizontal-cut" d="M933.647 516.302h-240.941v361.412h-361.412v-361.412h-240.941l421.647-421.647 421.647 421.647zM90.353-25.815v-120.471h843.294v120.471h-843.294z" />
<glyph unicode="&#xe92b;" glyph-name="height" d="M802-66.286h-287.432l204.492 204.492-56.568 56.57-108.492-108.494v559.64l108.492-108.494 56.568 56.572-203.714 203.714h286.654v80h-580v-80h290.654l-203.714-203.714 56.568-56.572 108.492 108.494v-559.64l-108.492 108.494-56.568-56.57 204.492-204.492h-291.432v-80h580z" />
<glyph unicode="&#xe92c;" glyph-name="width" d="M944 655.714v-287.432l-204.492 204.492-56.57-56.568 108.494-108.492h-559.64l108.494 108.492-56.572 56.568-203.714-203.714v286.654h-80v-580h80v290.654l203.714-203.714 56.572 56.568-108.494 108.492h559.64l-108.494-108.492 56.57-56.568 204.492 204.492v-291.432h80v580z" />
<glyph unicode="&#xe92d;" glyph-name="saw" d="M1020.205 418.756c3.746 3.746 4.995 8.741 2.497 13.735-1.249 4.995-6.243 7.492-11.238 7.492h-107.385c-1.249 8.741-3.746 17.481-6.243 26.222l59.936 148.59c1.249 4.995 1.249 9.989-2.497 13.735s-8.741 4.995-13.735 2.497l-98.644-42.454c-2.497 4.995-6.243 8.741-9.989 13.735v159.828c0 4.995-2.497 9.989-7.492 11.238-4.995 2.497-9.989 1.249-13.735-2.497l-74.92-74.92c-7.492 4.995-14.984 9.989-22.476 13.735l-63.682 147.342c-1.249 4.995-6.243 7.492-11.238 7.492s-9.989-3.746-11.238-7.492l-39.957-99.893c-4.995 1.249-11.238 2.497-16.233 2.497l-113.628 113.628c-3.746 3.746-8.741 4.995-13.735 2.497-4.995-1.249-7.492-6.243-7.492-11.238v-107.385c-8.741-1.249-17.481-3.746-26.222-6.243l-148.59 59.936c-4.995 1.249-9.989 1.249-13.735-2.497s-4.995-8.741-2.497-13.735l42.454-98.644c-4.995-2.497-8.741-6.243-13.735-9.989h-159.828c-4.995 0-9.989-2.497-11.238-7.492-2.497-4.995-1.249-9.989 2.497-13.735l76.168-76.168c-4.995-7.492-9.989-14.984-13.735-22.476l-147.342-63.682c-6.243 0-8.741-4.995-8.741-9.989s3.746-9.989 7.492-11.238l99.893-39.957c-1.249-4.995-2.497-11.238-2.497-16.233l-113.628-113.628c-3.746-3.746-4.995-8.741-2.497-13.735 1.249-4.995 6.243-7.492 11.238-7.492h107.385c1.249-8.741 3.746-17.481 6.243-26.222l-59.936-148.59c-1.249-4.995-1.249-9.989 2.497-13.735 2.497-2.497 4.995-3.746 8.741-3.746 1.249 0 3.746 0 4.995 1.249l98.644 42.454c2.497-4.995 6.243-8.741 9.989-13.735v-159.828c0-4.995 2.497-9.989 7.492-11.238 1.249-1.249 3.746-1.249 4.995-1.249 3.746 0 6.243 1.249 8.741 3.746l76.168 76.168c7.492-4.995 14.984-9.989 22.476-13.735l63.682-147.342c2.497-4.995 6.243-7.492 11.238-7.492s9.989 3.746 11.238 7.492l39.957 99.893c4.995-1.249 11.238-2.497 16.233-2.497l113.628-113.628c2.497-2.497 4.995-3.746 8.741-3.746 1.249 0 3.746 0 4.995 1.249 4.995 2.497 7.492 6.243 7.492 11.238v107.385c8.741 1.249 17.481 3.746 26.222 6.243l147.342-61.184c1.249 0 2.497-1.249 4.995-1.249 3.746 0 6.243 1.249 8.741 3.746 3.746 3.746 4.995 8.741 2.497 13.735l-42.454 98.644c4.995 2.497 8.741 6.243 13.735 9.989h159.828c4.995 0 9.989 2.497 11.238 7.492 2.497 4.995 1.249 9.989-2.497 13.735l-74.92 74.92c4.995 7.492 9.989 14.984 13.735 22.476l147.342 63.682c4.995 2.497 7.492 6.243 7.492 11.238s-3.746 9.989-7.492 11.238l-99.893 39.957c1.249 4.995 2.497 11.238 2.497 16.233l113.628 113.628zM274.756 365.064c0-7.492-4.995-12.487-12.487-12.487s-12.487 4.995-12.487 12.487c0 144.844 117.374 262.218 262.218 262.218 7.492 0 12.487-4.995 12.487-12.487s-4.995-12.487-12.487-12.487c-131.109 0-237.245-106.136-237.245-237.245zM412.109 365.064c0 54.941 44.952 99.893 99.893 99.893s99.893-44.952 99.893-99.893-44.952-99.893-99.893-99.893-99.893 44.952-99.893 99.893zM512.001 102.846c-7.492 0-12.487 4.995-12.487 12.487s4.995 12.487 12.487 12.487c131.109 0 237.245 106.136 237.245 237.245 0 7.492 4.995 12.487 12.487 12.487s12.487-4.995 12.487-12.487c0-144.844-117.374-262.218-262.218-262.218z" />
<glyph unicode="&#xe92e;" glyph-name="plus" d="M992 512h-352v352c0 17.672-14.328 32-32 32h-192c-17.672 0-32-14.328-32-32v-352h-352c-17.672 0-32-14.328-32-32v-192c0-17.672 14.328-32 32-32h352v-352c0-17.672 14.328-32 32-32h192c17.672 0 32 14.328 32 32v352h352c17.672 0 32 14.328 32 32v192c0 17.672-14.328 32-32 32z" />
<glyph unicode="&#xe92f;" glyph-name="minus" d="M0 480v-192c0-17.672 14.328-32 32-32h960c17.672 0 32 14.328 32 32v192c0 17.672-14.328 32-32 32h-960c-17.672 0-32-14.328-32-32z" />
<glyph unicode="&#xe930;" glyph-name="arrow-right" d="M828.006 409.6l-310.835 310.835 72.397 72.397 434.432-434.432-434.432-434.432-72.397 72.397 310.835 310.835h-828.006v102.4z" />
<glyph unicode="&#xe931;" glyph-name="arrow-left" d="M195.994 409.6l310.835 310.835-72.397 72.397-434.432-434.432 434.432-434.432 72.397 72.397-310.835 310.835h828.006v102.4h-828.006z" />
<glyph unicode="&#xe932;" glyph-name="arrow-down" d="M460.8 42.394l-310.835 310.835-72.397-72.397 434.432-434.432 434.432 434.432-72.397 72.397-310.835-310.835v828.006h-102.4z" />
<glyph unicode="&#xe933;" glyph-name="arrow-up" d="M460.8 674.406l-310.835-310.835-72.397 72.397 434.432 434.432 434.432-434.432-72.397-72.397-310.835 310.835v-828.006h-102.4v828.006z" />
<glyph unicode="&#xe934;" glyph-name="label" d="M928 800h-361.6l-476.8-473.6 361.6-361.6 476.8 473.6v361.6zM640 512v128h128v-128h-128z" />
<glyph unicode="&#xe935;" glyph-name="edge-decremented" d="M942.171 16.466v-39.918c0-23.159-18.841-42-42-42h-39.918v-79.838h39.918c67.184 0 121.84 54.656 121.84 121.84v39.918l-79.84-0.002zM275.621 876.72h179.634v-79.838h-179.634v79.838zM566.928 876.72h179.634v-79.838h-179.634v79.838zM121.925 876.72c-67.184 0-121.84-54.656-121.84-121.84v-39.918h79.838v39.918c0 23.161 18.841 42 42 42h39.918v79.838l-39.915 0.002zM900.171 876.72h-39.918v-79.838h39.918c23.159 0 42-18.841 42-42v-39.918h79.838v39.918c0 67.182-54.654 121.84-121.84 121.84l0.002-0.002zM944.162 299.892h79.838v-179.634h-79.838v179.634zM944.162 591.22h79.838v-179.634h-79.838v179.634zM610.443-146.286h-490.601c-66.034 0-119.758 53.721-119.758 119.758v245.957h0.085v245.957c0 66.037 53.723 119.758 119.758 119.758h490.517c66.037-0.002 119.758-53.723 119.758-119.758v-491.913c0-66.034-53.721-119.755-119.758-119.758zM119.842-66.448h490.601c22.009 0 39.918 17.906 39.918 39.918v491.918c0 22.011-17.906 39.915-39.918 39.918h-490.517c-22.011-0.002-39.918-17.906-39.918-39.918v-245.959h-0.085v-245.959c0-22.011 17.906-39.915 39.918-39.918z" />
<glyph unicode="&#xe936;" glyph-name="not-aligned-on-axes" d="M377.52 521.252v-290.073l-93.163 32.007-1.68 0.473c-1.534 0.283-1.936 0.425-3.495 0.473-2.338 0.071-4.699-0.331-6.896-1.159-6.119-2.338-10.535-8.030-11.291-14.551-0.19-1.749-0.119-3.52 0.19-5.269 0.567-2.976 1.89-5.479 3.662-7.89l127.557-157.152c1.038-1.159 1.25-1.49 2.455-2.48 1.794-1.488 3.897-2.624 6.119-3.307 1.488-0.45 1.89-0.45 3.424-0.686 1.746-0.094 1.746-0.094 3.495 0 1.536 0.235 1.936 0.235 3.426 0.686 2.242 0.683 4.322 1.819 6.117 3.307 1.207 0.99 1.442 1.323 2.457 2.48l127.557 157.152c0.919 1.253 1.205 1.536 1.936 2.93 1.086 2.080 1.746 4.368 1.961 6.709 0.613 7.157-3.31 14.149-9.733 17.362-1.559 0.779-3.259 1.346-4.985 1.63-2.999 0.496-5.81 0.119-8.693-0.711l-93.163-32.007v290.073l251.214 145.035 18.873-96.658 0.425-1.723c0.521-1.465 0.592-1.865 1.346-3.234 1.109-2.080 2.622-3.922 4.439-5.41 5.081-4.133 12.238-5.102 18.238-2.478 1.63 0.683 3.141 1.63 4.462 2.786 2.315 1.961 3.826 4.37 5.033 7.111l72.306 189.045c0.494 1.465 0.661 1.842 0.919 3.378 0.402 2.29 0.331 4.677-0.19 6.944-0.352 1.513-0.565 1.865-1.134 3.307-0.802 1.561-0.779 1.536-1.746 3.026-0.969 1.227-1.157 1.559-2.29 2.622-1.723 1.607-3.733 2.837-5.929 3.662-1.465 0.544-1.865 0.567-3.378 0.898l-199.863 31.865c-1.559 0.165-1.961 0.283-3.52 0.213-2.338-0.094-4.651-0.663-6.802-1.655-6.496-3.047-10.583-9.945-10.158-17.102 0.094-1.746 0.473-3.495 1.088-5.15 1.063-2.837 2.809-5.081 4.96-7.159l74.29-64.677-251.214-145.035-251.216 145.035 74.29 64.677c2.151 2.080 3.897 4.325 4.962 7.159 0.613 1.655 0.99 3.401 1.086 5.15 0.425 7.157-3.662 14.055-10.155 17.102-2.126 0.99-4.464 1.559-6.805 1.655-1.559 0.071-1.961-0.048-3.52-0.213l-199.863-31.865c-1.511-0.331-1.913-0.354-3.378-0.898-2.197-0.825-4.206-2.055-5.906-3.662-1.157-1.063-1.344-1.392-2.313-2.622-0.971-1.488-0.946-1.465-1.749-3.026-0.565-1.44-0.779-1.794-1.109-3.307-0.544-2.267-0.615-4.651-0.213-6.944 0.261-1.534 0.425-1.913 0.921-3.378l72.329-189.045c1.205-2.738 2.715-5.15 5.008-7.111 1.346-1.157 2.837-2.103 4.464-2.786 6-2.624 13.157-1.655 18.235 2.478 1.819 1.49 3.353 3.333 4.441 5.41 0.754 1.369 0.825 1.771 1.346 3.234l0.425 1.723 18.873 96.658 251.221-145.033zM780.265-22.494v60.219c0 2.958-1.003 5.442-3.010 7.449-2.009 2.007-4.386 3.010-7.131 3.010h-60.855c-2.745 0-5.122-1.003-7.131-3.010-2.007-2.007-3.010-4.491-3.010-7.449v-60.219c0-2.958 1.003-5.44 3.010-7.447 2.009-2.009 4.384-3.013 7.131-3.013h60.853c2.747 0 5.125 1.003 7.131 3.013 2.007 2.007 3.010 4.489 3.010 7.447h0.002zM779.632 96.043l5.705 145.479c0 2.535-1.058 4.542-3.17 6.021-2.747 2.325-5.282 3.488-7.607 3.488h-69.728c-2.325 0-4.859-1.163-7.607-3.488-2.112-1.479-3.17-3.696-3.17-6.656l5.39-144.843c0-2.112 1.056-3.856 3.168-5.23 2.114-1.374 4.649-2.059 7.607-2.059h58.635c2.958 0 5.44 0.686 7.449 2.059 2.007 1.374 3.115 3.118 3.328 5.23zM775.193 392.071l243.415-446.258c7.394-13.312 7.184-26.622-0.635-39.934-3.591-6.128-8.503-10.987-14.736-14.581-6.233-3.591-12.942-5.387-20.128-5.387h-486.825c-7.186 0-13.895 1.797-20.128 5.387-6.231 3.593-11.145 8.453-14.736 14.581-7.819 13.312-8.030 26.622-0.635 39.934l243.413 446.258c3.593 6.551 8.558 11.728 14.896 15.531 6.341 3.803 13.207 5.705 20.601 5.705 7.397 0 14.263-1.902 20.603-5.705 6.338-3.803 11.303-8.981 14.894-15.531h0.002z" />
<glyph unicode="&#xe937;" glyph-name="auto-oriented" d="M576.361 147.211v290.875l-94.512-32.096-1.703-0.473c-1.557-0.286-1.963-0.427-3.545-0.475-2.373-0.071-4.77 0.334-6.997 1.161-6.208 2.345-10.688 8.055-11.456 14.592-0.192 1.753-0.121 3.529 0.192 5.282 0.576 2.985 1.918 5.495 3.714 7.913l129.403 157.589c1.054 1.161 1.271 1.493 2.491 2.487 1.822 1.493 3.954 2.629 6.208 3.317 1.511 0.45 1.918 0.45 3.474 0.686 1.771 0.094 1.771 0.094 3.545 0 1.557-0.235 1.963-0.235 3.474-0.686 2.277-0.688 4.386-1.824 6.208-3.317 1.223-0.994 1.461-1.328 2.491-2.487l129.403-157.589c0.933-1.255 1.223-1.538 1.963-2.937 1.102-2.087 1.771-4.382 1.989-6.729 0.624-7.177-3.355-14.185-9.872-17.408-1.582-0.784-3.307-1.351-5.056-1.637-3.042-0.496-5.897-0.119-8.818 0.713l-94.514 32.096v-290.875l254.853-145.438 19.147 96.926 0.43 1.728c0.528 1.47 0.601 1.87 1.365 3.243 1.127 2.087 2.661 3.934 4.505 5.424 5.152 4.146 12.414 5.118 18.501 2.487 1.653-0.688 3.186-1.634 4.528-2.795 2.347-1.966 3.881-4.382 5.104-7.131l73.353-189.566c0.503-1.47 0.672-1.849 0.935-3.39 0.407-2.295 0.334-4.69-0.194-6.962-0.359-1.515-0.574-1.872-1.15-3.317-0.816-1.563-0.791-1.541-1.771-3.033-0.985-1.232-1.175-1.563-2.325-2.631-1.749-1.611-3.785-2.843-6.014-3.671-1.486-0.546-1.893-0.569-3.429-0.901l-202.757-31.954c-1.582-0.165-1.989-0.283-3.57-0.213-2.373 0.094-4.72 0.665-6.903 1.659-6.587 3.054-10.736 9.973-10.302 17.15 0.094 1.751 0.478 3.504 1.102 5.163 1.079 2.843 2.85 5.095 5.033 7.177l75.365 64.857-254.853 145.438-254.853-145.438 75.367-64.857c2.183-2.085 3.954-4.336 5.033-7.177 0.624-1.659 1.006-3.41 1.102-5.163 0.432-7.177-3.714-14.096-10.304-17.15-2.155-0.994-4.528-1.563-6.901-1.659-1.582-0.071-1.989 0.048-3.573 0.213l-202.757 31.954c-1.531 0.331-1.941 0.354-3.426 0.901-2.229 0.827-4.265 2.059-5.991 3.671-1.175 1.067-1.365 1.397-2.35 2.631-0.983 1.493-0.958 1.47-1.771 3.033-0.574 1.445-0.791 1.799-1.125 3.317-0.553 2.274-0.624 4.665-0.217 6.962 0.265 1.541 0.432 1.92 0.935 3.39l73.376 189.566c1.223 2.747 2.757 5.166 5.081 7.131 1.367 1.161 2.875 2.107 4.528 2.795 6.087 2.631 13.346 1.659 18.501-2.487 1.845-1.493 3.401-3.339 4.505-5.424 0.766-1.374 0.837-1.776 1.365-3.243l0.432-1.728 19.145-96.926 254.859 145.435zM135.093 503.54c69.319 135.026 206.274 220.784 354.601 227.712l-22.672-23.938c-13.41-12.423-14.21-33.362-1.787-46.77 4.094-4.416 9.104-7.465 14.471-9.125 10.923-3.376 23.305-0.992 32.295 7.337l79.973 77.015c6.439 5.968 10.249 14.245 10.583 23.015 0.331 8.773-2.827 17.317-8.795 23.755l-81.76 83.712c-12.434 13.413-33.367 14.203-46.773 1.783-13.406-12.423-14.206-33.362-1.781-46.768l26.215-23.762c-172.848-7.003-332.747-106.537-413.447-263.735-39.022-75.97-57.397-161.015-53.147-245.945 0.715-14.277 10.37-25.982 23.285-29.973 3.595-1.111 7.451-1.625 11.424-1.426 18.258 0.917 32.318 16.453 31.401 34.709-3.671 73.321 12.203 146.763 45.915 212.405z" />
<glyph unicode="&#xe938;" glyph-name="submenu" d="M648.533 741.181c0 75.28-61.253 136.533-136.533 136.533s-136.533-61.253-136.533-136.533 61.253-136.533 136.533-136.533 136.533 61.253 136.533 136.533zM648.533-9.753c0 75.28-61.253 136.533-136.533 136.533s-136.533-61.253-136.533-136.533 61.253-136.533 136.533-136.533 136.533 61.253 136.533 136.533zM648.533 365.714c0 75.28-61.253 136.533-136.533 136.533s-136.533-61.253-136.533-136.533 61.253-136.533 136.533-136.533 136.533 61.253 136.533 136.533z" />
<glyph unicode="&#xe939;" glyph-name="mini-logo-ladb" horiz-adv-x="800" d="M81.568-114.126c-11.36 5.728-21.76 13.792-31.264 24.16-7.552 8.512-14.432 19.616-20.576 33.312-6.144 13.76-8.736 30.528-7.808 50.368 9.44 78.496 21.312 157.504 35.456 236.864 12.288 68.128 27.648 140.48 46.080 217.056 18.432 76.608 40.448 147.040 65.984 211.392 7.552 17.984 16.512 34.016 26.944 48.256 9.504 12.288 21.056 22.912 34.816 31.872 13.728 8.96 30.496 12.512 50.368 10.656 11.328-2.88 21.248-8.064 29.76-15.648 7.584-6.624 13.952-16.032 19.2-28.32 5.184-12.32 6.368-28.384 3.488-48.224-16.992-62.464-33.984-128.192-51.040-197.216-14.144-59.552-29.088-126.24-44.704-200-15.552-73.824-28.64-148.576-39.008-224.16 15.136 3.776 34.816 8.256 58.88 13.504 24.128 5.12 49.184 10.080 75.232 14.848 25.984 4.672 52.224 8.736 78.72 12.064 26.432 3.328 50.56 4.512 72.384 3.552 16.032-0.96 30.688-3.328 43.936-7.136 11.36-3.808 22.016-9.44 31.904-16.992 9.952-7.552 15.84-17.984 17.728-31.264 1.888-10.368 0.928-20.32-2.816-29.76-3.808-7.616-10.176-15.2-19.168-22.688-8.96-7.616-22.976-13.76-41.856-18.496-53.888-8.512-104.96-16.576-153.216-24.064-20.8-2.848-42.048-6.176-63.808-9.952-21.792-3.776-42.816-7.616-63.104-11.36-20.384-3.744-39.52-7.072-57.504-9.888-17.984-2.88-33.088-5.76-45.376-8.576l-21.248-4.32h-1.44c-4.736 0-9.248-0.224-13.472-0.672-4.288-0.32-8.8-0.064-13.472 0.832zM678.432 842.098c30.816 2.912 53.952-3.296 69.376-18.72s21.664-32.704 18.752-51.744c-3.008-10.336-7.744-22.432-14.304-36.352-6.624-13.952-14.336-28.32-23.136-42.976-8.8-14.72-18.752-28.992-29.824-42.976-10.976-13.952-20.864-25.344-29.696-34.080-14.688-16.192-28.992-25.76-42.944-28.64-13.984-2.976-24.64-1.472-32 4.384-16.064 14.656-18.304 32.256-6.56 52.864 8.8 16.096 14.368 31.168 16.512 45.12 2.24 13.984 3.328 22.4 3.328 25.344 0 2.88 0 12.096 0 27.52 0 15.392 3.616 33.408 11.072 53.92 2.912 10.304 7.68 18.752 14.272 25.344 6.592 6.656 13.536 11.36 20.928 14.336 7.328 4.416 15.424 6.656 24.224 6.656z" />
<glyph unicode="&#xe93a;" glyph-name="plan" d="M516.736 856.382l-474.070-232.618v-470.784l469.334-277.93 469.334 277.932v470.784l-464.596 232.618zM469.334-0.536l-341.334 202.154v284.8l341.334-168.662v-318.294zM147.796 574.524l369.664 186.282 369.664-186.282-369.664-182.656-369.664 182.656zM896 201.618l-384-227.414v329.472l384 182.74v-284.8z" />
<glyph unicode="&#xe93b;" glyph-name="extension" d="M795.371 730.132h-566.743l-168.599-238.448 451.973-490.391 451.973 490.391-168.599 238.446zM761.333 664.37l96.921-137.074h-139.977l-47.714 137.074h90.768zM423.067 664.37h177.861l47.714-137.074h-273.287l47.712 137.074zM262.667 664.37h90.766l-47.714-137.074h-139.973l96.919 137.074zM177.25 461.533h129.817l104.663-254.407-234.478 254.407zM378.178 461.533h267.646l-133.824-325.294-133.822 325.294zM612.274 207.127l104.661 254.409h129.817l-234.478-254.409z" />
<glyph unicode="&#xe93c;" glyph-name="multiple-layers" d="M780.265-22.494v60.219c0 2.958-1.003 5.442-3.010 7.449s-4.386 3.010-7.131 3.010h-60.855c-2.745 0-5.122-1.003-7.131-3.010s-3.010-4.491-3.010-7.449v-60.219c0-2.958 1.003-5.44 3.010-7.447s4.384-3.013 7.131-3.013h60.853c2.747 0 5.125 1.003 7.131 3.013 2.007 2.007 3.010 4.489 3.010 7.447h0.002zM779.632 96.043l5.705 145.479c0 2.535-1.058 4.542-3.17 6.021-2.747 2.325-5.282 3.488-7.607 3.488h-69.728c-2.325 0-4.859-1.163-7.607-3.488-2.112-1.479-3.17-3.696-3.17-6.656l5.39-144.843c0-2.112 1.056-3.856 3.168-5.23s4.649-2.059 7.607-2.059h58.635c2.958 0 5.44 0.686 7.449 2.059s3.115 3.118 3.328 5.23zM775.193 392.071l243.415-446.258c7.394-13.312 7.184-26.622-0.635-39.934-3.591-6.128-8.503-10.987-14.736-14.581-6.233-3.591-12.942-5.387-20.128-5.387h-486.825c-7.186 0-13.895 1.797-20.128 5.387-6.231 3.593-11.145 8.453-14.736 14.581-7.819 13.312-8.030 26.622-0.635 39.934l243.413 446.258c3.593 6.551 8.558 11.728 14.896 15.531 6.341 3.803 13.207 5.705 20.601 5.705 7.397 0 14.263-1.902 20.603-5.705s11.303-8.981 14.894-15.531h0.002zM15.525 656.087l453.762-194.215c3.202-1.397 6.622-2.062 10.046-2.062 3.426 0 6.83 0.702 10.048 2.062l453.753 194.215c9.579 4.11 15.717 13.598 15.499 24.021-0.215 10.427-6.738 19.659-16.469 23.349l-453.767 172.581c-5.863 2.238-12.315 2.238-18.165 0l-453.749-172.576c-9.73-3.691-16.251-12.942-16.48-23.351-0.213-10.407 5.931-19.927 15.52-24.023zM479.319 824.825l385.557-146.635-385.557-165.031-385.561 165.029 385.561 146.638zM15.525 545.563l463.794-198.517 463.785 198.517c12.99 5.554 18.994 20.576 13.44 33.543-5.541 12.942-20.51 19.019-33.534 13.44l-443.689-189.925-443.707 189.925c-12.985 5.563-27.989-0.482-33.543-13.44-5.554-12.983 0.475-27.989 13.456-33.543h-0.002z" />
<glyph unicode="&#xe93d;" glyph-name="sort-col" d="M438.862 356.346v-255.998c0-5.336-1.711-9.717-5.144-13.136-3.428-3.433-7.806-5.15-13.144-5.15h-109.712c-5.338 0-9.715 1.717-13.144 5.15-3.424 3.418-5.144 7.8-5.144 13.136v255.998c0 5.336 1.711 9.713 5.144 13.144 3.428 3.422 7.806 5.14 13.144 5.14h109.712c5.338 0 9.715-1.711 13.144-5.14 3.426-3.43 5.144-7.808 5.144-13.144zM146.285 356.34v-146.281c0-5.336-1.711-9.719-5.14-13.136-3.43-3.439-7.808-5.13-13.144-5.13h-109.716c-5.33 0-9.713 1.693-13.144 5.13-3.422 3.416-5.142 7.8-5.142 13.136v146.281c0 5.336 1.711 9.713 5.14 13.144 3.433 3.42 7.816 5.14 13.144 5.14h109.716c5.336 0 9.713-1.711 13.144-5.14 3.422-3.433 5.142-7.808 5.142-13.144zM804.568 484.347v109.714h-786.283c-5.33 0-9.719 1.709-13.144 5.14-3.422 3.43-5.142 7.808-5.142 13.146v109.716c0 5.33 1.711 9.719 5.14 13.144 3.433 3.42 7.816 5.14 13.144 5.14h786.283v109.716c0 8.374 3.807 14.090 11.424 17.14 7.247 3.052 13.91 1.711 20.007-3.997l182.863-182.855c3.416-4.191 5.128-8.568 5.128-13.144 0-4.952-1.711-9.337-5.128-13.144l-182.289-182.285c-4.561-3.815-9.149-5.716-13.698-5.716-5.356 0-9.725 1.719-13.178 5.14-3.414 3.428-5.128 7.806-5.128 13.146zM882.861-132.23c-3.439 3.433-5.15 7.808-5.15 13.144v475.426c0 5.336 1.711 9.713 5.15 13.144 3.424 3.42 7.808 5.14 13.138 5.14h109.71c5.35 0 9.713-1.711 13.152-5.14 3.424-3.433 5.136-7.808 5.136-13.144v-475.424c0-5.336-1.711-9.713-5.136-13.144-3.441-3.424-7.802-5.136-13.152-5.136h-109.71c-5.328-0.008-9.713 1.711-13.138 5.134zM731.423 356.346v-365.718c0-5.33-1.711-9.713-5.136-13.15-3.424-3.418-7.808-5.13-13.136-5.13h-109.726c-5.328 0-9.713 1.711-13.136 5.13-3.424 3.439-5.136 7.82-5.136 13.15v365.718c0 5.336 1.711 9.713 5.136 13.144 3.424 3.422 7.808 5.14 13.136 5.14h109.726c5.328 0 9.713-1.711 13.136-5.14 3.424-3.43 5.136-7.808 5.136-13.144z" />
<glyph unicode="&#xe93e;" glyph-name="review" d="M1024 173.714h-192v-320l-256 320h-576v704h1024v-704zM917.078 571.934c-0.53 1.624-1.934 2.808-3.624 3.054l-81.146 11.794-36.288 73.528c-0.754 1.534-2.314 2.502-4.018 2.502s-3.27-0.968-4.020-2.502l-36.292-73.534-81.146-11.792c-1.69-0.246-3.090-1.426-3.624-3.054-0.524-1.62-0.090-3.404 1.136-4.594l58.72-57.236-13.864-80.822c-0.288-1.682 0.402-3.382 1.78-4.386 1.386-1.014 3.22-1.144 4.724-0.342l72.586 38.156 72.576-38.156c0.656-0.344 1.378-0.516 2.090-0.516 0.928 0 1.854 0.288 2.638 0.858 1.382 1.004 2.072 2.704 1.78 4.386l-13.86 80.818 58.722 57.24c1.22 1.198 1.658 2.978 1.13 4.598zM637.078 571.934c-0.53 1.624-1.934 2.808-3.624 3.054l-81.146 11.794-36.288 73.528c-0.754 1.534-2.314 2.502-4.018 2.502s-3.27-0.968-4.020-2.502l-36.292-73.534-81.146-11.792c-1.69-0.246-3.090-1.426-3.624-3.054-0.524-1.62-0.090-3.404 1.136-4.594l58.72-57.236-13.864-80.822c-0.288-1.682 0.402-3.382 1.78-4.386 1.386-1.014 3.22-1.144 4.724-0.342l72.586 38.156 72.576-38.156c0.656-0.344 1.378-0.516 2.090-0.516 0.928 0 1.854 0.288 2.638 0.858 1.382 1.004 2.072 2.704 1.78 4.386l-13.86 80.818 58.722 57.24c1.22 1.198 1.658 2.978 1.13 4.598zM357.078 571.934c-0.53 1.624-1.934 2.808-3.624 3.054l-81.146 11.794-36.288 73.528c-0.754 1.534-2.314 2.502-4.018 2.502s-3.27-0.968-4.020-2.502l-36.292-73.534-81.146-11.792c-1.69-0.246-3.090-1.426-3.624-3.054-0.524-1.62-0.090-3.404 1.136-4.594l58.72-57.236-13.864-80.822c-0.288-1.682 0.402-3.382 1.78-4.386 1.386-1.014 3.22-1.144 4.724-0.342l72.586 38.156 72.576-38.156c0.656-0.344 1.378-0.516 2.090-0.516 0.928 0 1.854 0.288 2.638 0.858 1.382 1.004 2.072 2.704 1.78 4.386l-13.86 80.818 58.722 57.24c1.22 1.198 1.658 2.978 1.13 4.598z" />
<glyph unicode="&#xe93f;" glyph-name="dimensions-help" d="M352 640l-352-192v-384l352-192 352 192v384l-352 192zM632.256 435.022l-280.256-152.872-280.256 152.872 280.256 152.864 280.256-152.864zM47.768 395.98l280.348-152.912v-305.93l-280.348 152.918v305.924zM375.884-62.862v305.93l280.348 152.912v-305.924l-280.348-152.918zM825.032 455.57h71.47v-71.57h-71.47v71.57zM704 731.182c0 49.55 14.606 89.406 43.816 119.57 29.21 30.166 69.316 45.248 120.314 45.248 47.168 0 84.938-12.904 113.312-38.71 28.372-25.806 42.558-58.782 42.558-98.924 0-24.316-5.208-44.044-15.622-59.184-10.416-15.138-31.426-37.39-63.032-66.752-22.984-21.334-37.89-39.398-44.714-54.194-6.822-14.796-10.234-36.644-10.234-65.548h-63.928c0 32.804 4.070 59.24 12.21 79.312s25.978 43.068 53.514 68.99l28.73 27.182c8.62 7.8 15.564 15.942 20.832 24.43 9.576 14.91 14.366 30.394 14.366 46.452 0 22.48-7.004 41.978-21.010 58.494-14.008 16.516-37.172 24.774-69.496 24.774-39.984 0-67.64-14.222-82.962-42.666-8.62-15.828-13.528-38.652-14.726-68.474h-63.928z" />
<glyph unicode="&#xe940;" glyph-name="texture" d="M396-18.286l500 500v-122l-378-378h-122zM896 67.714q0-34-26-60t-60-26h-84l170 170v-84zM214 749.714h84l-170-170v84q0 34 26 60t60 26zM506 749.714h122l-500-500v122zM832 745.714q50-14 62-60l-702-700q-46 14-60 60z" />
<glyph unicode="&#xe941;" glyph-name="rotate-right" d="M449.178 785.554c227.634 0 412.724-182.374 418.254-409.344h125.85l-188.366-209.972-188.366 209.972h146.226c-5.478 169.010-143.718 304.384-313.6 304.384-173.362 0-313.856-140.954-313.856-314.88s140.492-314.88 313.856-314.88c69.53 0 133.734 22.732 185.754 61.082l71.936-77.004c-71.014-55.756-160.462-89.038-257.69-89.038-231.116 0-418.458 187.956-418.458 419.84s187.342 419.84 418.458 419.84z" />
<glyph unicode="&#xe942;" glyph-name="rotate-left" d="M574.77 785.554c-227.584 0-412.672-182.374-418.252-409.344h-125.798l188.366-209.92 188.314 209.92h-146.226c5.53 169.010 143.77 304.384 313.6 304.384 173.414 0 313.908-140.954 313.908-314.88s-140.492-314.88-313.906-314.88c-69.478 0-133.682 22.732-185.702 61.082l-71.986-77.004c71.014-55.756 160.462-89.038 257.69-89.038 231.168 0 418.56 187.956 418.56 419.84-0.052 231.884-187.442 419.84-418.56 419.84z" />
<glyph unicode="&#xe943;" glyph-name="lock" horiz-adv-x="658" d="M182.856 406.856h292.572v109.714q0 60.572-42.856 103.428t-103.428 42.856-103.43-42.856-42.856-103.428v-109.714zM658.286 352v-329.142q0-22.856-16-38.856t-38.856-16h-548.572q-22.856 0-38.856 16t-16 38.856v329.144q0 22.856 16 38.856t38.856 16h18.286v109.714q0 105.144 75.43 180.57t180.57 75.43 180.57-75.43 75.428-180.57v-109.714h18.286q22.856 0 38.856-16t16-38.856z" />
<glyph unicode="&#xe944;" glyph-name="unlock" horiz-adv-x="658" d="M603.429 438.857c30.286 0 54.857-24.571 54.857-54.857v-329.143c0-30.286-24.571-54.857-54.857-54.857h-548.571c-30.286 0-54.857 24.571-54.857 54.857v329.143c0 30.286 24.571 54.857 54.857 54.857h18.286v182.857c0 141.143 114.857 256 256 256s256-114.857 256-256c0-20-16.571-36.571-36.571-36.571h-36.571c-20 0-36.571 16.571-36.571 36.571 0 80.571-65.714 146.286-146.286 146.286s-146.286-65.714-146.286-146.286v-182.857h420.571z" />
<glyph unicode="&#xe945;" glyph-name="drop" d="M729.824 592.163c-72.607 119.842-153.363 223.563-195.042 274.725-5.578 6.852-13.946 10.829-22.78 10.826-8.836 0-17.203-3.977-22.783-10.829-41.676-51.178-122.433-154.934-195.039-274.786-93.568-154.458-141.011-282.161-141.011-379.554 0-197.86 160.971-358.831 358.831-358.831s358.831 160.971 358.831 358.831c0.003 97.457-47.436 225.179-141.006 379.618zM561.24-14.122c-20.953-5.358-42.702-8.072-64.657-8.072-134.058 0-243.121 101.317-243.121 225.852 0 30.065 7.934 65.191 23.574 104.399 2.642 6.625 10.169 10.404 17.59 8.802 7.415-1.597 12.394-8.062 11.631-15.092-0.914-8.409-1.378-16.623-1.378-24.404 0-135.525 109.202-249.014 254.015-263.973 7.207-0.745 12.83-6.136 13.404-12.854 0.577-6.718-4.066-12.867-11.056-14.657z" />
<glyph unicode="&#xe946;" glyph-name="info" horiz-adv-x="1006" d="M669.278 53.638v104.026q0 9.102-5.852 14.954t-14.954 5.852h-62.414v332.88q0 9.102-5.852 14.954t-14.954 5.852h-208.050q-9.102 0-14.954-5.852t-5.852-14.954v-104.026q0-9.102 5.852-14.954t14.954-5.852h62.416v-208.050h-62.416q-9.102 0-14.954-5.852t-5.852-14.954v-104.026q0-9.102 5.852-14.954t14.954-5.852h291.272q9.102 0 14.954 5.852t5.852 14.954zM586.058 636.18v104.026q0 9.102-5.852 14.954t-14.954 5.852h-124.83q-9.102 0-14.954-5.852t-5.852-14.954v-104.026q0-9.102 5.852-14.954t14.954-5.852h124.83q9.102 0 14.954 5.852t5.852 14.954zM1002.158 365.714q0-135.884-66.966-250.636t-181.72-181.72-250.638-66.966-250.638 66.966-181.718 181.72-66.966 250.638 66.966 250.638 181.718 181.718 250.638 66.966 250.638-66.966 181.72-181.718 66.966-250.638z" />
<glyph unicode="&#xe947;" glyph-name="axes" d="M477.801 270.567v346.565l-111.307-38.24-2.005-0.565c-1.833-0.338-2.313-0.507-4.176-0.565-2.793-0.085-5.616 0.395-8.24 1.383-7.31 2.793-12.587 9.595-13.49 17.385-0.226 2.089-0.142 4.206 0.226 6.295 0.677 3.557 2.258 6.546 4.375 9.426l152.398 187.76c1.241 1.383 1.495 1.778 2.935 2.962 2.144 1.778 4.656 3.134 7.31 3.952 1.778 0.537 2.258 0.537 4.091 0.818 2.087 0.112 2.087 0.112 4.176 0 1.833-0.281 2.313-0.281 4.091-0.818 2.681-0.818 5.166-2.174 7.31-3.952 1.44-1.184 1.721-1.582 2.935-2.962l152.398-187.76c1.099-1.495 1.44-1.833 2.313-3.499 1.298-2.485 2.087-5.221 2.343-8.016 0.734-8.551-3.952-16.903-11.627-20.743-1.863-0.933-3.895-1.609-5.954-1.947-3.584-0.592-6.944-0.142-10.386 0.848l-111.307 38.24v-346.565l300.139-173.282 22.549 115.483 0.507 2.059c0.622 1.751 0.706 2.229 1.607 3.865 1.326 2.485 3.134 4.686 5.305 6.462 6.069 4.939 14.619 6.096 21.787 2.962 1.947-0.818 3.753-1.947 5.333-3.33 2.766-2.343 4.571-5.221 6.011-8.496l86.389-225.861c0.592-1.751 0.791-2.201 1.099-4.037 0.48-2.736 0.395-5.589-0.226-8.297-0.423-1.806-0.677-2.229-1.355-3.952-0.96-1.863-0.933-1.833-2.087-3.614-1.159-1.467-1.383-1.863-2.736-3.134-2.059-1.92-4.459-3.387-7.083-4.375-1.751-0.649-2.229-0.677-4.037-1.072l-238.786-38.071c-1.863-0.197-2.343-0.338-4.206-0.254-2.793 0.112-5.559 0.791-8.128 1.977-7.76 3.639-12.645 11.881-12.135 20.432 0.112 2.087 0.565 4.176 1.298 6.153 1.271 3.387 3.358 6.069 5.927 8.551l88.759 77.273-300.139 173.282-300.139-173.282 88.759-77.273c2.569-2.485 4.656-5.166 5.927-8.551 0.734-1.977 1.184-4.064 1.298-6.153 0.507-8.551-4.375-16.793-12.135-20.432-2.539-1.184-5.333-1.863-8.128-1.977-1.863-0.085-2.343 0.057-4.206 0.254l-238.786 38.071c-1.806 0.395-2.286 0.423-4.037 1.072-2.624 0.987-5.024 2.455-7.056 4.375-1.383 1.271-1.607 1.664-2.766 3.134-1.159 1.778-1.129 1.751-2.087 3.614-0.677 1.721-0.933 2.144-1.326 3.952-0.649 2.711-0.734 5.559-0.254 8.297 0.311 1.833 0.507 2.286 1.099 4.037l86.416 225.861c1.44 3.273 3.246 6.153 5.984 8.496 1.609 1.383 3.387 2.512 5.333 3.33 7.168 3.134 15.719 1.977 21.787-2.962 2.174-1.778 4.007-3.979 5.305-6.462 0.903-1.637 0.987-2.117 1.609-3.865l0.507-2.059 22.549-115.483 300.146 173.28z" />
<glyph unicode="&#xe948;" glyph-name="origin-min-center" d="M89.004 678.37c0.364 0.12 0.736 0.228 1.112 0.32l470.264 90.828c1.752 0.24 0.92 0.456 3.9 0.244 0.176-0.004 0.348-0.008 0.52-0.016l0.444-0.060 0.308-0.024c0.104-0.020 0.208-0.040 0.308-0.060 0.524-0.080 0.836-0.148 1.764-0.36l332.608-90.776c10.856-2.228 10.7-7.020 11.716-12.64 0.128-0.708 0.2-1.412 0.22-2.12 0.012-0.104 0.020-0.212 0.028-0.316l13.232-519.588c-0.416-13.484-5.832-15.104-11.956-15.996l-454.104-175.508c-8.756-2.868-12.596-0.616-15.536 2.1l-299.432 175.276c-0.592 0.348-1.172 0.744-1.74 1.196l-0.004 0.004c-5.788 4.244-5.56 7.172-5.944 10.772l-59.388 518.888c-1.252 7.708 3.088 15.6 11.68 17.836zM892.796 168.222l-12.084 474.64-290.172-68.844 2.12-34.332c0.096-13.068-16.744-22.148-26.888-12.684-2.784 2.6-4.312 4.352-5.052 10.712l-1.78 28.808-135.084-32.052 22.676-280.872 19.092 6.068c1.152 0.3 2.368 0.904 6.62 0.652 13.008-2.144 12.704-6.876 13.896-12.676 1.58-7.668-3.36-15.664-10.824-18.472l-26.144-8.312 18.648-230.988 399.752 154.5-23.156 10.212c-10.884 5.38-9.92 9.48-9.508 15.7 0.528 7.96 5.576 14.284 15.628 14.936 0.468-0.012 0.932-0.020 1.396-0.032 2.464-0.272 3.088-0.424 5.396-1.324l35.468-15.64zM415.228 243.65l-23.552 291.76-279.672 103.532 54.296-474.408 55.348 17.592c4.948 1.292 5.108 0.74 6.624 0.652 9.324-1.54 10.168-4.536 12.132-7.992 4.696-8.256 0.104-19.708-9.060-23.156l-39.612-12.592 243.448-142.496-17.308 214.368-3.548-1.128c-12.184-3.18-24.868 9.832-19.42 21.852 1.768 3.904 3.288 6.224 9.728 8.648l10.596 3.368zM350.26 221.55c13.004-2.148 12.7-6.876 13.896-12.676 1.568-7.628-3.364-15.664-10.828-18.476l-60.992-19.384c-12.232-3.192-24.908 9.732-19.42 21.848 1.768 3.908 3.288 6.224 9.728 8.648l60.992 19.384c4.948 1.292 5.108 0.744 6.624 0.656zM734.816 236.838c2.464-0.272 3.088-0.428 5.396-1.328l58.56-25.824c20.616-10.188 9.092-24.82 0.608-28.996-4.092-2.012-7.212-2.744-13.52-0.284l-58.56 25.828c-8.448 4.172-8.436 7.488-9.24 11.528-1.804 9.112 3.696 18.352 15.36 19.108 0.468-0.012 0.932-0.024 1.396-0.032zM575.72 294.654l-3.176 51.424c-0.068 9.384 7.28 17.388 17.584 16.904 7.636-1.192 13.456-7.18 14.356-14.932l3.82-61.86c2.232 1.292 4.916 2.128 8 2.328 0.468-0.012 0.932-0.020 1.396-0.032 2.464-0.272 3.088-0.424 5.396-1.324l58.56-25.824c12.668-6.264 10.928-13.22 8.688-19.796-2.86-8.408-11.292-13.504-21.6-9.484l-58.56 25.824c-8.152 4.028-7.868 6.592-8.908 10.176-0.148 0.512-0.272 1.028-0.372 1.54-0.176-0.108-0.352-0.216-0.536-0.32-1.296-0.736-1.672-0.816-3.064-1.34l-60.992-19.384c-12.232-3.192-24.912 9.732-19.424 21.848 1.772 3.908 3.292 6.224 9.728 8.648l49.104 15.604zM582.24 490.742c7.64-1.196 13.46-7.184 14.36-14.936l3.944-63.876c0.096-13.032-16.824-22.072-26.888-12.684-2.784 2.596-4.312 4.352-5.052 10.712l-3.944 63.88c-0.068 9.38 7.28 17.384 17.58 16.904zM549.744 734.87l-397.38-76.748 255.452-94.568 149.124 35.38-0.164 2.66c-0.068 9.38 7.28 17.384 17.58 16.904 6.7-1.048 11.996-5.78 13.808-12.156l243.296 57.724-250.808 68.452c0.072-0.396 0.132-0.792 0.18-1.196l3.94-63.88c0.108-14.444-5.908-15.104-12.412-16.584-8.956-2.040-18.412 5.052-19.524 14.612l-3.944 63.88c-0.016 1.916 0.284 3.78 0.852 5.52zM352.84 342.11c0-46.98-38.084-85.064-85.064-85.064s-85.064 38.084-85.064 85.064c0 46.98 38.084 85.064 85.064 85.064s85.064-38.084 85.064-85.064z" />
<glyph unicode="&#xe949;" glyph-name="origin-center" d="M89.004 678.37c0.364 0.12 0.736 0.228 1.112 0.32l470.264 90.828c1.752 0.24 0.92 0.456 3.9 0.244 0.176-0.004 0.348-0.008 0.52-0.016l0.444-0.060 0.308-0.024c0.104-0.020 0.208-0.040 0.308-0.060 0.524-0.080 0.836-0.148 1.764-0.36l332.608-90.776c10.856-2.228 10.7-7.020 11.716-12.64 0.128-0.708 0.2-1.412 0.22-2.12 0.012-0.104 0.020-0.212 0.028-0.316l13.232-519.588c-0.416-13.484-5.832-15.104-11.956-15.996l-454.104-175.508c-8.756-2.868-12.596-0.616-15.536 2.1l-299.432 175.276c-0.592 0.348-1.172 0.744-1.74 1.196l-0.004 0.004c-5.788 4.244-5.56 7.172-5.944 10.772l-59.388 518.888c-1.252 7.708 3.088 15.6 11.68 17.836zM892.796 168.222l-12.084 474.64-290.172-68.844 2.12-34.332c0.096-13.068-16.744-22.148-26.888-12.684-2.784 2.6-4.312 4.352-5.052 10.712l-1.78 28.808-135.084-32.052 22.676-280.872 19.092 6.068c1.152 0.3 2.368 0.904 6.62 0.652 13.008-2.144 12.704-6.876 13.896-12.676 1.58-7.668-3.36-15.664-10.824-18.472l-26.144-8.312 18.648-230.988 399.752 154.5-23.156 10.212c-10.884 5.38-9.92 9.48-9.508 15.7 0.528 7.96 5.576 14.284 15.628 14.936 0.468-0.012 0.932-0.020 1.396-0.032 2.464-0.272 3.088-0.424 5.396-1.324l35.468-15.64zM415.228 243.65l-23.552 291.76-279.672 103.532 54.296-474.408 55.348 17.592c4.948 1.292 5.108 0.74 6.624 0.652 9.324-1.54 10.168-4.536 12.132-7.992 4.696-8.256 0.104-19.708-9.060-23.156l-39.612-12.592 243.448-142.496-17.308 214.368-3.548-1.128c-12.184-3.18-24.868 9.832-19.42 21.852 1.768 3.904 3.288 6.224 9.728 8.648l10.596 3.368zM350.26 221.55c13.004-2.148 12.7-6.876 13.896-12.676 1.568-7.628-3.364-15.664-10.828-18.476l-60.992-19.384c-12.232-3.192-24.908 9.732-19.42 21.848 1.768 3.908 3.288 6.224 9.728 8.648l60.992 19.384c4.948 1.292 5.108 0.744 6.624 0.656zM734.816 236.838c2.464-0.272 3.088-0.428 5.396-1.328l58.56-25.824c20.616-10.188 9.092-24.82 0.608-28.996-4.092-2.012-7.212-2.744-13.52-0.284l-58.56 25.828c-8.448 4.172-8.436 7.488-9.24 11.528-1.804 9.112 3.696 18.352 15.36 19.108 0.468-0.012 0.932-0.024 1.396-0.032zM575.72 294.654l-3.176 51.424c-0.068 9.384 7.28 17.388 17.584 16.904 7.636-1.192 13.456-7.18 14.356-14.932l3.82-61.86c2.232 1.292 4.916 2.128 8 2.328 0.468-0.012 0.932-0.020 1.396-0.032 2.464-0.272 3.088-0.424 5.396-1.324l58.56-25.824c12.668-6.264 10.928-13.22 8.688-19.796-2.86-8.408-11.292-13.504-21.6-9.484l-58.56 25.824c-8.152 4.028-7.868 6.592-8.908 10.176-0.148 0.512-0.272 1.028-0.372 1.54-0.176-0.108-0.352-0.216-0.536-0.32-1.296-0.736-1.672-0.816-3.064-1.34l-60.992-19.384c-12.232-3.192-24.912 9.732-19.424 21.848 1.772 3.908 3.292 6.224 9.728 8.648l49.104 15.604zM582.24 490.742c7.64-1.196 13.46-7.184 14.36-14.936l3.944-63.876c0.096-13.032-16.824-22.072-26.888-12.684-2.784 2.596-4.312 4.352-5.052 10.712l-3.944 63.88c-0.068 9.38 7.28 17.384 17.58 16.904zM549.744 734.87l-397.38-76.748 255.452-94.568 149.124 35.38-0.164 2.66c-0.068 9.38 7.28 17.384 17.58 16.904 6.7-1.048 11.996-5.78 13.808-12.156l243.296 57.724-250.808 68.452c0.072-0.396 0.132-0.792 0.18-1.196l3.94-63.88c0.108-14.444-5.908-15.104-12.412-16.584-8.956-2.040-18.412 5.052-19.524 14.612l-3.944 63.88c-0.016 1.916 0.284 3.78 0.852 5.52zM592.456 395.49c0-48.656-39.444-88.1-88.1-88.1s-88.1 39.444-88.1 88.1c0 48.656 39.444 88.1 88.1 88.1s88.1-39.444 88.1-88.1z" />
<glyph unicode="&#xe94a;" glyph-name="origin-min" d="M89.004 678.37c0.364 0.12 0.736 0.228 1.112 0.32l470.264 90.828c1.752 0.24 0.92 0.456 3.9 0.244 0.176-0.004 0.348-0.008 0.52-0.016l0.444-0.060 0.308-0.024c0.104-0.020 0.208-0.040 0.308-0.060 0.524-0.080 0.836-0.148 1.764-0.36l332.608-90.776c10.856-2.228 10.7-7.020 11.716-12.64 0.128-0.708 0.2-1.412 0.22-2.12 0.012-0.104 0.020-0.212 0.028-0.316l13.232-519.588c-0.416-13.484-5.832-15.104-11.956-15.996l-454.104-175.508c-8.756-2.868-12.596-0.616-15.536 2.1l-299.432 175.276c-0.592 0.348-1.172 0.744-1.74 1.196l-0.004 0.004c-5.788 4.244-5.56 7.172-5.944 10.772l-59.388 518.888c-1.252 7.708 3.088 15.6 11.68 17.836zM892.796 168.222l-12.084 474.64-290.172-68.844 2.12-34.332c0.096-13.068-16.744-22.148-26.888-12.684-2.784 2.6-4.312 4.352-5.052 10.712l-1.78 28.808-135.084-32.052 22.676-280.872 19.092 6.068c1.152 0.3 2.368 0.904 6.62 0.652 13.008-2.144 12.704-6.876 13.896-12.676 1.58-7.668-3.36-15.664-10.824-18.472l-26.144-8.312 18.648-230.988 399.752 154.5-23.156 10.212c-10.884 5.38-9.92 9.48-9.508 15.7 0.528 7.96 5.576 14.284 15.628 14.936 0.468-0.012 0.932-0.020 1.396-0.032 2.464-0.272 3.088-0.424 5.396-1.324l35.468-15.64zM415.228 243.65l-23.552 291.76-279.672 103.532 54.296-474.408 55.348 17.592c4.948 1.292 5.108 0.74 6.624 0.652 9.324-1.54 10.168-4.536 12.132-7.992 4.696-8.256 0.104-19.708-9.060-23.156l-39.612-12.592 243.448-142.496-17.308 214.368-3.548-1.128c-12.184-3.18-24.868 9.832-19.42 21.852 1.768 3.904 3.288 6.224 9.728 8.648l10.596 3.368zM350.26 221.55c13.004-2.148 12.7-6.876 13.896-12.676 1.568-7.628-3.364-15.664-10.828-18.476l-60.992-19.384c-12.232-3.192-24.908 9.732-19.42 21.848 1.768 3.908 3.288 6.224 9.728 8.648l60.992 19.384c4.948 1.292 5.108 0.744 6.624 0.656zM734.816 236.838c2.464-0.272 3.088-0.428 5.396-1.328l58.56-25.824c20.616-10.188 9.092-24.82 0.608-28.996-4.092-2.012-7.212-2.744-13.52-0.284l-58.56 25.828c-8.448 4.172-8.436 7.488-9.24 11.528-1.804 9.112 3.696 18.352 15.36 19.108 0.468-0.012 0.932-0.024 1.396-0.032zM575.72 294.654l-3.176 51.424c-0.068 9.384 7.28 17.388 17.584 16.904 7.636-1.192 13.456-7.18 14.356-14.932l3.82-61.86c2.232 1.292 4.916 2.128 8 2.328 0.468-0.012 0.932-0.020 1.396-0.032 2.464-0.272 3.088-0.424 5.396-1.324l58.56-25.824c12.668-6.264 10.928-13.22 8.688-19.796-2.86-8.408-11.292-13.504-21.6-9.484l-58.56 25.824c-8.152 4.028-7.868 6.592-8.908 10.176-0.148 0.512-0.272 1.028-0.372 1.54-0.176-0.108-0.352-0.216-0.536-0.32-1.296-0.736-1.672-0.816-3.064-1.34l-60.992-19.384c-12.232-3.192-24.912 9.732-19.424 21.848 1.772 3.908 3.292 6.224 9.728 8.648l49.104 15.604zM582.24 490.742c7.64-1.196 13.46-7.184 14.36-14.936l3.944-63.876c0.096-13.032-16.824-22.072-26.888-12.684-2.784 2.596-4.312 4.352-5.052 10.712l-3.944 63.88c-0.068 9.38 7.28 17.384 17.58 16.904zM549.744 734.87l-397.38-76.748 255.452-94.568 149.124 35.38-0.164 2.66c-0.068 9.38 7.28 17.384 17.58 16.904 6.7-1.048 11.996-5.78 13.808-12.156l243.296 57.724-250.808 68.452c0.072-0.396 0.132-0.792 0.18-1.196l3.94-63.88c0.108-14.444-5.908-15.104-12.412-16.584-8.956-2.040-18.412 5.052-19.524 14.612l-3.944 63.88c-0.016 1.916 0.284 3.78 0.852 5.52zM541.688-32.778c0-48.65-39.438-88.088-88.088-88.088s-88.088 39.438-88.088 88.088c0 48.65 39.438 88.088 88.088 88.088s88.088-39.438 88.088-88.088z" />
<glyph unicode="&#xe94b;" glyph-name="dynamic-component" d="M384-64h-384v384h384c0-128 0-256 0-384zM1024 384l-512-448v896c170.688-149.312 341.312-298.688 512-448zM64 256v-256h256v256c-85.312 0-170.688 0-256 0zM576 77.056l350.784 306.944-350.784 306.944c0-204.608 0-409.28 0-613.888zM384 448h-384v384h384c0-128 0-256 0-384zM64 512h256v256h-256c0-85.312 0-170.688 0-256z" />
<glyph unicode="&#xe94c;" glyph-name="edge" d="M259.475 766.036l-34.683 53.753c-19.191-12.378-37.485-26.096-54.745-41.050l41.882-48.377c15 12.984 30.888 24.905 47.545 35.675zM484.404 832.011c229.609-0.264 415.679-186.335 415.943-415.943 0-194.377-157.574-351.952-351.952-351.952s-351.952 157.574-351.952 351.952c0 159.036 128.924 287.961 287.961 287.961s287.961-128.924 287.961-287.961c0-123.695-100.274-223.969-223.969-223.969s-223.969 100.274-223.969 223.969c0 88.354 71.624 159.978 159.978 159.978s159.978-71.624 159.978-159.978c0-53.013-42.974-95.987-95.987-95.987s-95.987 42.974-95.987 95.987c0 17.672 14.324 31.996 31.996 31.996s31.996-14.324 31.996-31.996v-31.996h63.991v31.996c0 53.013-42.974 95.987-95.987 95.987s-95.987-42.974-95.987-95.987c0-88.354 71.624-159.978 159.978-159.978s159.978 71.624 159.978 159.978c0 123.695-100.274 223.969-223.969 223.969s-223.969-100.274-223.969-223.969c0-159.036 128.924-287.961 287.961-287.961s287.961 128.924 287.961 287.961c0 194.377-157.574 351.952-351.952 351.952s-351.952-157.574-351.952-351.952c0-229.719 186.225-415.943 415.943-415.943s415.943 186.225 415.943 415.943c-0.108 265.168-215.155 480.040-480.32 479.932-68.705-0.028-136.601-14.8-199.107-43.32l26.716-58.168c54.211 24.827 113.153 37.619 172.776 37.499zM169.983 688.414l-48.377 41.85c-14.938-17.254-28.644-35.535-41.018-54.713l53.785-34.683c10.745 16.662 22.645 32.55 35.611 47.545zM964.146 176.1c-132.42-229.613-425.904-308.404-655.518-175.984-148.666 85.738-240.239 244.333-240.167 415.951-0.142 59.624 12.64 118.568 37.467 172.776l-58.2 26.62c-28.668-62.553-43.428-130.584-43.258-199.397-0.078-300.401 243.383-543.988 543.784-544.068 194.435-0.050 374.111 103.69 471.278 272.105l-55.384 31.996z" />
<glyph unicode="&#xe94d;" glyph-name="edge-0001" d="M384 64c35.322 0 64 28.678 64 64s-28.678 64-64 64c-35.322 0-64-28.678-64-64s28.678-64 64-64zM640 64c35.322 0 64 28.678 64 64s-28.678 64-64 64c-35.322 0-64-28.678-64-64s28.678-64 64-64zM896 64c35.322 0 64 28.678 64 64s-28.678 64-64 64c-35.322 0-64-28.678-64-64s28.678-64 64-64zM896 320c35.322 0 64 28.678 64 64s-28.678 64-64 64c-35.322 0-64-28.678-64-64s28.678-64 64-64zM896 576c35.322 0 64 28.678 64 64s-28.678 64-64 64c-35.322 0-64-28.678-64-64s28.678-64 64-64zM384 576c35.322 0 64 28.678 64 64s-28.678 64-64 64c-35.322 0-64-28.678-64-64s28.678-64 64-64zM640 576c35.322 0 64 28.678 64 64s-28.678 64-64 64c-35.322 0-64-28.678-64-64s28.678-64 64-64zM64 128c0-35.322 28.678-64 64-64s64 28.678 64 64v512c0 35.322-28.678 64-64 64s-64-28.678-64-64v-512z" />
<glyph unicode="&#xe94e;" glyph-name="edge-1001" d="M384 64c35.322 0 64 28.678 64 64s-28.678 64-64 64c-35.322 0-64-28.678-64-64s28.678-64 64-64zM640 64c35.322 0 64 28.678 64 64s-28.678 64-64 64c-35.322 0-64-28.678-64-64s28.678-64 64-64zM896 64c35.322 0 64 28.678 64 64s-28.678 64-64 64c-35.322 0-64-28.678-64-64s28.678-64 64-64zM896 320c35.322 0 64 28.678 64 64s-28.678 64-64 64c-35.322 0-64-28.678-64-64s28.678-64 64-64zM64 128c0-35.322 28.678-64 64-64s64 28.678 64 64v512c0 35.322-28.678 64-64 64s-64-28.678-64-64v-512zM896 576c35.322 0 64 28.678 64 64s-28.678 64-64 64h-768c-35.322 0-64-28.678-64-64s28.678-64 64-64h768z" />
<glyph unicode="&#xe94f;" glyph-name="edge-1110" d="M128 576c35.322 0 64 28.678 64 64s-28.678 64-64 64c-35.322 0-64-28.678-64-64s28.678-64 64-64zM128 320c35.322 0 64 28.678 64 64s-28.678 64-64 64c-35.322 0-64-28.678-64-64s28.678-64 64-64zM896 64c35.322 0 64 28.678 64 64s-28.678 64-64 64h-768c-35.322 0-64-28.678-64-64s28.678-64 64-64h768zM832 128c0-35.322 28.678-64 64-64s64 28.678 64 64v512c0 35.322-28.678 64-64 64s-64-28.678-64-64v-512zM896 576c35.322 0 64 28.678 64 64s-28.678 64-64 64h-768c-35.322 0-64-28.678-64-64s28.678-64 64-64h768z" />
<glyph unicode="&#xe950;" glyph-name="edge-1111" d="M64 128c0-35.322 28.678-64 64-64s64 28.678 64 64v512c0 35.322-28.678 64-64 64s-64-28.678-64-64v-512zM896 64c35.322 0 64 28.678 64 64s-28.678 64-64 64h-768c-35.322 0-64-28.678-64-64s28.678-64 64-64h768zM832 128c0-35.322 28.678-64 64-64s64 28.678 64 64v512c0 35.322-28.678 64-64 64s-64-28.678-64-64v-512zM896 576c35.322 0 64 28.678 64 64s-28.678 64-64 64h-768c-35.322 0-64-28.678-64-64s28.678-64 64-64h768z" />
<glyph unicode="&#xe951;" glyph-name="edge-0111" d="M384 576c35.322 0 64 28.678 64 64s-28.678 64-64 64c-35.322 0-64-28.678-64-64s28.678-64 64-64zM640 576c35.322 0 64 28.678 64 64s-28.678 64-64 64c-35.322 0-64-28.678-64-64s28.678-64 64-64zM64 128c0-35.322 28.678-64 64-64s64 28.678 64 64v512c0 35.322-28.678 64-64 64s-64-28.678-64-64v-512zM896 64c35.322 0 64 28.678 64 64s-28.678 64-64 64h-768c-35.322 0-64-28.678-64-64s28.678-64 64-64h768zM832 128c0-35.322 28.678-64 64-64s64 28.678 64 64v512c0 35.322-28.678 64-64 64s-64-28.678-64-64v-512z" />
<glyph unicode="&#xe952;" glyph-name="edge-1100" d="M128 64c35.322 0 64 28.678 64 64s-28.678 64-64 64c-35.322 0-64-28.678-64-64s28.678-64 64-64zM384 64c35.322 0 64 28.678 64 64s-28.678 64-64 64c-35.322 0-64-28.678-64-64s28.678-64 64-64zM640 64c35.322 0 64 28.678 64 64s-28.678 64-64 64c-35.322 0-64-28.678-64-64s28.678-64 64-64zM896.414 703.998c35.132-0.222 63.586-28.814 63.586-63.998v-512c0-35.322-28.678-64-64-64s-64 28.678-64 64v448h-704c-35.322 0-64 28.678-64 64s28.678 64 64 64l768.414-0.002zM128 320c35.322 0 64 28.678 64 64s-28.678 64-64 64c-35.322 0-64-28.678-64-64s28.678-64 64-64z" />
<glyph unicode="&#xe953;" glyph-name="edge-1000" d="M128 320c35.322 0 64 28.678 64 64s-28.678 64-64 64c-35.322 0-64-28.678-64-64s28.678-64 64-64zM128 64c35.322 0 64 28.678 64 64s-28.678 64-64 64c-35.322 0-64-28.678-64-64s28.678-64 64-64zM384 64c35.322 0 64 28.678 64 64s-28.678 64-64 64c-35.322 0-64-28.678-64-64s28.678-64 64-64zM640 64c35.322 0 64 28.678 64 64s-28.678 64-64 64c-35.322 0-64-28.678-64-64s28.678-64 64-64zM896 64c35.322 0 64 28.678 64 64s-28.678 64-64 64c-35.322 0-64-28.678-64-64s28.678-64 64-64zM896 320c35.322 0 64 28.678 64 64s-28.678 64-64 64c-35.322 0-64-28.678-64-64s28.678-64 64-64zM896 576c35.322 0 64 28.678 64 64s-28.678 64-64 64h-768c-35.322 0-64-28.678-64-64s28.678-64 64-64h768z" />
<glyph unicode="&#xe954;" glyph-name="edge-0000" d="M128 576c35.322 0 64 28.678 64 64s-28.678 64-64 64c-35.322 0-64-28.678-64-64s28.678-64 64-64zM128 320c35.322 0 64 28.678 64 64s-28.678 64-64 64c-35.322 0-64-28.678-64-64s28.678-64 64-64zM128 64c35.322 0 64 28.678 64 64s-28.678 64-64 64c-35.322 0-64-28.678-64-64s28.678-64 64-64zM384 64c35.322 0 64 28.678 64 64s-28.678 64-64 64c-35.322 0-64-28.678-64-64s28.678-64 64-64zM640 64c35.322 0 64 28.678 64 64s-28.678 64-64 64c-35.322 0-64-28.678-64-64s28.678-64 64-64zM896 64c35.322 0 64 28.678 64 64s-28.678 64-64 64c-35.322 0-64-28.678-64-64s28.678-64 64-64zM896 320c35.322 0 64 28.678 64 64s-28.678 64-64 64c-35.322 0-64-28.678-64-64s28.678-64 64-64zM896 576c35.322 0 64 28.678 64 64s-28.678 64-64 64c-35.322 0-64-28.678-64-64s28.678-64 64-64zM384 576c35.322 0 64 28.678 64 64s-28.678 64-64 64c-35.322 0-64-28.678-64-64s28.678-64 64-64zM640 576c35.322 0 64 28.678 64 64s-28.678 64-64 64c-35.322 0-64-28.678-64-64s28.678-64 64-64z" />
<glyph unicode="&#xe955;" glyph-name="edge-1010" d="M128 320c35.322 0 64 28.678 64 64s-28.678 64-64 64c-35.322 0-64-28.678-64-64s28.678-64 64-64zM896 320c35.322 0 64 28.678 64 64s-28.678 64-64 64c-35.322 0-64-28.678-64-64s28.678-64 64-64zM896 64c35.322 0 64 28.678 64 64s-28.678 64-64 64h-768c-35.322 0-64-28.678-64-64s28.678-64 64-64h768zM896 576c35.322 0 64 28.678 64 64s-28.678 64-64 64h-768c-35.322 0-64-28.678-64-64s28.678-64 64-64h768z" />
<glyph unicode="&#xe956;" glyph-name="edge-0101" d="M384 64c35.322 0 64 28.678 64 64s-28.678 64-64 64c-35.322 0-64-28.678-64-64s28.678-64 64-64zM640 64c35.322 0 64 28.678 64 64s-28.678 64-64 64c-35.322 0-64-28.678-64-64s28.678-64 64-64zM384 576c35.322 0 64 28.678 64 64s-28.678 64-64 64c-35.322 0-64-28.678-64-64s28.678-64 64-64zM640 576c35.322 0 64 28.678 64 64s-28.678 64-64 64c-35.322 0-64-28.678-64-64s28.678-64 64-64zM64 128c0-35.322 28.678-64 64-64s64 28.678 64 64v512c0 35.322-28.678 64-64 64s-64-28.678-64-64v-512zM832 128c0-35.322 28.678-64 64-64s64 28.678 64 64v512c0 35.322-28.678 64-64 64s-64-28.678-64-64v-512z" />
<glyph unicode="&#xe957;" glyph-name="edge-1101" d="M384 64c35.322 0 64 28.678 64 64s-28.678 64-64 64c-35.322 0-64-28.678-64-64s28.678-64 64-64zM640 64c35.322 0 64 28.678 64 64s-28.678 64-64 64c-35.322 0-64-28.678-64-64s28.678-64 64-64zM64 128c0-35.322 28.678-64 64-64s64 28.678 64 64v512c0 35.322-28.678 64-64 64s-64-28.678-64-64v-512zM832 128c0-35.322 28.678-64 64-64s64 28.678 64 64v512c0 35.322-28.678 64-64 64s-64-28.678-64-64v-512zM896 576c35.322 0 64 28.678 64 64s-28.678 64-64 64h-768c-35.322 0-64-28.678-64-64s28.678-64 64-64h768z" />
<glyph unicode="&#xe958;" glyph-name="edge-1011" d="M896 320c35.322 0 64 28.678 64 64s-28.678 64-64 64c-35.322 0-64-28.678-64-64s28.678-64 64-64zM64 128c0-35.322 28.678-64 64-64s64 28.678 64 64v512c0 35.322-28.678 64-64 64s-64-28.678-64-64v-512zM896 64c35.322 0 64 28.678 64 64s-28.678 64-64 64h-768c-35.322 0-64-28.678-64-64s28.678-64 64-64h768zM896 576c35.322 0 64 28.678 64 64s-28.678 64-64 64h-768c-35.322 0-64-28.678-64-64s28.678-64 64-64h768z" />
<glyph unicode="&#xe959;" glyph-name="edge-0011" d="M896 320c35.322 0 64 28.678 64 64s-28.678 64-64 64c-35.322 0-64-28.678-64-64s28.678-64 64-64zM896 576c35.322 0 64 28.678 64 64s-28.678 64-64 64c-35.322 0-64-28.678-64-64s28.678-64 64-64zM384 576c35.322 0 64 28.678 64 64s-28.678 64-64 64c-35.322 0-64-28.678-64-64s28.678-64 64-64zM640 576c35.322 0 64 28.678 64 64s-28.678 64-64 64c-35.322 0-64-28.678-64-64s28.678-64 64-64zM64 128c0-35.322 28.678-64 64-64s64 28.678 64 64v512c0 35.322-28.678 64-64 64s-64-28.678-64-64v-512zM896 64c35.322 0 64 28.678 64 64s-28.678 64-64 64h-768c-35.322 0-64-28.678-64-64s28.678-64 64-64h768z" />
<glyph unicode="&#xe95a;" glyph-name="edge-0110" d="M128 576c35.322 0 64 28.678 64 64s-28.678 64-64 64c-35.322 0-64-28.678-64-64s28.678-64 64-64zM128 320c35.322 0 64 28.678 64 64s-28.678 64-64 64c-35.322 0-64-28.678-64-64s28.678-64 64-64zM384 576c35.322 0 64 28.678 64 64s-28.678 64-64 64c-35.322 0-64-28.678-64-64s28.678-64 64-64zM640 576c35.322 0 64 28.678 64 64s-28.678 64-64 64c-35.322 0-64-28.678-64-64s28.678-64 64-64zM896 64c35.322 0 64 28.678 64 64s-28.678 64-64 64h-768c-35.322 0-64-28.678-64-64s28.678-64 64-64h768zM832 128c0-35.322 28.678-64 64-64s64 28.678 64 64v512c0 35.322-28.678 64-64 64s-64-28.678-64-64v-512z" />
<glyph unicode="&#xe95b;" glyph-name="edge-0010" d="M128 576c35.322 0 64 28.678 64 64s-28.678 64-64 64c-35.322 0-64-28.678-64-64s28.678-64 64-64zM128 320c35.322 0 64 28.678 64 64s-28.678 64-64 64c-35.322 0-64-28.678-64-64s28.678-64 64-64zM896 320c35.322 0 64 28.678 64 64s-28.678 64-64 64c-35.322 0-64-28.678-64-64s28.678-64 64-64zM896 576c35.322 0 64 28.678 64 64s-28.678 64-64 64c-35.322 0-64-28.678-64-64s28.678-64 64-64zM384 576c35.322 0 64 28.678 64 64s-28.678 64-64 64c-35.322 0-64-28.678-64-64s28.678-64 64-64zM640 576c35.322 0 64 28.678 64 64s-28.678 64-64 64c-35.322 0-64-28.678-64-64s28.678-64 64-64zM896 64c35.322 0 64 28.678 64 64s-28.678 64-64 64h-768c-35.322 0-64-28.678-64-64s28.678-64 64-64h768z" />
<glyph unicode="&#xe95c;" glyph-name="edge-0100" d="M128 576c35.322 0 64 28.678 64 64s-28.678 64-64 64c-35.322 0-64-28.678-64-64s28.678-64 64-64zM128 320c35.322 0 64 28.678 64 64s-28.678 64-64 64c-35.322 0-64-28.678-64-64s28.678-64 64-64zM128 64c35.322 0 64 28.678 64 64s-28.678 64-64 64c-35.322 0-64-28.678-64-64s28.678-64 64-64zM384 64c35.322 0 64 28.678 64 64s-28.678 64-64 64c-35.322 0-64-28.678-64-64s28.678-64 64-64zM640 64c35.322 0 64 28.678 64 64s-28.678 64-64 64c-35.322 0-64-28.678-64-64s28.678-64 64-64zM384 576c35.322 0 64 28.678 64 64s-28.678 64-64 64c-35.322 0-64-28.678-64-64s28.678-64 64-64zM640 576c35.322 0 64 28.678 64 64s-28.678 64-64 64c-35.322 0-64-28.678-64-64s28.678-64 64-64zM832 128c0-35.322 28.678-64 64-64s64 28.678 64 64v512c0 35.322-28.678 64-64 64s-64-28.678-64-64v-512z" />
<glyph unicode="&#xe95d;" glyph-name="asterisk" d="M797.15 402.286c-9.568-16.656-26.946-25.86-44.841-25.86-8.767 0-17.661 2.226-25.808 6.931l-154.698 89.35v-178.697c0-28.549-23.172-51.721-51.721-51.721s-51.721 23.172-51.721 51.721v178.722l-154.773-89.377c-8.147-4.707-17.040-6.931-25.808-6.931-17.871 0-35.276 9.208-44.841 25.86-14.276 24.749-5.819 56.377 18.93 70.599l154.722 89.377-154.773 89.377c-24.749 14.301-33.203 45.878-18.93 70.626s45.929 33.23 70.651 18.93l154.748-89.35v178.722c0 28.549 23.172 51.721 51.721 51.721s51.721-23.172 51.721-51.721v-178.697l154.698 89.35c24.722 14.301 56.452 5.819 70.651-18.93 14.276-24.749 5.819-56.377-18.93-70.626l-154.671-89.377 154.698-89.35c24.749-14.276 33.256-45.902 18.982-70.651z" />
<glyph unicode="&#xe95e;" glyph-name="filter-on" d="M985.954 877.714h-943.954c-22.093 0-40-17.907-40-40 0-111.39 47.749-217.735 131.008-291.742l175.18-155.704c30.375-26.999 47.797-65.797 47.797-106.444v-390.064c0-31.874 35.624-50.984 62.179-33.273l235.991 157.319c11.126 7.422 17.813 19.907 17.813 33.283v232.735c0 40.647 17.422 79.445 47.797 106.444l175.172 155.704c83.257 74.007 131.008 180.352 131.008 291.742 0 22.093-17.907 40-39.992 40z" />
<glyph unicode="&#xe95f;" glyph-name="filter-off" d="M985.953 877.714h-943.953c-22.094 0-40-17.906-40-40 0-111.391 47.75-217.734 131.008-291.742l175.18-155.703c30.375-27 47.797-65.797 47.797-106.445v-390.063c0-31.875 35.625-50.984 62.18-33.273l235.992 157.32c11.125 7.422 17.813 19.906 17.813 33.281v232.734c0 40.648 17.422 79.445 47.797 106.445l175.172 155.703c83.258 74.008 131.008 180.352 131.008 291.742 0 22.094-17.906 40-39.992 40zM841.789 605.769l-175.172-155.711c-47.438-42.172-74.648-102.758-74.648-166.227v-211.336l-155.992-103.992v315.32c0 63.477-27.211 124.063-74.648 166.234l-175.172 155.703c-56.141 49.914-91.977 118.305-101.57 191.961h858.774c-9.594-73.656-45.422-142.047-101.57-191.953z" />
</font>
</defs>
</svg>
